<svg xmlns="http://www.w3.org/2000/svg" xmlns:xlink="http://www.w3.org/1999/xlink" width="600" height="400" viewBox="0 0 600 400">
  <defs>
    <linearGradient id="a" x1="173.71" y1="240.41" x2="157.22" y2="236.05" gradientUnits="userSpaceOnUse">
      <stop offset="0" stop-color="#fff"/>
      <stop offset="1"/>
    </linearGradient>
    <linearGradient id="b" x1="157.95" y1="225.63" x2="278.92" y2="225.63" gradientUnits="userSpaceOnUse">
      <stop offset="0" stop-color="#feb73d"/>
      <stop offset="0.09" stop-color="#feb73d" stop-opacity="0.95"/>
      <stop offset="0.25" stop-color="#feb73d" stop-opacity="0.82"/>
      <stop offset="0.46" stop-color="#feb73d" stop-opacity="0.62"/>
      <stop offset="0.72" stop-color="#feb73d" stop-opacity="0.33"/>
      <stop offset="1" stop-color="#feb73d" stop-opacity="0"/>
    </linearGradient>
  </defs>
  <title>room</title>
  <g style="isolation: isolate">
    <g>
      <polygon points="124.5 334.7 179.5 140.5 419.41 175.02 474.17 369.02 124.5 334.7" style="fill: #666"/>
      <line x1="165.88" y1="338.67" x2="207.64" y2="144.88" style="fill: none;stroke: #000;stroke-miterlimit: 10;mix-blend-mode: overlay"/>
      <line x1="207.64" y1="343.01" x2="237.08" y2="148.09" style="fill: none;stroke: #000;stroke-miterlimit: 10;mix-blend-mode: overlay"/>
      <line x1="251.54" y1="346.96" x2="264.8" y2="153.59" style="fill: none;stroke: #000;stroke-miterlimit: 10;mix-blend-mode: overlay"/>
      <line x1="299.8" y1="352.22" x2="300.41" y2="157.3" style="fill: none;stroke: #000;stroke-miterlimit: 10;mix-blend-mode: overlay"/>
      <line x1="348.46" y1="356.86" x2="334.47" y2="162.86" style="fill: none;stroke: #000;stroke-miterlimit: 10;mix-blend-mode: overlay"/>
      <line x1="395.86" y1="361.45" x2="367.53" y2="168.4" style="fill: none;stroke: #000;stroke-miterlimit: 10;mix-blend-mode: overlay"/>
      <line x1="440.56" y1="365.92" x2="398.96" y2="172.87" style="fill: none;stroke: #000;stroke-miterlimit: 10;mix-blend-mode: overlay"/>
      <g style="opacity: 0.5;mix-blend-mode: screen">
        <line x1="166.88" y1="338.67" x2="208.64" y2="144.88" style="fill: none;stroke: #fff;stroke-miterlimit: 10;mix-blend-mode: overlay"/>
      </g>
      <g style="opacity: 0.5;mix-blend-mode: screen">
        <line x1="208.64" y1="343.01" x2="238.08" y2="148.09" style="fill: none;stroke: #fff;stroke-miterlimit: 10;mix-blend-mode: overlay"/>
      </g>
      <g style="opacity: 0.5;mix-blend-mode: screen">
        <line x1="252.54" y1="346.96" x2="265.8" y2="153.59" style="fill: none;stroke: #fff;stroke-miterlimit: 10;mix-blend-mode: overlay"/>
      </g>
      <g style="opacity: 0.5;mix-blend-mode: screen">
        <line x1="300.8" y1="352.22" x2="301.41" y2="157.3" style="fill: none;stroke: #fff;stroke-miterlimit: 10;mix-blend-mode: overlay"/>
      </g>
      <g style="opacity: 0.5;mix-blend-mode: screen">
        <line x1="349.46" y1="356.86" x2="335.47" y2="162.86" style="fill: none;stroke: #fff;stroke-miterlimit: 10;mix-blend-mode: overlay"/>
      </g>
      <g style="opacity: 0.5;mix-blend-mode: screen">
        <line x1="396.86" y1="361.45" x2="368.53" y2="168.4" style="fill: none;stroke: #fff;stroke-miterlimit: 10;mix-blend-mode: overlay"/>
      </g>
      <g style="opacity: 0.5;mix-blend-mode: screen">
        <line x1="441.56" y1="365.92" x2="399.96" y2="172.87" style="fill: none;stroke: #fff;stroke-miterlimit: 10;mix-blend-mode: overlay"/>
      </g>
      <polygon points="124.5 334.7 153.18 334.5 202.49 140.71 179.5 140.5 124.5 334.7" style="opacity: 0.3;mix-blend-mode: multiply;fill: url(#a)"/>
    </g>
    <g>
      <polygon points="136.28 294.5 72.42 212.07 133.02 76.51 170.88 172.27 136.28 294.5" style="fill: #4a3c5d"/>
      <polygon points="49.63 263.05 151.21 40.88 75.11 94.01 49.63 263.05" style="fill: #4a3c5d"/>
      <polygon points="44.11 18.7 128.27 64.42 62.16 190.3 44.11 18.7" style="fill: #4a3c5d"/>
      <path d="M162.65,200s-7.68-22.8-16.73-41c-7.8-15.69-28.17-19.48-34.94-7-5.83,10.71-8.17,33.6,10.67,53.48s29.56,31.8,29.56,31.8Z" style="fill: #feb73d"/>
      <path d="M170.67,194.5s54.45,7.58,74.72,9.12c14.78,1.13,37.07,9.05,33.05,33.45-2,12-12.65,23.19-38.55,18.66C212.91,251,158,237.35,158,237.35Z" style="mix-blend-mode: overlay;fill: url(#b)"/>
      <polygon points="136.28 294.5 170.88 172.27 162.65 174.79 134.72 247.61 136.28 294.5" style="fill: #4a3c5d"/>
      <polygon points="474.17 369.02 474.17 375.93 121.65 346.96 124.5 334.7 474.17 369.02" style="fill: #1d0b35"/>
    </g>
    <g>
      <circle cx="86.28" cy="99.68" r="20.72" style="fill: #feb73d"/>
      <rect x="53.03" y="97.48" width="64.64" height="7" transform="translate(-46.75 106.6) rotate(-52.23)" style="fill: #4a3c5d"/>
      <rect x="99.73" y="171.2" width="66.97" height="7" transform="translate(-85.89 190.84) rotate(-56.89)" style="fill: #4a3c5d"/>
      <rect x="128.12" y="129.92" width="7" height="88.68" transform="translate(-72.32 96.17) rotate(-31.98)" style="fill: #4a3c5d"/>
      <rect x="79.75" y="66.51" width="7" height="60.59" transform="translate(-38.64 58.79) rotate(-31.98)" style="fill: #4a3c5d"/>
    </g>
  </g>
</svg>
