<svg xmlns="http://www.w3.org/2000/svg" xmlns:xlink="http://www.w3.org/1999/xlink" width="600" height="400" viewBox="0 0 600 400">
  <defs>
    <linearGradient id="a" x1="173.71" y1="240.41" x2="157.22" y2="236.05" gradientUnits="userSpaceOnUse">
      <stop offset="0" stop-color="#fff"/>
      <stop offset="1"/>
    </linearGradient>
    <linearGradient id="b" x1="300.54" y1="148.67" x2="300.54" y2="142" xlink:href="#a"/>
    <linearGradient id="c" x1="271.6" y1="101.74" x2="275.05" y2="115.28" gradientUnits="userSpaceOnUse">
      <stop offset="0.01" stop-color="#fff78f"/>
      <stop offset="1" stop-color="#b76e11"/>
    </linearGradient>
    <linearGradient id="d" x1="269.96" y1="133.11" x2="259.39" y2="77.41" xlink:href="#a"/>
    <linearGradient id="e" x1="327.08" y1="141.67" x2="252.33" y2="133.8" xlink:href="#a"/>
    <radialGradient id="f" cx="274.06" cy="111.47" r="2.97" xlink:href="#c"/>
    <linearGradient id="g" x1="365.57" y1="720.04" x2="369.68" y2="736.18" gradientTransform="translate(522.54 -637) rotate(31.6)" xlink:href="#c"/>
    <radialGradient id="h" cx="367.23" cy="731.23" r="3.31" gradientTransform="translate(522.54 -637) rotate(31.6)" xlink:href="#c"/>
  </defs>
  <title>room</title>
  <g style="isolation: isolate">
    <g>
      <g>
        <polygon points="181.43 287.13 155.85 287.13 147.61 324.53 174.64 324.53 181.43 287.13" style="fill: red;stroke: #fff;stroke-miterlimit: 10;stroke-width: 0.9763386260272355px"/>
        <polygon points="214.43 287.13 188.85 287.13 182.49 324.53 209.52 324.53 214.43 287.13" style="fill: red;stroke: #fff;stroke-miterlimit: 10;stroke-width: 0.9763386260272355px"/>
        <polygon points="247.43 287.13 221.85 287.13 217.37 324.53 244.41 324.53 247.43 287.13" style="fill: red;stroke: #fff;stroke-miterlimit: 10;stroke-width: 0.9763386260272355px"/>
        <polygon points="280.44 287.13 254.86 287.13 252.25 324.53 279.29 324.53 280.44 287.13" style="fill: red;stroke: #fff;stroke-miterlimit: 10;stroke-width: 0.9763386260272355px"/>
        <polygon points="313.44 287.13 287.86 287.13 287.13 324.53 314.17 324.53 313.44 287.13" style="fill: red;stroke: #fff;stroke-miterlimit: 10;stroke-width: 0.9763386260272355px"/>
        <polygon points="346.44 287.13 320.87 287.13 322.02 324.53 349.05 324.53 346.44 287.13" style="fill: red;stroke: #fff;stroke-miterlimit: 10;stroke-width: 0.9763386260272355px"/>
        <polygon points="379.45 287.13 353.87 287.13 356.9 324.53 383.93 324.53 379.45 287.13" style="fill: red;stroke: #fff;stroke-miterlimit: 10;stroke-width: 0.9763386260272355px"/>
        <polygon points="412.45 287.13 386.87 287.13 391.78 324.53 418.81 324.53 412.45 287.13" style="fill: red;stroke: #fff;stroke-miterlimit: 10;stroke-width: 0.9763386260272355px"/>
        <polygon points="445.46 287.13 419.88 287.13 426.66 324.53 453.69 324.53 445.46 287.13" style="fill: red;stroke: #fff;stroke-miterlimit: 10;stroke-width: 0.9763386260272355px"/>
        <polygon points="188.92 245.79 164.96 245.79 157.75 278.52 182.99 278.52 188.92 245.79" style="fill: red;stroke: #fff;stroke-miterlimit: 10;stroke-width: 0.9763386260272355px"/>
        <polygon points="219.85 245.79 195.88 245.79 190.32 278.52 215.56 278.52 219.85 245.79" style="fill: red;stroke: #fff;stroke-miterlimit: 10;stroke-width: 0.9763386260272355px"/>
        <polygon points="250.78 245.79 226.81 245.79 222.89 278.52 248.13 278.52 250.78 245.79" style="fill: red;stroke: #fff;stroke-miterlimit: 10;stroke-width: 0.9763386260272355px"/>
        <polygon points="281.71 245.79 257.74 245.79 255.46 278.52 280.7 278.52 281.71 245.79" style="fill: red;stroke: #fff;stroke-miterlimit: 10;stroke-width: 0.9763386260272355px"/>
        <polygon points="312.64 245.79 288.67 245.79 288.03 278.52 313.27 278.52 312.64 245.79" style="fill: red;stroke: #fff;stroke-miterlimit: 10;stroke-width: 0.9763386260272355px"/>
        <polygon points="343.56 245.79 319.6 245.79 320.6 278.52 345.85 278.52 343.56 245.79" style="fill: red;stroke: #fff;stroke-miterlimit: 10;stroke-width: 0.9763386260272355px"/>
        <polygon points="374.49 245.79 350.52 245.79 353.17 278.52 378.42 278.52 374.49 245.79" style="fill: red;stroke: #fff;stroke-miterlimit: 10;stroke-width: 0.9763386260272355px"/>
        <polygon points="405.42 245.79 381.45 245.79 385.74 278.52 410.99 278.52 405.42 245.79" style="fill: red;stroke: #fff;stroke-miterlimit: 10;stroke-width: 0.9763386260272355px"/>
        <polygon points="436.35 245.79 412.38 245.79 418.31 278.52 443.56 278.52 436.35 245.79" style="fill: red;stroke: #fff;stroke-miterlimit: 10;stroke-width: 0.9763386260272355px"/>
        <polygon points="195.53 209.35 172.98 209.35 166.62 238.22 190.3 238.22 195.53 209.35" style="fill: red;stroke: #fff;stroke-miterlimit: 10;stroke-width: 0.9763386260272355px"/>
        <polygon points="224.63 209.35 202.08 209.35 197.17 238.22 220.85 238.22 224.63 209.35" style="fill: red;stroke: #fff;stroke-miterlimit: 10;stroke-width: 0.9763386260272355px"/>
        <polygon points="253.73 209.35 231.18 209.35 227.72 238.22 251.39 238.22 253.73 209.35" style="fill: red;stroke: #fff;stroke-miterlimit: 10;stroke-width: 0.9763386260272355px"/>
        <polygon points="282.83 209.35 260.28 209.35 258.27 238.22 281.94 238.22 282.83 209.35" style="fill: red;stroke: #fff;stroke-miterlimit: 10;stroke-width: 0.9763386260272355px"/>
        <polygon points="311.93 209.35 289.38 209.35 288.81 238.22 312.49 238.22 311.93 209.35" style="fill: red;stroke: #fff;stroke-miterlimit: 10;stroke-width: 0.9763386260272355px"/>
        <polygon points="341.03 209.35 318.47 209.35 319.36 238.22 343.04 238.22 341.03 209.35" style="fill: red;stroke: #fff;stroke-miterlimit: 10;stroke-width: 0.9763386260272355px"/>
        <polygon points="370.12 209.35 347.57 209.35 349.91 238.22 373.58 238.22 370.12 209.35" style="fill: red;stroke: #fff;stroke-miterlimit: 10;stroke-width: 0.9763386260272355px"/>
        <polygon points="399.22 209.35 376.67 209.35 380.46 238.22 404.13 238.22 399.22 209.35" style="fill: red;stroke: #fff;stroke-miterlimit: 10;stroke-width: 0.9763386260272355px"/>
        <polygon points="428.32 209.35 405.77 209.35 411.01 238.22 434.68 238.22 428.32 209.35" style="fill: red;stroke: #fff;stroke-miterlimit: 10;stroke-width: 0.9763386260272355px"/>
        <polygon points="201.41 176.97 180.12 176.97 174.46 202.64 196.75 202.64 201.41 176.97" style="fill: red;stroke: #fff;stroke-miterlimit: 10;stroke-width: 0.9763386260272355px"/>
        <polygon points="228.88 176.97 207.59 176.97 203.22 202.64 225.51 202.64 228.88 176.97" style="fill: red;stroke: #fff;stroke-miterlimit: 10;stroke-width: 0.9763386260272355px"/>
        <polygon points="256.35 176.97 235.06 176.97 231.98 202.64 254.28 202.64 256.35 176.97" style="fill: red;stroke: #fff;stroke-miterlimit: 10;stroke-width: 0.9763386260272355px"/>
        <polygon points="283.82 176.97 262.53 176.97 260.75 202.64 283.04 202.64 283.82 176.97" style="fill: red;stroke: #fff;stroke-miterlimit: 10;stroke-width: 0.9763386260272355px"/>
        <polygon points="311.3 176.97 290.01 176.97 289.51 202.64 311.8 202.64 311.3 176.97" style="fill: red;stroke: #fff;stroke-miterlimit: 10;stroke-width: 0.9763386260272355px"/>
        <polygon points="338.77 176.97 317.48 176.97 318.27 202.64 340.56 202.64 338.77 176.97" style="fill: red;stroke: #fff;stroke-miterlimit: 10;stroke-width: 0.9763386260272355px"/>
        <polygon points="366.24 176.97 344.95 176.97 347.03 202.64 369.32 202.64 366.24 176.97" style="fill: red;stroke: #fff;stroke-miterlimit: 10;stroke-width: 0.9763386260272355px"/>
        <polygon points="393.71 176.97 372.42 176.97 375.79 202.64 398.08 202.64 393.71 176.97" style="fill: red;stroke: #fff;stroke-miterlimit: 10;stroke-width: 0.9763386260272355px"/>
        <polygon points="421.19 176.97 399.9 176.97 404.55 202.64 426.84 202.64 421.19 176.97" style="fill: red;stroke: #fff;stroke-miterlimit: 10;stroke-width: 0.9763386260272355px"/>
        <polygon points="206.66 148.02 186.49 148.02 181.43 170.99 202.49 170.99 206.66 148.02" style="fill: red;stroke: #fff;stroke-miterlimit: 10;stroke-width: 0.9763386260272355px"/>
        <polygon points="232.68 148.02 212.51 148.02 208.61 170.99 229.66 170.99 232.68 148.02" style="fill: red;stroke: #fff;stroke-miterlimit: 10;stroke-width: 0.9763386260272355px"/>
        <polygon points="258.7 148.02 238.53 148.02 235.78 170.99 256.84 170.99 258.7 148.02" style="fill: red;stroke: #fff;stroke-miterlimit: 10;stroke-width: 0.9763386260272355px"/>
        <polygon points="284.71 148.02 264.55 148.02 262.95 170.99 284.01 170.99 284.71 148.02" style="fill: red;stroke: #fff;stroke-miterlimit: 10;stroke-width: 0.9763386260272355px"/>
        <polygon points="310.73 148.02 290.57 148.02 290.12 170.99 311.18 170.99 310.73 148.02" style="fill: red;stroke: #fff;stroke-miterlimit: 10;stroke-width: 0.9763386260272355px"/>
        <polygon points="336.75 148.02 316.59 148.02 317.29 170.99 338.35 170.99 336.75 148.02" style="fill: red;stroke: #fff;stroke-miterlimit: 10;stroke-width: 0.9763386260272355px"/>
        <polygon points="362.77 148.02 342.61 148.02 344.47 170.99 365.52 170.99 362.77 148.02" style="fill: red;stroke: #fff;stroke-miterlimit: 10;stroke-width: 0.9763386260272355px"/>
        <polygon points="388.79 148.02 368.63 148.02 371.64 170.99 392.7 170.99 388.79 148.02" style="fill: red;stroke: #fff;stroke-miterlimit: 10;stroke-width: 0.9763386260272355px"/>
        <polygon points="414.81 148.02 394.64 148.02 398.81 170.99 419.87 170.99 414.81 148.02" style="fill: red;stroke: #fff;stroke-miterlimit: 10;stroke-width: 0.9763386260272355px"/>
      </g>
      <polygon points="124.5 334.7 179.5 140.5 421.15 140.71 475.91 334.7 124.5 334.7" style="fill: #998675"/>
      <line x1="166.88" y1="334.5" x2="208.64" y2="140.71" style="fill: none;stroke: #000;stroke-miterlimit: 10;mix-blend-mode: overlay"/>
      <line x1="208.64" y1="334.7" x2="238.08" y2="139.78" style="fill: none;stroke: #000;stroke-miterlimit: 10;mix-blend-mode: overlay"/>
      <line x1="252.54" y1="333.76" x2="265.8" y2="140.39" style="fill: none;stroke: #000;stroke-miterlimit: 10;mix-blend-mode: overlay"/>
      <line x1="300" y1="334.7" x2="300.61" y2="139.78" style="fill: none;stroke: #000;stroke-miterlimit: 10;mix-blend-mode: overlay"/>
      <line x1="348.46" y1="334.7" x2="334.47" y2="140.71" style="fill: none;stroke: #000;stroke-miterlimit: 10;mix-blend-mode: overlay"/>
      <line x1="391.39" y1="333.76" x2="363.06" y2="140.71" style="fill: none;stroke: #000;stroke-miterlimit: 10;mix-blend-mode: overlay"/>
      <line x1="433.96" y1="333.76" x2="392.36" y2="140.71" style="fill: none;stroke: #000;stroke-miterlimit: 10;mix-blend-mode: overlay"/>
      <g style="opacity: 0.5;mix-blend-mode: screen">
        <line x1="167.88" y1="334.5" x2="209.64" y2="140.71" style="fill: none;stroke: #fff;stroke-miterlimit: 10;mix-blend-mode: overlay"/>
      </g>
      <g style="opacity: 0.5;mix-blend-mode: screen">
        <line x1="209.64" y1="334.7" x2="239.08" y2="139.78" style="fill: none;stroke: #fff;stroke-miterlimit: 10;mix-blend-mode: overlay"/>
      </g>
      <g style="opacity: 0.5;mix-blend-mode: screen">
        <line x1="253.54" y1="333.76" x2="266.8" y2="140.39" style="fill: none;stroke: #fff;stroke-miterlimit: 10;mix-blend-mode: overlay"/>
      </g>
      <g style="opacity: 0.5;mix-blend-mode: screen">
        <line x1="301" y1="334.7" x2="301.61" y2="139.78" style="fill: none;stroke: #fff;stroke-miterlimit: 10;mix-blend-mode: overlay"/>
      </g>
      <g style="opacity: 0.5;mix-blend-mode: screen">
        <line x1="349.46" y1="334.7" x2="335.47" y2="140.71" style="fill: none;stroke: #fff;stroke-miterlimit: 10;mix-blend-mode: overlay"/>
      </g>
      <g style="opacity: 0.5;mix-blend-mode: screen">
        <line x1="392.39" y1="333.76" x2="364.06" y2="140.71" style="fill: none;stroke: #fff;stroke-miterlimit: 10;mix-blend-mode: overlay"/>
      </g>
      <g style="opacity: 0.5;mix-blend-mode: screen">
        <line x1="434.96" y1="333.76" x2="393.36" y2="140.71" style="fill: none;stroke: #fff;stroke-miterlimit: 10;mix-blend-mode: overlay"/>
      </g>
      <polygon points="124.5 334.7 153.18 334.5 202.49 140.71 179.5 140.5 124.5 334.7" style="opacity: 0.3;mix-blend-mode: multiply;fill: url(#a)"/>
      <polygon points="179.5 140.5 421.15 140.71 424.23 150.02 176.85 150.02 179.5 140.5" style="opacity: 0.2;mix-blend-mode: multiply;fill: url(#b)"/>
    </g>
    <g>
      <polygon points="53.5 254.5 125.5 334.5 179.5 140.5 421.5 140.5 475.5 334.5 547.5 254.5 454.5 54.5 146.5 54.5 53.5 254.5" style="fill: #29abe2"/>
      <polygon points="454.94 54.66 146.28 54.66 178.97 140.71 422.25 140.71 454.94 54.66" style="opacity: 0.3;mix-blend-mode: multiply"/>
      <polygon points="125.5 334.5 53.5 254.5 145.5 54.5 179.5 140.5 125.5 334.5" style="opacity: 0.5;mix-blend-mode: multiply"/>
      <polygon points="475.5 334.5 547.5 254.5 455.5 54.5 421.5 140.5 475.5 334.5" style="opacity: 0.1;mix-blend-mode: multiply"/>
      <polygon points="53.5 254.5 547.5 254.5 475.5 334.5 125.5 334.5 53.5 254.5" style="fill: #29abe2;opacity: 0.3"/>
    </g>
    <g>
      <polygon points="265.82 140.71 260.21 71 340.79 71 335.2 140.68 265.82 140.71" style="fill: #754c24"/>
      <polygon points="277.42 118 271.48 118 270.48 107.83 277.42 107.83 277.42 118" style="fill: url(#c)"/>
      <polygon points="467.5 122.5 486.58 170.61 451.51 239.51 438.42 193 467.5 122.5" style="fill: #8c6239"/>
      <polygon points="336.48 77 335.4 78 265.24 77.64 264.54 77 264.5 77 269.49 138.67 270.39 137.68 330 137 331.51 138.65 336.5 77 336.48 77" style="fill: none"/>
      <polygon points="336.5 75 331.51 136.65 335.2 140.68 340.84 71 340.79 71 336.48 75 336.5 75" style="fill: #ccc;mix-blend-mode: multiply"/>
      <polygon points="264.5 75 264.54 75 260.21 71 260.16 71 265.8 140.71 265.82 140.71 269.49 136.67 264.5 75" style="opacity: 0.7000000000000001;mix-blend-mode: multiply;fill: url(#d)"/>
      <polygon points="335.2 140.68 331.51 136.65 331.51 136.71 269.49 136.71 269.49 136.67 265.82 140.71 335.2 140.71 335.2 140.68" style="opacity: 0.5;mix-blend-mode: multiply;fill: url(#e)"/>
      <polygon points="336.48 75 340.79 71 260.21 71 264.54 75 336.48 75" style="fill: #4d4d4d;mix-blend-mode: multiply"/>
      <polygon points="437.39 195.5 439.13 195.5 468.14 132.32 486.58 170.61 469.89 128.52 467.5 122.5 437.39 195.5" style="fill: #999;mix-blend-mode: multiply"/>
      <circle cx="274.67" cy="112.5" r="2.75" style="fill: #999;opacity: 0.5;mix-blend-mode: multiply"/>
      <circle cx="274.23" cy="112.16" r="2.75" style="fill: url(#f)"/>
      <polygon points="451.26 187.62 448.69 183.04 452.9 173.69 456.5 178.77 451.26 187.62" style="fill: url(#g)"/>
      <path d="M454.88,181.84a2.93,2.93,0,1,1-5-2.94,3.29,3.29,0,0,1,3.91-1.5A3,3,0,0,1,454.88,181.84Z" style="fill: #999;opacity: 0.5;mix-blend-mode: multiply"/>
      <path d="M454.37,180.39a3.09,3.09,0,0,1-4.42,1.19,3,3,0,0,1-.46-3.94,3.28,3.28,0,0,1,3.82-1.53C454.86,176.72,455.43,178.67,454.37,180.39Z" style="fill: url(#h)"/>
    </g>
    <g>
      <polygon points="182.49 145.26 237.26 145.26 230.71 188.59 170.48 187.4 182.49 145.26" style="fill: #87451f;fill-rule: evenodd"/>
      <polygon points="237.26 145.26 233.78 114 226.33 163 230.71 188.59 237.26 145.26" style="fill: #a27558;fill-rule: evenodd"/>
      <polygon points="226.33 163 163.5 163 170.48 187.4 230.71 188.59 226.33 163" style="fill: #c48a57;fill-rule: evenodd"/>
      <polygon points="163.5 163 174.46 116 233.78 114 226.33 163 163.5 163" style="fill: #e5af82;fill-rule: evenodd"/>
      <path d="M147.27,139.36c.88-2.09,2.45-6.91,1.11-8.82a3,3,0,0,0-4.35-.64,4.64,4.64,0,0,0-1.79,3.6c-.58-1.73-1-2.49,1-3.94a3.94,3.94,0,0,1,5.31-.23c3,2.61.35,7-.31,9.83" style="fill: #897870;fill-rule: evenodd"/>
      <polygon points="192.82 115.25 202.05 115.25 192.82 162.99 194.05 169.63 188.05 169.63 186.05 162.99 192.82 115.25" style="fill: #dfd6cd;fill-rule: evenodd"/>
      <polygon points="230.93 114.98 229.45 83.71 220 132.71 224.38 158.31 230.93 114.98" style="fill: #a27558;fill-rule: evenodd"/>
      <polygon points="220 132.71 157.17 132.71 164.15 157.11 224.38 158.31 220 132.71" style="fill: #c48a57;fill-rule: evenodd"/>
      <polygon points="157.17 132.71 168.13 85.71 229.45 83.71 220 132.71 157.17 132.71" style="fill: #e5af82;fill-rule: evenodd"/>
      <g>
        <path d="M147.29,139.36c.88-2.09,2.45-6.91,1.11-8.82a3,3,0,0,0-4.35-.64,3.59,3.59,0,0,0-.78,4.56c-.22-.1-.65,0-.77-.22-1.09-1.5-.18-3.91.71-4.69a3.94,3.94,0,0,1,5.31-.23c3,2.61.35,7-.31,9.83l.72-.16c1.4-.3,2.8-.51,4.06.65l1.06,1.05c3.79,3.19,8.71,4.1,13.56,4.19,1.78,0,1.47.17,1.78,2.13-5.16.74-16.42-2.8-20.54-2-1.95.39-7.13,3.31-8.62,4.38-2.25,1.61-6.91,4.25-9.54,4.77l-.05-2.14c3.72-1.3,9.54-4.77,11.65-8.27C144.11,140.75,142.29,140.52,147.29,139.36Z" style="fill: #897870;fill-rule: evenodd"/>
        <g>
          <path d="M143.06,141.87s.84,15.41,3.89,20.75a20.65,20.65,0,0,0,7.21,7.58s3.49-7.77,2.76-12.34-3.36-18-3.36-18,13.53,17.5,15.14,19.61,5,8.23,2.12,14.57,1.09,9.69,3.41,12.39,43.11,48.28,43.11,48.28,2.88,5.09-1.47,5.91-15.12-1.67-19.18.7-13.21,10.2-19.28,8.76-13.55-7.92-17.94-3.88-11.5,11.65-20.54,8-8.74-3.27-13.51-.85-6.59-1.66-6.59-1.66l23.63-61.95s2.45-4.08-2.16-8.53-6.6-7.29-5.23-13.74S143.06,141.87,143.06,141.87Z" style="fill: #fcee21;fill-rule: evenodd"/>
          <path d="M172.71,184.78a11.51,11.51,0,0,1-2.67-4.54h0c-15.54,10.87-27.17,5.09-27.17,5.09a6.09,6.09,0,0,1-.41,4.49l-.26.68A37.39,37.39,0,0,0,172.71,184.78Z" style="fill-rule: evenodd"/>
        </g>
      </g>
      <line x1="169.63" y1="64.67" x2="102.04" y2="254.5" style="fill: none;stroke: #666;stroke-linecap: round;stroke-miterlimit: 10;stroke-width: 5px"/>
      <polygon points="190.77 84.98 200 84.98 190.77 132.71 192 139.36 186 139.36 184 132.71 190.77 84.98" style="fill: #dfd6cd;fill-rule: evenodd"/>
    </g>
  </g>
</svg>
