<svg xmlns="http://www.w3.org/2000/svg" xmlns:xlink="http://www.w3.org/1999/xlink" width="600" height="400" viewBox="0 0 600 400">
  <defs>
    <linearGradient id="a" x1="173.71" y1="240.41" x2="157.22" y2="236.05" gradientUnits="userSpaceOnUse">
      <stop offset="0" stop-color="#fff"/>
      <stop offset="1"/>
    </linearGradient>
    <linearGradient id="b" x1="300.54" y1="148.67" x2="300.54" y2="142" xlink:href="#a"/>
    <linearGradient id="c" x1="89.84" y1="-254.48" x2="93.95" y2="-238.34" gradientTransform="translate(246.81 337.52) rotate(31.6)" gradientUnits="userSpaceOnUse">
      <stop offset="0.01" stop-color="#fff78f"/>
      <stop offset="1" stop-color="#b76e11"/>
    </linearGradient>
    <radialGradient id="d" cx="91.5" cy="-243.29" r="3.31" gradientTransform="translate(246.81 337.52) rotate(31.6)" xlink:href="#c"/>
    <radialGradient id="e" cx="210.08" cy="132.08" r="2.87" gradientUnits="userSpaceOnUse">
      <stop offset="0" stop-color="#999"/>
      <stop offset="1"/>
    </radialGradient>
  </defs>
  <title>room</title>
  <g style="isolation: isolate">
    <g>
      <g>
        <polygon points="181.43 287.13 155.85 287.13 147.61 324.53 174.64 324.53 181.43 287.13" style="fill: red;stroke: #fff;stroke-miterlimit: 10;stroke-width: 0.9763386260272355px"/>
        <polygon points="214.43 287.13 188.85 287.13 182.49 324.53 209.52 324.53 214.43 287.13" style="fill: red;stroke: #fff;stroke-miterlimit: 10;stroke-width: 0.9763386260272355px"/>
        <polygon points="247.43 287.13 221.85 287.13 217.37 324.53 244.41 324.53 247.43 287.13" style="fill: red;stroke: #fff;stroke-miterlimit: 10;stroke-width: 0.9763386260272355px"/>
        <polygon points="280.44 287.13 254.86 287.13 252.25 324.53 279.29 324.53 280.44 287.13" style="fill: red;stroke: #fff;stroke-miterlimit: 10;stroke-width: 0.9763386260272355px"/>
        <polygon points="313.44 287.13 287.86 287.13 287.13 324.53 314.17 324.53 313.44 287.13" style="fill: red;stroke: #fff;stroke-miterlimit: 10;stroke-width: 0.9763386260272355px"/>
        <polygon points="346.44 287.13 320.87 287.13 322.02 324.53 349.05 324.53 346.44 287.13" style="fill: red;stroke: #fff;stroke-miterlimit: 10;stroke-width: 0.9763386260272355px"/>
        <polygon points="379.45 287.13 353.87 287.13 356.9 324.53 383.93 324.53 379.45 287.13" style="fill: red;stroke: #fff;stroke-miterlimit: 10;stroke-width: 0.9763386260272355px"/>
        <polygon points="412.45 287.13 386.87 287.13 391.78 324.53 418.81 324.53 412.45 287.13" style="fill: red;stroke: #fff;stroke-miterlimit: 10;stroke-width: 0.9763386260272355px"/>
        <polygon points="445.46 287.13 419.88 287.13 426.66 324.53 453.69 324.53 445.46 287.13" style="fill: red;stroke: #fff;stroke-miterlimit: 10;stroke-width: 0.9763386260272355px"/>
        <polygon points="188.92 245.79 164.96 245.79 157.75 278.52 182.99 278.52 188.92 245.79" style="fill: red;stroke: #fff;stroke-miterlimit: 10;stroke-width: 0.9763386260272355px"/>
        <polygon points="219.85 245.79 195.88 245.79 190.32 278.52 215.56 278.52 219.85 245.79" style="fill: red;stroke: #fff;stroke-miterlimit: 10;stroke-width: 0.9763386260272355px"/>
        <polygon points="250.78 245.79 226.81 245.79 222.89 278.52 248.13 278.52 250.78 245.79" style="fill: red;stroke: #fff;stroke-miterlimit: 10;stroke-width: 0.9763386260272355px"/>
        <polygon points="281.71 245.79 257.74 245.79 255.46 278.52 280.7 278.52 281.71 245.79" style="fill: red;stroke: #fff;stroke-miterlimit: 10;stroke-width: 0.9763386260272355px"/>
        <polygon points="312.64 245.79 288.67 245.79 288.03 278.52 313.27 278.52 312.64 245.79" style="fill: red;stroke: #fff;stroke-miterlimit: 10;stroke-width: 0.9763386260272355px"/>
        <polygon points="343.56 245.79 319.6 245.79 320.6 278.52 345.85 278.52 343.56 245.79" style="fill: red;stroke: #fff;stroke-miterlimit: 10;stroke-width: 0.9763386260272355px"/>
        <polygon points="374.49 245.79 350.52 245.79 353.17 278.52 378.42 278.52 374.49 245.79" style="fill: red;stroke: #fff;stroke-miterlimit: 10;stroke-width: 0.9763386260272355px"/>
        <polygon points="405.42 245.79 381.45 245.79 385.74 278.52 410.99 278.52 405.42 245.79" style="fill: red;stroke: #fff;stroke-miterlimit: 10;stroke-width: 0.9763386260272355px"/>
        <polygon points="436.35 245.79 412.38 245.79 418.31 278.52 443.56 278.52 436.35 245.79" style="fill: red;stroke: #fff;stroke-miterlimit: 10;stroke-width: 0.9763386260272355px"/>
        <polygon points="195.53 209.35 172.98 209.35 166.62 238.22 190.3 238.22 195.53 209.35" style="fill: red;stroke: #fff;stroke-miterlimit: 10;stroke-width: 0.9763386260272355px"/>
        <polygon points="224.63 209.35 202.08 209.35 197.17 238.22 220.85 238.22 224.63 209.35" style="fill: red;stroke: #fff;stroke-miterlimit: 10;stroke-width: 0.9763386260272355px"/>
        <polygon points="253.73 209.35 231.18 209.35 227.72 238.22 251.39 238.22 253.73 209.35" style="fill: red;stroke: #fff;stroke-miterlimit: 10;stroke-width: 0.9763386260272355px"/>
        <polygon points="282.83 209.35 260.28 209.35 258.27 238.22 281.94 238.22 282.83 209.35" style="fill: red;stroke: #fff;stroke-miterlimit: 10;stroke-width: 0.9763386260272355px"/>
        <polygon points="311.93 209.35 289.38 209.35 288.81 238.22 312.49 238.22 311.93 209.35" style="fill: red;stroke: #fff;stroke-miterlimit: 10;stroke-width: 0.9763386260272355px"/>
        <polygon points="341.03 209.35 318.47 209.35 319.36 238.22 343.04 238.22 341.03 209.35" style="fill: red;stroke: #fff;stroke-miterlimit: 10;stroke-width: 0.9763386260272355px"/>
        <polygon points="370.12 209.35 347.57 209.35 349.91 238.22 373.58 238.22 370.12 209.35" style="fill: red;stroke: #fff;stroke-miterlimit: 10;stroke-width: 0.9763386260272355px"/>
        <polygon points="399.22 209.35 376.67 209.35 380.46 238.22 404.13 238.22 399.22 209.35" style="fill: red;stroke: #fff;stroke-miterlimit: 10;stroke-width: 0.9763386260272355px"/>
        <polygon points="428.32 209.35 405.77 209.35 411.01 238.22 434.68 238.22 428.32 209.35" style="fill: red;stroke: #fff;stroke-miterlimit: 10;stroke-width: 0.9763386260272355px"/>
        <polygon points="201.41 176.97 180.12 176.97 174.46 202.64 196.75 202.64 201.41 176.97" style="fill: red;stroke: #fff;stroke-miterlimit: 10;stroke-width: 0.9763386260272355px"/>
        <polygon points="228.88 176.97 207.59 176.97 203.22 202.64 225.51 202.64 228.88 176.97" style="fill: red;stroke: #fff;stroke-miterlimit: 10;stroke-width: 0.9763386260272355px"/>
        <polygon points="256.35 176.97 235.06 176.97 231.98 202.64 254.28 202.64 256.35 176.97" style="fill: red;stroke: #fff;stroke-miterlimit: 10;stroke-width: 0.9763386260272355px"/>
        <polygon points="283.82 176.97 262.53 176.97 260.75 202.64 283.04 202.64 283.82 176.97" style="fill: red;stroke: #fff;stroke-miterlimit: 10;stroke-width: 0.9763386260272355px"/>
        <polygon points="311.3 176.97 290.01 176.97 289.51 202.64 311.8 202.64 311.3 176.97" style="fill: red;stroke: #fff;stroke-miterlimit: 10;stroke-width: 0.9763386260272355px"/>
        <polygon points="338.77 176.97 317.48 176.97 318.27 202.64 340.56 202.64 338.77 176.97" style="fill: red;stroke: #fff;stroke-miterlimit: 10;stroke-width: 0.9763386260272355px"/>
        <polygon points="366.24 176.97 344.95 176.97 347.03 202.64 369.32 202.64 366.24 176.97" style="fill: red;stroke: #fff;stroke-miterlimit: 10;stroke-width: 0.9763386260272355px"/>
        <polygon points="393.71 176.97 372.42 176.97 375.79 202.64 398.08 202.64 393.71 176.97" style="fill: red;stroke: #fff;stroke-miterlimit: 10;stroke-width: 0.9763386260272355px"/>
        <polygon points="421.19 176.97 399.9 176.97 404.55 202.64 426.84 202.64 421.19 176.97" style="fill: red;stroke: #fff;stroke-miterlimit: 10;stroke-width: 0.9763386260272355px"/>
        <polygon points="206.66 148.02 186.49 148.02 181.43 170.99 202.49 170.99 206.66 148.02" style="fill: red;stroke: #fff;stroke-miterlimit: 10;stroke-width: 0.9763386260272355px"/>
        <polygon points="232.68 148.02 212.51 148.02 208.61 170.99 229.66 170.99 232.68 148.02" style="fill: red;stroke: #fff;stroke-miterlimit: 10;stroke-width: 0.9763386260272355px"/>
        <polygon points="258.7 148.02 238.53 148.02 235.78 170.99 256.84 170.99 258.7 148.02" style="fill: red;stroke: #fff;stroke-miterlimit: 10;stroke-width: 0.9763386260272355px"/>
        <polygon points="284.71 148.02 264.55 148.02 262.95 170.99 284.01 170.99 284.71 148.02" style="fill: red;stroke: #fff;stroke-miterlimit: 10;stroke-width: 0.9763386260272355px"/>
        <polygon points="310.73 148.02 290.57 148.02 290.12 170.99 311.18 170.99 310.73 148.02" style="fill: red;stroke: #fff;stroke-miterlimit: 10;stroke-width: 0.9763386260272355px"/>
        <polygon points="336.75 148.02 316.59 148.02 317.29 170.99 338.35 170.99 336.75 148.02" style="fill: red;stroke: #fff;stroke-miterlimit: 10;stroke-width: 0.9763386260272355px"/>
        <polygon points="362.77 148.02 342.61 148.02 344.47 170.99 365.52 170.99 362.77 148.02" style="fill: red;stroke: #fff;stroke-miterlimit: 10;stroke-width: 0.9763386260272355px"/>
        <polygon points="388.79 148.02 368.63 148.02 371.64 170.99 392.7 170.99 388.79 148.02" style="fill: red;stroke: #fff;stroke-miterlimit: 10;stroke-width: 0.9763386260272355px"/>
        <polygon points="414.81 148.02 394.64 148.02 398.81 170.99 419.87 170.99 414.81 148.02" style="fill: red;stroke: #fff;stroke-miterlimit: 10;stroke-width: 0.9763386260272355px"/>
      </g>
      <polygon points="124.5 334.7 179.5 140.5 422.15 140.71 475.91 334.7 124.5 334.7" style="fill: #998675"/>
      <line x1="166.88" y1="334.5" x2="208.64" y2="140.71" style="fill: none;stroke: #000;stroke-miterlimit: 10;mix-blend-mode: overlay"/>
      <line x1="208.64" y1="334.7" x2="238.08" y2="139.78" style="fill: none;stroke: #000;stroke-miterlimit: 10;mix-blend-mode: overlay"/>
      <line x1="252.54" y1="333.76" x2="265.8" y2="140.39" style="fill: none;stroke: #000;stroke-miterlimit: 10;mix-blend-mode: overlay"/>
      <line x1="300" y1="334.7" x2="300.61" y2="139.78" style="fill: none;stroke: #000;stroke-miterlimit: 10;mix-blend-mode: overlay"/>
      <line x1="348.46" y1="334.7" x2="334.47" y2="140.71" style="fill: none;stroke: #000;stroke-miterlimit: 10;mix-blend-mode: overlay"/>
      <line x1="391.39" y1="333.76" x2="363.06" y2="140.71" style="fill: none;stroke: #000;stroke-miterlimit: 10;mix-blend-mode: overlay"/>
      <line x1="433.96" y1="333.76" x2="392.36" y2="140.71" style="fill: none;stroke: #000;stroke-miterlimit: 10;mix-blend-mode: overlay"/>
      <g style="opacity: 0.5;mix-blend-mode: screen">
        <line x1="167.88" y1="334.5" x2="209.64" y2="140.71" style="fill: none;stroke: #fff;stroke-miterlimit: 10;mix-blend-mode: overlay"/>
      </g>
      <g style="opacity: 0.5;mix-blend-mode: screen">
        <line x1="209.64" y1="334.7" x2="239.08" y2="139.78" style="fill: none;stroke: #fff;stroke-miterlimit: 10;mix-blend-mode: overlay"/>
      </g>
      <g style="opacity: 0.5;mix-blend-mode: screen">
        <line x1="253.54" y1="333.76" x2="266.8" y2="140.39" style="fill: none;stroke: #fff;stroke-miterlimit: 10;mix-blend-mode: overlay"/>
      </g>
      <g style="opacity: 0.5;mix-blend-mode: screen">
        <line x1="301" y1="334.7" x2="301.61" y2="139.78" style="fill: none;stroke: #fff;stroke-miterlimit: 10;mix-blend-mode: overlay"/>
      </g>
      <g style="opacity: 0.5;mix-blend-mode: screen">
        <line x1="349.46" y1="334.7" x2="335.47" y2="140.71" style="fill: none;stroke: #fff;stroke-miterlimit: 10;mix-blend-mode: overlay"/>
      </g>
      <g style="opacity: 0.5;mix-blend-mode: screen">
        <line x1="392.39" y1="333.76" x2="364.06" y2="140.71" style="fill: none;stroke: #fff;stroke-miterlimit: 10;mix-blend-mode: overlay"/>
      </g>
      <g style="opacity: 0.5;mix-blend-mode: screen">
        <line x1="434.96" y1="333.76" x2="393.36" y2="140.71" style="fill: none;stroke: #fff;stroke-miterlimit: 10;mix-blend-mode: overlay"/>
      </g>
      <polygon points="124.5 334.7 153.18 334.5 202.49 140.71 179.5 140.5 124.5 334.7" style="opacity: 0.3;mix-blend-mode: multiply;fill: url(#a)"/>
      <polygon points="179.5 140.5 421.15 140.71 424.23 150.02 176.85 150.02 179.5 140.5" style="opacity: 0.2;mix-blend-mode: multiply;fill: url(#b)"/>
      <polygon points="450.51 241.13 449.75 242.38 436.81 195.5 439.13 195.5 451.51 239.51 450.51 241.13" style="fill: #998675"/>
      <polygon points="450.51 241.13 449.75 242.38 436.81 195.5 439.13 195.5 451.51 239.51 450.51 241.13" style="fill: #ccc;mix-blend-mode: multiply"/>
    </g>
    <g>
      <polygon points="53.5 254.5 125.5 334.5 179.5 140.5 421.5 140.5 475.5 334.5 547.5 254.5 454.5 54.5 146.5 54.5 53.5 254.5" style="fill: #8cc63f"/>
      <polygon points="454.94 54.66 146.28 54.66 178.97 140.71 422.25 140.71 454.94 54.66" style="opacity: 0.3;mix-blend-mode: multiply"/>
      <polygon points="125.5 334.5 53.5 254.5 145.5 54.5 179.5 140.5 125.5 334.5" style="opacity: 0.5;mix-blend-mode: multiply"/>
      <polygon points="475.5 334.5 547.5 254.5 455.5 54.5 421.5 140.5 475.5 334.5" style="opacity: 0.1;mix-blend-mode: multiply"/>
    </g>
    <g>
      <polygon points="467.5 122.5 486.58 170.61 451.51 239.51 439.13 195.5 437.39 195.5 467.5 122.5" style="fill: #8c6239"/>
      <polygon points="437.39 195.5 439.13 195.5 468.14 132.32 486.58 170.61 469.89 128.52 467.5 122.5 437.39 195.5" style="fill: #999;mix-blend-mode: multiply"/>
      <polygon points="451.26 187.62 448.69 183.04 452.9 173.69 456.5 178.77 451.26 187.62" style="fill: url(#c)"/>
      <path d="M454.88,181.84a2.93,2.93,0,1,1-5-2.94,3.29,3.29,0,0,1,3.91-1.5A3,3,0,0,1,454.88,181.84Z" style="fill: #999;opacity: 0.5;mix-blend-mode: multiply"/>
      <path d="M454.37,180.39a3.09,3.09,0,0,1-4.42,1.19,3,3,0,0,1-.46-3.94,3.28,3.28,0,0,1,3.82-1.53C454.86,176.72,455.43,178.67,454.37,180.39Z" style="fill: url(#d)"/>
    </g>
    <g>
      <polygon points="187.76 313.26 131.41 313.26 119.11 296.75 126.7 280.25 121.79 264.5 129.38 248 124.48 232.25 132.07 215.75 127.17 200 134.76 183.5 129.85 167.75 137.44 151.25 132.54 135.5 140.13 119 135.22 103.25 142.81 86.75 137.91 71 198.65 71 203.22 54.5 217.37 140.71 187.76 313.26" style="fill: #8c6239"/>
      <polygon points="179.84 296.75 187.76 313.26 217.37 140.71 203.22 54.5 198.65 71 200.54 86.75 195.96 103.25 197.85 119 193.28 135.5 195.16 151.25 190.59 167.75 192.48 183.5 187.9 200 189.79 215.75 185.22 232.25 187.11 248 182.53 264.5 184.42 280.25 179.84 296.75" style="fill: #754c24"/>
      <polygon points="198.65 71 137.91 71 145.5 54.5 203.22 54.5 198.65 71" style="fill: #d5b291"/>
      <polygon points="195.96 103.25 135.22 103.25 142.81 86.75 200.54 86.75 195.96 103.25" style="fill: #d5b291"/>
      <polygon points="193.28 135.5 132.54 135.5 140.13 119 197.85 119 193.28 135.5" style="fill: #d5b291"/>
      <polygon points="190.59 167.75 129.85 167.75 137.44 151.25 195.16 151.25 190.59 167.75" style="fill: #d5b291"/>
      <polygon points="187.9 200 127.17 200 134.76 183.5 192.48 183.5 187.9 200" style="fill: #d5b291"/>
      <polygon points="185.22 232.25 124.48 232.25 132.07 215.75 189.79 215.75 185.22 232.25" style="fill: #d5b291"/>
      <polygon points="182.53 264.5 121.79 264.5 129.38 248 187.11 248 182.53 264.5" style="fill: #d5b291"/>
      <polygon points="179.84 296.75 119.11 296.75 126.7 280.25 184.42 280.25 179.84 296.75" style="fill: #d5b291"/>
      <polygon points="198.61 138.5 207.7 197.06 215.75 150.16 208.64 103.25 198.61 138.5" style="fill: #998675"/>
      <g>
        <rect x="333.35" y="70.28" width="61.21" height="61.21" rx="8.25" ry="8.25" style="fill: #b3b3b3;stroke: #b3b3b3;stroke-miterlimit: 10;mix-blend-mode: multiply"/>
        <rect x="246.05" y="70.28" width="61.21" height="61.21" rx="8.25" ry="8.25" style="fill: #b3b3b3;stroke: #b3b3b3;stroke-miterlimit: 10;mix-blend-mode: multiply"/>
        <rect x="245.18" y="68.23" width="61.21" height="61.21" rx="8.25" ry="8.25" style="fill: #ff9f9f;stroke: #b3b3b3;stroke-miterlimit: 10"/>
        <path d="M257,123.66l4.21,5.87h37s7.46,0,8.25-8.25L288.71,79.85,276.37,91.92l2,20.93Z" style="opacity: 0.1"/>
        <g>
          <polygon points="280.79 106.99 280.79 104.07 276.28 103.58 271.77 104.07 271.77 106.99 276.28 108.02 280.79 106.99" style="fill: #edd1a9"/>
          <path d="M280.79,107l-4.51,1-4.51-1-.93,1s.15.15.41.37a9.93,9.93,0,0,0,3.56,2,4,4,0,0,1,.77-2l.69-.17.69.17a4,4,0,0,1,.77,2,9.93,9.93,0,0,0,3.56-2c.26-.22.41-.37.41-.37Z" style="fill: #fff"/>
          <path d="M270.85,108a39.54,39.54,0,0,1-6.34,1.88s-3.81.53-5.39,2c0,0-2.16,1.33-2.16,11.64h17.42V110A10.28,10.28,0,0,1,270.85,108Z" style="fill: #074742"/>
          <path d="M293.45,111.93c-1.57-1.49-5.39-2-5.39-2a39.54,39.54,0,0,1-6.34-1.88,8.65,8.65,0,0,1-3.44,2.05v13.5h17.33C296.12,116.33,293.45,111.93,293.45,111.93Z" style="fill: #074742"/>
          <path d="M278,110.14a4,4,0,0,0-.9-2l-.86-.21-.86.21a2.5,2.5,0,0,0-.57,2.1l-.48-.15v13.54h3.91v-13.5Z" style="fill: #b51c1c"/>
          <path d="M266.41,88.76s-.9,7.79,1.23,12.93c0,0,5.66,4.9,8.65,4.86s9.85-5.81,9.89-6.69c0,0,1.58-9,.71-11.1,0,0-.08-8.32-8.87-8.95S266.11,86.16,266.41,88.76Z" style="fill: #edd1a9"/>
          <path d="M280.13,97.09c-.46.5-.13,1.24.49,1-.55-.1-.13-.68.2-.55s.24.88-.65.89-1.16-.72-1.43-1.18a1.51,1.51,0,0,0-2.09-.59,2,2,0,0,0-.35.31,2,2,0,0,0-.35-.31,1.51,1.51,0,0,0-2.09.59c-.26.46-.54,1.19-1.43,1.18s-1-.76-.65-.89.74.45.2.55c.62.23,1-.51.49-1s-2.34.06-1.24,1.76a3.11,3.11,0,0,0,4.52.85,2.76,2.76,0,0,0,.55-.46,2.76,2.76,0,0,0,.55.46,3.11,3.11,0,0,0,4.52-.85C282.46,97.15,280.59,96.59,280.13,97.09Z" style="fill: #48321b"/>
          <path d="M287.75,78.5a12,12,0,0,0-7.32-2.78c-3-2.34-11.33-.74-14.84,2.78C263,81.11,263.78,89,263.78,91.28s1.21,2.52,2.92,5.15c.82-.82.33-4.16.33-7.49s1.5-3.8,3.84-5.22,3.69,0,5.81,0,3.47-1.42,5.81,0,3.84,1.9,3.84,5.22-.49,6.67.33,7.49c1.72-2.63,2.92-2.89,2.92-5.15S290.49,81,287.75,78.5Z" style="fill: #48321b"/>
        </g>
      </g>
      <circle cx="273.13" cy="91.84" r="2.46" style="fill: #fff"/>
      <circle cx="279.26" cy="91.84" r="2.46" style="fill: #fff"/>
      <circle cx="273.5" cy="93.16" r="0.95"/>
      <circle cx="278.56" cy="93.16" r="0.95"/>
      <g>
        <rect x="332.47" y="68.23" width="61.21" height="61.21" rx="8.25" ry="8.25" style="fill: #efc660;stroke: #b3b3b3;stroke-miterlimit: 10"/>
        <path d="M343.78,123.28l4.67,6.16h37s7.46,0,8.25-8.25L375.91,78.82l-12.29,13,2,20.93Z" style="opacity: 0.1"/>
        <g>
          <path d="M382.38,123.28a33,33,0,0,0-2.18-11.19c-1.57-2-5.39-2.72-5.39-2.72a32.57,32.57,0,0,1-6.34-2.53,8.48,8.48,0,0,1-3.68,2.84,6.46,6.46,0,0,0-.9-2.75l-.86-.29-.86.29a4.27,4.27,0,0,0-.57,2.81,9.84,9.84,0,0,1-4-2.91,32.57,32.57,0,0,1-6.34,2.53s-3.81.72-5.39,2.72c0,0-1.68,1.39-2.08,11.19Z" style="fill: #725211"/>
          <polygon points="367.54 105.45 367.54 102.87 363.03 100.88 358.52 102.87 358.52 105.45 363.03 106.84 367.54 105.45" style="fill: #edd1a9"/>
          <path d="M367.54,105.45,363,106.84l-4.51-1.39-.93,1.39s.15.2.41.5a9.79,9.79,0,0,0,3.56,2.74,6.62,6.62,0,0,1,.77-2.62l.69-.23.69.23a6.63,6.63,0,0,1,.77,2.62,9.79,9.79,0,0,0,3.56-2.74c.26-.3.41-.5.41-.5Z" style="fill: #fff"/>
          <circle cx="363.06" cy="112.77" r="1.29" style="fill: #fff"/>
          <circle cx="363.06" cy="118.82" r="1.29" style="fill: #fff"/>
          <path d="M353.45,87.43s-.9,7.79,1.23,12.93c0,0,5.66,4.9,8.65,4.86s9.85-5.81,9.89-6.69c0,0,1.57-9,.71-11.1,0,0-.08-8.32-8.87-8.95S353.15,84.84,353.45,87.43Z" style="fill: #edd1a9"/>
          <path d="M367.9,74.17c-6-4-14.29.24-16.17,4s-2.71,14,2.15,17.47c-.56-3.45.3-9,1.26-10.43,1.46-2.15,5.19.09,7.32-.45-1.87.94-.86,2.53,0,3.39.45-2.23,5.8-3,6.51-5.89,2.56,1.4,4.78,2.21,4.78,5.15,0,3.34-.48,8.23-.48,8.23,3-1.63,3.71-3.48,3.89-9S375.94,74,367.9,74.17Z" style="fill: #0a2b47"/>
          <path d="M364.57,95.51a2.29,2.29,0,0,1-2.49,0c-1.84.14-2.44.81-2.3,3.07h7.09C367,96.32,366.41,95.65,364.57,95.51Z" style="fill: #0a2b47"/>
        </g>
      </g>
      <circle cx="359.96" cy="91.84" r="2.46" style="fill: #fff"/>
      <circle cx="366.09" cy="91.84" r="2.46" style="fill: #fff"/>
      <circle cx="359.34" cy="92.16" r="0.95"/>
      <circle cx="366.89" cy="92.79" r="0.95"/>
      <polygon points="53.5 254.5 547.5 254.5 475.5 334.5 125.5 334.5 53.5 254.5" style="fill: #8cc63f;opacity: 0.3"/>
      <polygon points="215.75 150.16 214.75 150.16 207.03 192.75 207.7 197.06 215.75 150.16" style="fill: #736357"/>
      <polygon points="215.75 150.16 208.64 103.25 207.76 106.35 214.75 150.16 215.75 150.16" style="fill: #42210b"/>
      <circle cx="210.49" cy="133.37" r="1.88" style="fill: url(#e)"/>
    </g>
  </g>
</svg>
