<svg xmlns="http://www.w3.org/2000/svg" xmlns:xlink="http://www.w3.org/1999/xlink" width="600" height="400" viewBox="0 0 600 400">
  <defs>
    <linearGradient id="a" x1="173.71" y1="240.41" x2="157.22" y2="236.05" gradientUnits="userSpaceOnUse">
      <stop offset="0" stop-color="#fff"/>
      <stop offset="1"/>
    </linearGradient>
    <linearGradient id="b" x1="300.54" y1="148.67" x2="300.54" y2="142" xlink:href="#a"/>
    <linearGradient id="c" x1="184.37" y1="177.64" x2="114.86" y2="142.32" xlink:href="#a"/>
    <linearGradient id="d" x1="150.27" y1="212.26" x2="77.38" y2="175.22" gradientUnits="userSpaceOnUse">
      <stop offset="0.01" stop-color="#fff"/>
      <stop offset="1"/>
    </linearGradient>
    <linearGradient id="e" x1="933.82" y1="208.41" x2="937.93" y2="224.56" gradientTransform="translate(-229.53 -498.94) rotate(31.6)" gradientUnits="userSpaceOnUse">
      <stop offset="0.01" stop-color="#fff78f"/>
      <stop offset="1" stop-color="#b76e11"/>
    </linearGradient>
    <radialGradient id="f" cx="935.48" cy="219.61" r="3.31" gradientTransform="translate(-229.53 -498.94) rotate(31.6)" xlink:href="#e"/>
    <linearGradient id="g" x1="225.04" y1="138.42" x2="183.2" y2="138.42" xlink:href="#a"/>
    <linearGradient id="h" x1="225.04" y1="158.26" x2="183.2" y2="158.26" xlink:href="#a"/>
    <linearGradient id="i" x1="260.29" y1="138.42" x2="218.45" y2="138.42" xlink:href="#a"/>
    <linearGradient id="j" x1="260.29" y1="158.26" x2="218.45" y2="158.26" xlink:href="#a"/>
    <linearGradient id="k" x1="243.88" y1="160.26" x2="202.04" y2="160.26" xlink:href="#a"/>
    <linearGradient id="l" x1="243.88" y1="180.1" x2="202.04" y2="180.1" xlink:href="#a"/>
    <linearGradient id="m" x1="432.42" y1="135.42" x2="390.58" y2="135.42" xlink:href="#a"/>
    <linearGradient id="n" x1="432.42" y1="155.26" x2="390.58" y2="155.26" xlink:href="#a"/>
    <linearGradient id="o" data-name="GradientFill 1" x1="283.09" y1="172.88" x2="303.16" y2="222.56" gradientUnits="userSpaceOnUse">
      <stop offset="0" stop-color="#dedcd2"/>
      <stop offset="1" stop-color="#fff"/>
    </linearGradient>
    <linearGradient id="p" data-name="GradientFill 2" x1="306.92" y1="194.96" x2="310.39" y2="198.31" gradientUnits="userSpaceOnUse">
      <stop offset="0" stop-color="#d8b77d"/>
      <stop offset="1" stop-color="#eedfb8"/>
    </linearGradient>
    <linearGradient id="q" x1="280.25" y1="198.24" x2="281.59" y2="195.49" xlink:href="#p"/>
    <linearGradient id="r" data-name="GradientFill 3" x1="278.12" y1="185.08" x2="279.39" y2="167.03" gradientUnits="userSpaceOnUse">
      <stop offset="0" stop-color="#eedfb8"/>
      <stop offset="1" stop-color="#fff"/>
    </linearGradient>
    <linearGradient id="s" data-name="GradientFill 4" x1="282.18" y1="195.68" x2="280.59" y2="199.09" gradientUnits="userSpaceOnUse">
      <stop offset="0" stop-color="#d8b77d"/>
      <stop offset="1" stop-color="#a78356"/>
    </linearGradient>
    <linearGradient id="t" data-name="GradientFill 5" x1="281.47" y1="194.09" x2="279.94" y2="196.73" gradientUnits="userSpaceOnUse">
      <stop offset="0" stop-color="#a78356"/>
      <stop offset="1" stop-color="#7f5834"/>
    </linearGradient>
  </defs>
  <title>room</title>
  <g style="isolation: isolate">
    <g>
      <g>
        <polygon points="181.43 287.13 155.85 287.13 147.61 324.53 174.64 324.53 181.43 287.13" style="fill: red;stroke: #fff;stroke-miterlimit: 10;stroke-width: 0.9763386260272355px"/>
        <polygon points="214.43 287.13 188.85 287.13 182.49 324.53 209.52 324.53 214.43 287.13" style="fill: red;stroke: #fff;stroke-miterlimit: 10;stroke-width: 0.9763386260272355px"/>
        <polygon points="247.43 287.13 221.85 287.13 217.37 324.53 244.41 324.53 247.43 287.13" style="fill: red;stroke: #fff;stroke-miterlimit: 10;stroke-width: 0.9763386260272355px"/>
        <polygon points="280.44 287.13 254.86 287.13 252.25 324.53 279.29 324.53 280.44 287.13" style="fill: red;stroke: #fff;stroke-miterlimit: 10;stroke-width: 0.9763386260272355px"/>
        <polygon points="313.44 287.13 287.86 287.13 287.13 324.53 314.17 324.53 313.44 287.13" style="fill: red;stroke: #fff;stroke-miterlimit: 10;stroke-width: 0.9763386260272355px"/>
        <polygon points="346.44 287.13 320.87 287.13 322.02 324.53 349.05 324.53 346.44 287.13" style="fill: red;stroke: #fff;stroke-miterlimit: 10;stroke-width: 0.9763386260272355px"/>
        <polygon points="379.45 287.13 353.87 287.13 356.9 324.53 383.93 324.53 379.45 287.13" style="fill: red;stroke: #fff;stroke-miterlimit: 10;stroke-width: 0.9763386260272355px"/>
        <polygon points="412.45 287.13 386.87 287.13 391.78 324.53 418.81 324.53 412.45 287.13" style="fill: red;stroke: #fff;stroke-miterlimit: 10;stroke-width: 0.9763386260272355px"/>
        <polygon points="445.46 287.13 419.88 287.13 426.66 324.53 453.69 324.53 445.46 287.13" style="fill: red;stroke: #fff;stroke-miterlimit: 10;stroke-width: 0.9763386260272355px"/>
        <polygon points="188.92 245.79 164.96 245.79 157.75 278.52 182.99 278.52 188.92 245.79" style="fill: red;stroke: #fff;stroke-miterlimit: 10;stroke-width: 0.9763386260272355px"/>
        <polygon points="219.85 245.79 195.88 245.79 190.32 278.52 215.56 278.52 219.85 245.79" style="fill: red;stroke: #fff;stroke-miterlimit: 10;stroke-width: 0.9763386260272355px"/>
        <polygon points="250.78 245.79 226.81 245.79 222.89 278.52 248.13 278.52 250.78 245.79" style="fill: red;stroke: #fff;stroke-miterlimit: 10;stroke-width: 0.9763386260272355px"/>
        <polygon points="281.71 245.79 257.74 245.79 255.46 278.52 280.7 278.52 281.71 245.79" style="fill: red;stroke: #fff;stroke-miterlimit: 10;stroke-width: 0.9763386260272355px"/>
        <polygon points="312.64 245.79 288.67 245.79 288.03 278.52 313.27 278.52 312.64 245.79" style="fill: red;stroke: #fff;stroke-miterlimit: 10;stroke-width: 0.9763386260272355px"/>
        <polygon points="343.56 245.79 319.6 245.79 320.6 278.52 345.85 278.52 343.56 245.79" style="fill: red;stroke: #fff;stroke-miterlimit: 10;stroke-width: 0.9763386260272355px"/>
        <polygon points="374.49 245.79 350.52 245.79 353.17 278.52 378.42 278.52 374.49 245.79" style="fill: red;stroke: #fff;stroke-miterlimit: 10;stroke-width: 0.9763386260272355px"/>
        <polygon points="405.42 245.79 381.45 245.79 385.74 278.52 410.99 278.52 405.42 245.79" style="fill: red;stroke: #fff;stroke-miterlimit: 10;stroke-width: 0.9763386260272355px"/>
        <polygon points="436.35 245.79 412.38 245.79 418.31 278.52 443.56 278.52 436.35 245.79" style="fill: red;stroke: #fff;stroke-miterlimit: 10;stroke-width: 0.9763386260272355px"/>
        <polygon points="195.53 209.35 172.98 209.35 166.62 238.22 190.3 238.22 195.53 209.35" style="fill: red;stroke: #fff;stroke-miterlimit: 10;stroke-width: 0.9763386260272355px"/>
        <polygon points="224.63 209.35 202.08 209.35 197.17 238.22 220.85 238.22 224.63 209.35" style="fill: red;stroke: #fff;stroke-miterlimit: 10;stroke-width: 0.9763386260272355px"/>
        <polygon points="253.73 209.35 231.18 209.35 227.72 238.22 251.39 238.22 253.73 209.35" style="fill: red;stroke: #fff;stroke-miterlimit: 10;stroke-width: 0.9763386260272355px"/>
        <polygon points="282.83 209.35 260.28 209.35 258.27 238.22 281.94 238.22 282.83 209.35" style="fill: red;stroke: #fff;stroke-miterlimit: 10;stroke-width: 0.9763386260272355px"/>
        <polygon points="311.93 209.35 289.38 209.35 288.81 238.22 312.49 238.22 311.93 209.35" style="fill: red;stroke: #fff;stroke-miterlimit: 10;stroke-width: 0.9763386260272355px"/>
        <polygon points="341.03 209.35 318.47 209.35 319.36 238.22 343.04 238.22 341.03 209.35" style="fill: red;stroke: #fff;stroke-miterlimit: 10;stroke-width: 0.9763386260272355px"/>
        <polygon points="370.12 209.35 347.57 209.35 349.91 238.22 373.58 238.22 370.12 209.35" style="fill: red;stroke: #fff;stroke-miterlimit: 10;stroke-width: 0.9763386260272355px"/>
        <polygon points="399.22 209.35 376.67 209.35 380.46 238.22 404.13 238.22 399.22 209.35" style="fill: red;stroke: #fff;stroke-miterlimit: 10;stroke-width: 0.9763386260272355px"/>
        <polygon points="428.32 209.35 405.77 209.35 411.01 238.22 434.68 238.22 428.32 209.35" style="fill: red;stroke: #fff;stroke-miterlimit: 10;stroke-width: 0.9763386260272355px"/>
        <polygon points="201.41 176.97 180.12 176.97 174.46 202.64 196.75 202.64 201.41 176.97" style="fill: red;stroke: #fff;stroke-miterlimit: 10;stroke-width: 0.9763386260272355px"/>
        <polygon points="228.88 176.97 207.59 176.97 203.22 202.64 225.51 202.64 228.88 176.97" style="fill: red;stroke: #fff;stroke-miterlimit: 10;stroke-width: 0.9763386260272355px"/>
        <polygon points="256.35 176.97 235.06 176.97 231.98 202.64 254.28 202.64 256.35 176.97" style="fill: red;stroke: #fff;stroke-miterlimit: 10;stroke-width: 0.9763386260272355px"/>
        <polygon points="283.82 176.97 262.53 176.97 260.75 202.64 283.04 202.64 283.82 176.97" style="fill: red;stroke: #fff;stroke-miterlimit: 10;stroke-width: 0.9763386260272355px"/>
        <polygon points="311.3 176.97 290.01 176.97 289.51 202.64 311.8 202.64 311.3 176.97" style="fill: red;stroke: #fff;stroke-miterlimit: 10;stroke-width: 0.9763386260272355px"/>
        <polygon points="338.77 176.97 317.48 176.97 318.27 202.64 340.56 202.64 338.77 176.97" style="fill: red;stroke: #fff;stroke-miterlimit: 10;stroke-width: 0.9763386260272355px"/>
        <polygon points="366.24 176.97 344.95 176.97 347.03 202.64 369.32 202.64 366.24 176.97" style="fill: red;stroke: #fff;stroke-miterlimit: 10;stroke-width: 0.9763386260272355px"/>
        <polygon points="393.71 176.97 372.42 176.97 375.79 202.64 398.08 202.64 393.71 176.97" style="fill: red;stroke: #fff;stroke-miterlimit: 10;stroke-width: 0.9763386260272355px"/>
        <polygon points="421.19 176.97 399.9 176.97 404.55 202.64 426.84 202.64 421.19 176.97" style="fill: red;stroke: #fff;stroke-miterlimit: 10;stroke-width: 0.9763386260272355px"/>
        <polygon points="206.66 148.02 186.49 148.02 181.43 170.99 202.49 170.99 206.66 148.02" style="fill: red;stroke: #fff;stroke-miterlimit: 10;stroke-width: 0.9763386260272355px"/>
        <polygon points="232.68 148.02 212.51 148.02 208.61 170.99 229.66 170.99 232.68 148.02" style="fill: red;stroke: #fff;stroke-miterlimit: 10;stroke-width: 0.9763386260272355px"/>
        <polygon points="258.7 148.02 238.53 148.02 235.78 170.99 256.84 170.99 258.7 148.02" style="fill: red;stroke: #fff;stroke-miterlimit: 10;stroke-width: 0.9763386260272355px"/>
        <polygon points="284.71 148.02 264.55 148.02 262.95 170.99 284.01 170.99 284.71 148.02" style="fill: red;stroke: #fff;stroke-miterlimit: 10;stroke-width: 0.9763386260272355px"/>
        <polygon points="310.73 148.02 290.57 148.02 290.12 170.99 311.18 170.99 310.73 148.02" style="fill: red;stroke: #fff;stroke-miterlimit: 10;stroke-width: 0.9763386260272355px"/>
        <polygon points="336.75 148.02 316.59 148.02 317.29 170.99 338.35 170.99 336.75 148.02" style="fill: red;stroke: #fff;stroke-miterlimit: 10;stroke-width: 0.9763386260272355px"/>
        <polygon points="362.77 148.02 342.61 148.02 344.47 170.99 365.52 170.99 362.77 148.02" style="fill: red;stroke: #fff;stroke-miterlimit: 10;stroke-width: 0.9763386260272355px"/>
        <polygon points="388.79 148.02 368.63 148.02 371.64 170.99 392.7 170.99 388.79 148.02" style="fill: red;stroke: #fff;stroke-miterlimit: 10;stroke-width: 0.9763386260272355px"/>
        <polygon points="414.81 148.02 394.64 148.02 398.81 170.99 419.87 170.99 414.81 148.02" style="fill: red;stroke: #fff;stroke-miterlimit: 10;stroke-width: 0.9763386260272355px"/>
      </g>
      <polygon points="124.5 334.7 179.5 140.5 421.15 140.71 475.91 334.7 124.5 334.7" style="fill: #998675"/>
      <line x1="166.88" y1="334.5" x2="208.64" y2="140.71" style="fill: none;stroke: #000;stroke-miterlimit: 10;mix-blend-mode: overlay"/>
      <line x1="208.64" y1="334.7" x2="238.08" y2="139.78" style="fill: none;stroke: #000;stroke-miterlimit: 10;mix-blend-mode: overlay"/>
      <line x1="252.54" y1="333.76" x2="265.8" y2="140.39" style="fill: none;stroke: #000;stroke-miterlimit: 10;mix-blend-mode: overlay"/>
      <line x1="300" y1="334.7" x2="300.61" y2="139.78" style="fill: none;stroke: #000;stroke-miterlimit: 10;mix-blend-mode: overlay"/>
      <line x1="348.46" y1="334.7" x2="334.47" y2="140.71" style="fill: none;stroke: #000;stroke-miterlimit: 10;mix-blend-mode: overlay"/>
      <line x1="391.39" y1="333.76" x2="363.06" y2="140.71" style="fill: none;stroke: #000;stroke-miterlimit: 10;mix-blend-mode: overlay"/>
      <line x1="433.96" y1="333.76" x2="392.36" y2="140.71" style="fill: none;stroke: #000;stroke-miterlimit: 10;mix-blend-mode: overlay"/>
      <g style="opacity: 0.5;mix-blend-mode: screen">
        <line x1="167.88" y1="334.5" x2="209.64" y2="140.71" style="fill: none;stroke: #fff;stroke-miterlimit: 10;mix-blend-mode: overlay"/>
      </g>
      <g style="opacity: 0.5;mix-blend-mode: screen">
        <line x1="209.64" y1="334.7" x2="239.08" y2="139.78" style="fill: none;stroke: #fff;stroke-miterlimit: 10;mix-blend-mode: overlay"/>
      </g>
      <g style="opacity: 0.5;mix-blend-mode: screen">
        <line x1="253.54" y1="333.76" x2="266.8" y2="140.39" style="fill: none;stroke: #fff;stroke-miterlimit: 10;mix-blend-mode: overlay"/>
      </g>
      <g style="opacity: 0.5;mix-blend-mode: screen">
        <line x1="301" y1="334.7" x2="301.61" y2="139.78" style="fill: none;stroke: #fff;stroke-miterlimit: 10;mix-blend-mode: overlay"/>
      </g>
      <g style="opacity: 0.5;mix-blend-mode: screen">
        <line x1="349.46" y1="334.7" x2="335.47" y2="140.71" style="fill: none;stroke: #fff;stroke-miterlimit: 10;mix-blend-mode: overlay"/>
      </g>
      <g style="opacity: 0.5;mix-blend-mode: screen">
        <line x1="392.39" y1="333.76" x2="364.06" y2="140.71" style="fill: none;stroke: #fff;stroke-miterlimit: 10;mix-blend-mode: overlay"/>
      </g>
      <g style="opacity: 0.5;mix-blend-mode: screen">
        <line x1="434.96" y1="333.76" x2="393.36" y2="140.71" style="fill: none;stroke: #fff;stroke-miterlimit: 10;mix-blend-mode: overlay"/>
      </g>
      <polygon points="124.5 334.7 153.18 334.5 202.49 140.71 179.5 140.5 124.5 334.7" style="opacity: 0.3;mix-blend-mode: multiply;fill: url(#a)"/>
      <polygon points="179.5 140.5 421.15 140.71 424.23 150.02 176.85 150.02 179.5 140.5" style="opacity: 0.2;mix-blend-mode: multiply;fill: url(#b)"/>
    </g>
    <g>
      <polygon points="53.5 254.5 125.5 334.5 179.5 140.5 421.5 140.5 475.5 334.5 547.5 254.5 454.5 54.5 146.5 54.5 53.5 254.5" style="fill: #ccc"/>
      <polygon points="454.94 54.66 146.28 54.66 178.97 140.71 422.25 140.71 454.94 54.66" style="opacity: 0.3;mix-blend-mode: multiply"/>
      <polygon points="125.5 334.5 53.5 254.5 145.5 54.5 179.5 140.5 125.5 334.5" style="opacity: 0.5;mix-blend-mode: multiply"/>
      <polygon points="475.5 334.5 547.5 254.5 455.5 54.5 421.5 140.5 475.5 334.5" style="opacity: 0.1;mix-blend-mode: multiply"/>
      <polygon points="53.5 254.5 547.5 254.5 475.5 334.5 125.5 334.5 53.5 254.5" style="fill: #ccc;opacity: 0.3"/>
    </g>
    <g>
      <polygon points="151 242 114.42 170.61 163.61 195.5 164.5 195.5 151 242" style="fill: #999;mix-blend-mode: multiply"/>
      <polygon points="467.5 122.5 486.58 170.61 451.51 239.51 438.42 193 467.5 122.5" style="fill: #8c6239"/>
      <polygon points="437.39 195.5 439.13 195.5 468.14 132.32 486.58 170.61 469.89 128.52 467.5 122.5 437.39 195.5" style="fill: #999;mix-blend-mode: multiply"/>
      <polygon points="133.5 122.5 114.42 170.61 149.49 239.51 163.61 195.5 133.5 122.5" style="fill: #42210b"/>
      <polygon points="163.61 195.5 161.88 195.5 132.86 132.32 114.42 170.61 131.11 128.52 133.5 122.5 163.61 195.5" style="opacity: 0.5;mix-blend-mode: multiply;fill: url(#c)"/>
      <polygon points="149.49 239.51 114.42 170.61 115.81 167.1 150.67 235.3 149.49 239.51" style="opacity: 0.5;mix-blend-mode: multiply;fill: url(#d)"/>
      <polygon points="451.26 187.62 448.69 183.04 452.9 173.69 456.5 178.77 451.26 187.62" style="fill: url(#e)"/>
      <path d="M454.88,181.84a2.93,2.93,0,1,1-5-2.94,3.29,3.29,0,0,1,3.91-1.5A3,3,0,0,1,454.88,181.84Z" style="fill: #999;opacity: 0.5;mix-blend-mode: multiply"/>
      <path d="M454.37,180.39a3.09,3.09,0,0,1-4.42,1.19,3,3,0,0,1-.46-3.94,3.28,3.28,0,0,1,3.82-1.53C454.86,176.72,455.43,178.67,454.37,180.39Z" style="fill: url(#f)"/>
    </g>
    <g>
      <g>
        <g>
          <path d="M296.52,139.45v-.06h0Z" style="fill: #5b1328;fill-rule: evenodd"/>
          <path d="M288.65,139.17h0c0-1.43-.16-2.81.72-4.09.12-.18.44-.54.56-.69a2.63,2.63,0,0,1,.3-.33,5.06,5.06,0,0,0,.54-.71,1.75,1.75,0,0,0,.18-.61h0c.18-1.72.2-3.51.24-5.23,0,0-.09-.07-.09-.23v-.79a2.94,2.94,0,0,1,.11-.38,5.88,5.88,0,0,1,2.76,0,3,3,0,0,1,.11.38v.79c0,.16-.09.19-.09.23,0,1.72.05,3.51.24,5.23h0a1.75,1.75,0,0,0,.18.61,5,5,0,0,0,.54.71,2.63,2.63,0,0,1,.3.33c.11.15.44.51.56.69.88,1.29.7,2.67.72,4.11h0l-.39,17.14c-5.2,0-1,.05-7.14,0Z" style="fill: #5b1328;fill-rule: evenodd"/>
        </g>
        <g>
          <g>
            <path d="M306.43,139.45v-.06h0Z" style="fill: #5b1328;fill-rule: evenodd"/>
            <path d="M298.55,139.17h0c0-1.43-.16-2.81.72-4.09.12-.18.44-.54.56-.69a2.64,2.64,0,0,1,.3-.33,5.05,5.05,0,0,0,.54-.71,1.75,1.75,0,0,0,.18-.61h0c.18-1.72.2-3.51.24-5.23,0,0-.09-.07-.09-.23v-.79a2.94,2.94,0,0,1,.11-.38,5.88,5.88,0,0,1,2.76,0,3,3,0,0,1,.11.38v.79c0,.16-.09.19-.09.23,0,1.72.05,3.51.24,5.23h0a1.75,1.75,0,0,0,.18.61,5.05,5.05,0,0,0,.54.71,2.61,2.61,0,0,1,.3.33c.11.15.44.51.56.69.88,1.29.7,2.67.72,4.11h0L306,156.32c-5.2,0-1,.05-7.14,0Z" style="fill: #5b1328;fill-rule: evenodd"/>
          </g>
          <g>
            <path d="M286.62,139.45v-.06h0Z" style="fill: #5b1328;fill-rule: evenodd"/>
            <path d="M278.74,139.17h0c0-1.43-.16-2.81.72-4.09.12-.18.44-.54.56-.69a2.63,2.63,0,0,1,.3-.33,5,5,0,0,0,.54-.71,1.76,1.76,0,0,0,.18-.61h0c.18-1.72.2-3.51.24-5.23,0,0-.09-.07-.09-.23v-.79a2.94,2.94,0,0,1,.11-.38,5.88,5.88,0,0,1,2.76,0,2.94,2.94,0,0,1,.11.38v.79c0,.16-.09.19-.09.23,0,1.72.05,3.51.24,5.23h0a1.76,1.76,0,0,0,.18.61,5.06,5.06,0,0,0,.54.71,2.6,2.6,0,0,1,.3.33c.11.15.44.51.56.69.88,1.29.7,2.67.72,4.11h0l-.39,17.14c-5.2,0-1,.05-7.14,0Z" style="fill: #5b1328;fill-rule: evenodd"/>
          </g>
        </g>
      </g>
      <g>
        <g>
          <path d="M327.51,139.45v-.06h0Z" style="fill: #5b1328;fill-rule: evenodd"/>
          <path d="M319.63,139.17h0c0-1.43-.16-2.81.72-4.09.12-.18.44-.54.56-.69a2.63,2.63,0,0,1,.3-.33,5.06,5.06,0,0,0,.54-.71,1.75,1.75,0,0,0,.18-.61h0c.18-1.72.2-3.51.24-5.23,0,0-.09-.07-.09-.23v-.79a2.94,2.94,0,0,1,.11-.38,5.88,5.88,0,0,1,2.76,0,3,3,0,0,1,.11.38v.79c0,.16-.09.19-.09.23,0,1.72.05,3.51.24,5.23h0a1.75,1.75,0,0,0,.18.61,5,5,0,0,0,.54.71,2.63,2.63,0,0,1,.3.33c.11.15.44.51.56.69.88,1.29.7,2.67.72,4.11h0l-.39,17.14c-5.2,0-1,.05-7.14,0Z" style="fill: #5b1328;fill-rule: evenodd"/>
        </g>
        <g>
          <g>
            <path d="M337.41,139.45v-.06h0Z" style="fill: #5b1328;fill-rule: evenodd"/>
            <path d="M329.54,139.17h0c0-1.43-.16-2.81.72-4.09.12-.18.44-.54.56-.69a2.64,2.64,0,0,1,.3-.33,5.05,5.05,0,0,0,.54-.71,1.75,1.75,0,0,0,.18-.61h0c.18-1.72.2-3.51.24-5.23,0,0-.09-.07-.09-.23v-.79a2.94,2.94,0,0,1,.11-.38,5.88,5.88,0,0,1,2.76,0,3,3,0,0,1,.11.38v.79c0,.16-.09.19-.09.23,0,1.72.05,3.51.24,5.23h0a1.75,1.75,0,0,0,.18.61,5.05,5.05,0,0,0,.54.71,2.61,2.61,0,0,1,.3.33c.11.15.44.51.56.69.88,1.29.7,2.67.72,4.11h0L337,156.32c-5.2,0-1,.05-7.14,0Z" style="fill: #5b1328;fill-rule: evenodd"/>
          </g>
          <g>
            <path d="M317.6,139.45v-.06h0Z" style="fill: #5b1328;fill-rule: evenodd"/>
            <path d="M309.73,139.17h0c0-1.43-.16-2.81.72-4.09.12-.18.44-.54.56-.69a2.63,2.63,0,0,1,.3-.33,5,5,0,0,0,.54-.71,1.76,1.76,0,0,0,.18-.61h0c.18-1.72.2-3.51.24-5.23,0,0-.09-.07-.09-.23v-.79a2.94,2.94,0,0,1,.11-.38,5.88,5.88,0,0,1,2.76,0,2.94,2.94,0,0,1,.11.38v.79c0,.16-.09.19-.09.23,0,1.72.05,3.51.24,5.23h0a1.76,1.76,0,0,0,.18.61,5.06,5.06,0,0,0,.54.71,2.6,2.6,0,0,1,.3.33c.11.15.44.51.56.69.88,1.29.7,2.67.72,4.11h0l-.39,17.14c-5.2,0-1,.05-7.14,0Z" style="fill: #5b1328;fill-rule: evenodd"/>
          </g>
        </g>
      </g>
      <g>
        <g>
          <path d="M358.49,139.45v-.06h0Z" style="fill: #5b1328;fill-rule: evenodd"/>
          <path d="M350.62,139.17h0c0-1.43-.16-2.81.72-4.09.12-.18.44-.54.56-.69a2.63,2.63,0,0,1,.3-.33,5.06,5.06,0,0,0,.54-.71,1.75,1.75,0,0,0,.18-.61h0c.18-1.72.2-3.51.24-5.23,0,0-.09-.07-.09-.23v-.79a2.94,2.94,0,0,1,.11-.38,5.88,5.88,0,0,1,2.76,0,3,3,0,0,1,.11.38v.79c0,.16-.09.19-.09.23,0,1.72.05,3.51.24,5.23h0a1.75,1.75,0,0,0,.18.61,5,5,0,0,0,.54.71,2.63,2.63,0,0,1,.3.33c.11.15.44.51.56.69.88,1.29.7,2.67.72,4.11h0l-.39,17.14c-5.2,0-1,.05-7.14,0Z" style="fill: #5b1328;fill-rule: evenodd"/>
        </g>
        <g>
          <g>
            <path d="M368.4,139.45v-.06h0Z" style="fill: #5b1328;fill-rule: evenodd"/>
            <path d="M360.52,139.17h0c0-1.43-.16-2.81.72-4.09.12-.18.44-.54.56-.69a2.64,2.64,0,0,1,.3-.33,5.05,5.05,0,0,0,.54-.71,1.75,1.75,0,0,0,.18-.61h0c.18-1.72.2-3.51.24-5.23,0,0-.09-.07-.09-.23v-.79a2.94,2.94,0,0,1,.11-.38,5.88,5.88,0,0,1,2.76,0,3,3,0,0,1,.11.38v.79c0,.16-.09.19-.09.23,0,1.72.05,3.51.24,5.23h0a1.75,1.75,0,0,0,.18.61,5.05,5.05,0,0,0,.54.71,2.61,2.61,0,0,1,.3.33c.11.15.44.51.56.69.88,1.29.7,2.67.72,4.11h0L368,156.32c-5.2,0-1,.05-7.14,0Z" style="fill: #5b1328;fill-rule: evenodd"/>
          </g>
          <g>
            <path d="M348.59,139.45v-.06h0Z" style="fill: #5b1328;fill-rule: evenodd"/>
            <path d="M340.71,139.17h0c0-1.43-.16-2.81.72-4.09.12-.18.44-.54.56-.69a2.63,2.63,0,0,1,.3-.33,5,5,0,0,0,.54-.71,1.76,1.76,0,0,0,.18-.61h0c.18-1.72.2-3.51.24-5.23,0,0-.09-.07-.09-.23v-.79a2.94,2.94,0,0,1,.11-.38,5.88,5.88,0,0,1,2.76,0,2.94,2.94,0,0,1,.11.38v.79c0,.16-.09.19-.09.23,0,1.72.05,3.51.24,5.23h0a1.76,1.76,0,0,0,.18.61,5.06,5.06,0,0,0,.54.71,2.6,2.6,0,0,1,.3.33c.11.15.44.51.56.69.88,1.29.7,2.67.72,4.11h0l-.39,17.14c-5.2,0-1,.05-7.14,0Z" style="fill: #5b1328;fill-rule: evenodd"/>
          </g>
        </g>
      </g>
      <g>
        <path d="M213.27,128.29H183.65A93.91,93.91,0,0,0,182,145.13a99.09,99.09,0,0,0,1.61,17.11c0,2.74,6.63,5,14.81,5s14.81-2.23,14.81-5a99.09,99.09,0,0,0,1.61-17.11A93.91,93.91,0,0,0,213.27,128.29Z" style="fill: #8c6239"/>
        <ellipse cx="198.46" cy="128.29" rx="14.81" ry="4.97" style="fill: #c69c6d"/>
        <path d="M186.38,130.79a93.91,93.91,0,0,0-1.61,16.83,99.09,99.09,0,0,0,1.61,17.11" style="fill: none;stroke: #42210b;stroke-miterlimit: 10"/>
        <path d="M192.08,133.25a93.91,93.91,0,0,0-1.61,16.83,99.09,99.09,0,0,0,1.61,17.11" style="fill: none;stroke: #42210b;stroke-miterlimit: 10"/>
        <path d="M214.46,137.29c0,2.74-7.17,5-16,5s-16-2.23-16-5l.28-2.72c0,2.6,7.06,4.72,15.76,4.72s15.76-2.11,15.76-4.72Z" style="fill: url(#g)"/>
        <path d="M214.46,157.14c0,2.74-7.17,5-16,5s-16-2.23-16-5l.28-2.72c0,2.6,7.06,4.72,15.76,4.72s15.76-2.11,15.76-4.72Z" style="fill: url(#h)"/>
      </g>
      <g>
        <path d="M248.52,128.29H218.9a93.91,93.91,0,0,0-1.61,16.83,99.09,99.09,0,0,0,1.61,17.11c0,2.74,6.63,5,14.81,5s14.81-2.23,14.81-5a99.09,99.09,0,0,0,1.61-17.11A93.91,93.91,0,0,0,248.52,128.29Z" style="fill: #8c6239"/>
        <ellipse cx="233.71" cy="128.29" rx="14.81" ry="4.97" style="fill: #c69c6d"/>
        <path d="M221.63,130.79A93.91,93.91,0,0,0,220,147.63a99.09,99.09,0,0,0,1.61,17.11" style="fill: none;stroke: #42210b;stroke-miterlimit: 10"/>
        <path d="M227.33,133.25a93.91,93.91,0,0,0-1.61,16.83,99.09,99.09,0,0,0,1.61,17.11" style="fill: none;stroke: #42210b;stroke-miterlimit: 10"/>
        <path d="M249.71,137.29c0,2.74-7.17,5-16,5s-16-2.23-16-5l.28-2.72c0,2.6,7.06,4.72,15.76,4.72s15.76-2.11,15.76-4.72Z" style="fill: url(#i)"/>
        <path d="M249.71,157.14c0,2.74-7.17,5-16,5s-16-2.23-16-5l.28-2.72c0,2.6,7.06,4.72,15.76,4.72s15.76-2.11,15.76-4.72Z" style="fill: url(#j)"/>
      </g>
      <g>
        <path d="M232.1,150.13H202.49A93.91,93.91,0,0,0,200.88,167a99.09,99.09,0,0,0,1.61,17.11c0,2.74,6.63,5,14.81,5s14.81-2.23,14.81-5A99.09,99.09,0,0,0,233.71,167,93.91,93.91,0,0,0,232.1,150.13Z" style="fill: #8c6239"/>
        <ellipse cx="217.29" cy="150.13" rx="14.81" ry="4.97" style="fill: #c69c6d"/>
        <path d="M205.21,152.63a93.91,93.91,0,0,0-1.61,16.83,99.09,99.09,0,0,0,1.61,17.11" style="fill: none;stroke: #42210b;stroke-miterlimit: 10"/>
        <path d="M210.91,155.09a93.91,93.91,0,0,0-1.61,16.83A99.09,99.09,0,0,0,210.91,189" style="fill: none;stroke: #42210b;stroke-miterlimit: 10"/>
        <path d="M233.29,159.13c0,2.74-7.17,5-16,5s-16-2.23-16-5l.28-2.72c0,2.6,7.06,4.72,15.76,4.72S233,159,233,156.41Z" style="fill: url(#k)"/>
        <path d="M233.29,179c0,2.74-7.17,5-16,5s-16-2.23-16-5l.28-2.72c0,2.6,7.06,4.72,15.76,4.72S233,178.86,233,176.26Z" style="fill: url(#l)"/>
      </g>
      <g>
        <path d="M420.64,125.29H391a93.91,93.91,0,0,0-1.61,16.83A99.09,99.09,0,0,0,391,159.23c0,2.74,6.63,5,14.81,5s14.81-2.23,14.81-5a99.09,99.09,0,0,0,1.61-17.11A93.91,93.91,0,0,0,420.64,125.29Z" style="fill: #8c6239"/>
        <ellipse cx="405.83" cy="125.29" rx="14.81" ry="4.97" style="fill: #c69c6d"/>
        <path d="M393.75,127.79a93.91,93.91,0,0,0-1.61,16.83,99.09,99.09,0,0,0,1.61,17.11" style="fill: none;stroke: #42210b;stroke-miterlimit: 10"/>
        <path d="M399.46,130.25a93.91,93.91,0,0,0-1.61,16.83,99.09,99.09,0,0,0,1.61,17.11" style="fill: none;stroke: #42210b;stroke-miterlimit: 10"/>
        <path d="M421.83,134.29c0,2.74-7.17,5-16,5s-16-2.23-16-5l.28-2.72c0,2.6,7.06,4.72,15.76,4.72s15.76-2.11,15.76-4.72Z" style="fill: url(#m)"/>
        <path d="M421.83,154.14c0,2.74-7.17,5-16,5s-16-2.23-16-5l.28-2.72c0,2.6,7.06,4.72,15.76,4.72s15.76-2.11,15.76-4.72Z" style="fill: url(#n)"/>
      </g>
      <g>
        <path d="M257.44,182.62l20.92-7.73c15.45,6.59,33.77,10.82,49.22,17.4-6.89,3.56-16.65,9.47-23.54,13-5.19,2.68-5.37,3.61-10.56,1l-36.86-18.14C249.16,184.55,250,185.38,257.44,182.62Z" style="fill-rule: evenodd;mix-blend-mode: multiply;fill: url(#o)"/>
        <path d="M316.65,189.85c.94.13,7.2.81,6.93,1.35s-25.5,13.92-25.5,13.92l-4.78-3.36s1.82-8.34,3-8.54Z" style="fill-rule: evenodd;fill: url(#p)"/>
        <path d="M249.8,179.24s-1.68.76-1.26,2.19,46.5,23.63,47.59,24.39,2.86-.5,2.86-.5l25-14s.59-.93-1.6-.08-25.16,14.53-25.24,13.52a2.39,2.39,0,0,1,1.36-2.67c1.43-.92,25.31-12.45,25.31-12.95s-3.78-1.43-3.78-1.43Z" style="fill-rule: evenodd;fill: url(#q)"/>
        <polygon points="249.51 179.31 277.41 168.99 323.77 188.75 296.9 202.63 249.51 179.31" style="fill: #e6d9bb;fill-rule: evenodd"/>
        <path d="M254.94,177.58l22.52-8.33L302.2,179.8c-6.67-.77-15.69-.92-19.89-2.67C276.86,174.85,258.56,177.11,254.94,177.58Z" style="fill-rule: evenodd;fill: url(#r)"/>
        <path d="M297.47,206a4.76,4.76,0,0,0,1.53-.69l25-14s.59-.93-1.6-.08c-1.84.71-18.1,10.38-23.3,12.85-2.61,1.24-2-1.07-.58-2s25.31-12.45,25.31-12.95c0-.09.13-.49-.06-.39l-25.43,12.6c-1.4.69-2.71,4.09-.92,4.61C298.42,206.28,297.44,206,297.47,206Z" style="fill: #97866c;fill-rule: evenodd"/>
        <path d="M262,183.06c-.27-1.21-.4-1.55.61-2.49s.54-1.08,1.14-1.68,0-.67,1.14-.81-.13-1.48,1.48-.27,1.68,3.23,3.43,2,.47-1.14,2.22-1.28.94-.2,2.49.34-.07,1.55,2.35.74,2.56-1.08,3.63-1.14.87-.6,2.22.54,1.35.67,1.82,1.88-.4,1.68,1.82,2a19.87,19.87,0,0,0,3.63.27c1.55,0,.2-.94,2.22.34.66.42,3.75-.41,4.71.12,2.38,1.32,3.28,4.11,6.45,4.45,1.88.2,3.77-1.48,5.52,0s3.09,2.22,2.56,2.42-6.79,1.08-7.13,2.09-2.49,1.14-2.42.61.74-.94,1.55-1.48-.87-1.41-1.55-1.82-1.48-1.28-2.89-.47-.2,2-2.42.87-2.49-1.61-2.49-1.61-2.83-.81-3.23.14-2-.14-.54,2.56,2.29,4.17,1.82,4.71-3.3,1.14-4.31,1-2.49-.27-2.49.34v2.49a7.14,7.14,0,0,0,.21.74c-7.23-3.56-16.85-8.3-24.47-12.18a.67.67,0,0,0-.09-.66c-.61-.67-1.08-1.28-1.08-1.28s-.07-.54.27-.74,1.08-.27,1.35-.67a1.56,1.56,0,0,0,.2-.94Z" style="fill-rule: evenodd;fill: url(#s)"/>
        <path d="M265.24,183.73c.9-.62.11-.56,1.46-1.18s.06-1,1.91-.9,1.29-.22,2.41.34a3.05,3.05,0,0,0,2.36.39c1-.11,2.13-.34,3,.62s.06,1.12,1.51,1.91,1.29,1.18,2.36,2.13a3.93,3.93,0,0,0,4.82.11c1.57-1.23,1.68-1.18,2.24-1.12s-.17-.28,1.18.28.28,1.68,0,2.36-.67.11-.28,1.63,2.92,1.07.06,2.07-1.91.39-3.53,1-2.36,1-4.32-.34a32,32,0,0,1-2.8-1.85c-.5-.5-.22-2.24-2.64-2.24s-2.13.84-3.37.17-.84-2.24-2.24-2.58c-.22-.05-7.06-.74-4.15-2.75Zm13-.51c1.63.39,1.63.45,2.24,1.18a1.7,1.7,0,0,0,1.68.78c.79,0,.45-.11,1.79-.11s.06-.56,2.69.17a32.52,32.52,0,0,0,4.65.9c.84.17.34.5,2.08.5s1.74-.39,2.58.17,2.47.06,1.51-.62-1.35-1.29-2.3-1.29h-2.13a21.74,21.74,0,0,1-4.6-.5,13.58,13.58,0,0,1-3.31-1c-1.46-.62-2,0-1.68-1s1.57-.9.06-1.85-1.07-1.57-2.3-1.18-.84-.34-1.85.67-.67,1-1.85.73C272.9,179.93,275.79,182.63,278.25,183.22Z" style="fill: #d1c3a7;fill-rule: evenodd"/>
        <path d="M281.05,181.09a3,3,0,0,0-2.08.34c-1,.5-1.35,1.46-.45,1.46s1.63-.62,2.58.06,1.07,1.23,1.68,1.23h1a6.41,6.41,0,0,0-1.12-1.23c-.39-.22-1,0-.5-.62s.9-1.12.28-1.29a2.81,2.81,0,0,0-1.35.06Zm-12.11,2.41c-1.4.28-2.52.84-1.57,1.4s1.35,1,2.58.79,1.63-1.12,2.24-.28.39,1.07.9,1.35,2.52-1.18,2.41-1.85-.11-1.35-1.4-1.46-.5.22-2-.11-1.4-1-2.3-.67-1.18.9-.9.84Zm7.85,3.53c.34.9,1.63,1.23,1.63,2.3a2,2,0,0,0,.56,1.74,2.91,2.91,0,0,0,1.51,1.35,3.11,3.11,0,0,0,2.41.39c1.07-.34,3.2-.79,3.7-.9s.62-1.12,0-1.63-.22-1.12.5-1.91,1-1.91.06-1.57-2.24,1.4-2.08,2.13,1,.9.17,1.63a2.25,2.25,0,0,1-1.74.84c-.56,0-.84-.11-1.18-.79s.5-.67-.79-1.57-1.23-.79-1.85-1.18a10,10,0,0,0-1.46-1A4.46,4.46,0,0,0,276.79,187Z" style="fill: #e0d3bd;fill-rule: evenodd"/>
        <g>
          <path d="M250.36,182.68a2.73,2.73,0,0,1,1.1-2.35c1.53-1,26-9.77,26.06-9.8a.16.16,0,0,1,.13,0l42.44,18.16a.16.16,0,0,1,0,.3c-.21.09-16.23,7.07-20.71,9.28a8.47,8.47,0,0,0-4.05,3.78,6.53,6.53,0,0,0-.66,3l-.32-.16a6.84,6.84,0,0,1,.7-3,8.79,8.79,0,0,1,4.2-3.93c4.13-2,18-8.11,20.38-9.14l-42-18c-1.29.46-24.47,8.77-25.93,9.74a2.51,2.51,0,0,0-1,2.27Z" style="fill: #97866c"/>
          <path d="M300.59,197.24a.16.16,0,0,1-.05.32,41,41,0,0,1-8.09-2.21.88.88,0,0,1-.16.73,4.58,4.58,0,0,1-1.94.79,8.51,8.51,0,0,1-2.51.28,9.53,9.53,0,0,0-1.59-.11c-.41,0-.71.1-.71.28v2.49a2.37,2.37,0,0,0,.09.32l.11.38a.16.16,0,0,1,0,.12l-.44-.22c0-.26-.07-.54-.07-.59v-2.49c0-.42.44-.58,1-.61a9.8,9.8,0,0,1,1.65.11,8.23,8.23,0,0,0,2.39-.27,4.44,4.44,0,0,0,1.77-.68.73.73,0,0,0,0-.66q-1.09-.44-2.1-.94c-3.86.76-6.93,1.39-8.26,1.75-.81.21-1.08,1.08-1.16,2.06l-.22-.11c.09-1,.4-1.84,1.35-2.1,1.4-.38,4.35-1,8-1.74a24.81,24.81,0,0,1-3-1.8,16.3,16.3,0,0,1-3.36-3.06c-8.23.37-14.86.66-15.33.66s-.74.64-.94,1.44l-.19-.09c.24-.87.59-1.57,1.13-1.57s7-.29,15.15-.65a8.82,8.82,0,0,1-1.81-4l-19.46-.46a1.39,1.39,0,0,1-.2.48h0a1.74,1.74,0,0,1-1,.55,3,3,0,0,0-.39.14l0,.24q.09.47.22.94l.54.62a.68.68,0,0,1,.17.39,4,4,0,0,1-.05.45l-.62-.32q-.18-.49-.33-1c-.3-.36-.5-.61-.5-.61a.16.16,0,0,1,0-.08h0a1.09,1.09,0,0,1,.21-.78q-.08-.54-.11-1.08l-1.72,0a4.55,4.55,0,0,0-2.62.95l-.23-.12.07-.05a4.79,4.79,0,0,1,2.78-1l1.71,0c0-.12,0-.25,0-.37a11.19,11.19,0,0,1,.86-4.28l.13-.31-5.45-.51a.11.11,0,1,1,0-.23l5.53.52a14.23,14.23,0,0,1,2.29-3.41.16.16,0,1,1,.24.21,14,14,0,0,0-2.19,3.23l2,.18a1.5,1.5,0,0,1,.4-.6,1.1,1.1,0,0,0,.29-.42c.1-.25.13-.33,1-.43.38,0,.4-.27.41-.42a.46.46,0,0,1,.07-.25c.13-.17.37-.11,1.11.44a6.18,6.18,0,0,1,1.28,1.4,3.07,3.07,0,0,0,.7.78l.73.07a2.14,2.14,0,0,0,.54-.3,3.85,3.85,0,0,0,1-.95.6.6,0,0,1,.2-.21,2.55,2.55,0,0,1,.93-.14H272l.7-.06h0a2.88,2.88,0,0,1,.63,0,2,2,0,0,1,.46.15l.76.28c.73.25.83.61.91.86s.09.3,1.34-.12c.92-.31,1.51-.54,1.95-.71a4.81,4.81,0,0,1,1.73-.45,2.81,2.81,0,0,0,.63-.12c.48-.13.67-.19,1.7.69l.31.26a11.59,11.59,0,0,1,1.28-1.3l-17.05-3.32a.11.11,0,0,1,0-.22l17.23,3.35a17.72,17.72,0,0,1,3.72-2.34.16.16,0,0,1,.14.29,17.67,17.67,0,0,0-3.45,2.13l16.47,3.25a.11.11,0,1,1,0,.22l-16.65-3.29a11.5,11.5,0,0,0-1.42,1.41l.4.28c.45.3.56.38.89,1.22a2.65,2.65,0,0,1,.16.62l22.41,2.09a.11.11,0,1,1,0,.23l-22.37-2.09v.09c0,.49.06.74,1.5.92l.49.06a17.29,17.29,0,0,0,3.12.21c.56,0,.68-.13.76-.21s.24-.26,1.55.57a4.84,4.84,0,0,0,1.94,0,6,6,0,0,1,2.76.11,9.79,9.79,0,0,1,2.26,1.9l13.12.32a.11.11,0,1,1,0,.23l-12.89-.31a6.15,6.15,0,0,0,3.91,2.3,5.72,5.72,0,0,0,2.06-.3c1.2-.32,2.39-.64,3.54.34l0,0,7.91-.36a.11.11,0,0,1,0,.23l-7.66.35c.45.37.86.69,1.21,1a7.71,7.71,0,0,1,1.1.93l7.86-1.43a.11.11,0,0,1,0,.22l-7.79,1.41c0,.17,0,.28-.22.36s-.63.15-1.28.27c-2,.37-5.53,1-5.75,1.71a1.81,1.81,0,0,1-1.5,1,2.52,2.52,0,0,1-.58,0,1.07,1.07,0,0,1-.46-.13.35.35,0,0,1-.19-.36c.06-.48.49-.84,1.08-1.24-3.7.69-7.52,1.41-10.92,2.07l.21.47a5.63,5.63,0,0,1,.22.6,40.43,40.43,0,0,0,8.23,2.27Zm-39-12.63-1.35,0q0,.44.09.88l.34-.12a1.53,1.53,0,0,0,.79-.42h0a1,1,0,0,0,.14-.31Zm2-5.2,4.33.4c-.13-.16-.27-.34-.41-.54a5.9,5.9,0,0,0-1.21-1.33l-.66-.5s0,0,0,.09c0,.26-.06.64-.7.72s-.64.11-.69.23a1.4,1.4,0,0,1-.36.53,1.27,1.27,0,0,0-.29.41Zm6.19.58,12.09,1.13a8.58,8.58,0,0,1,1.08-1.78l-.32-.26c-.9-.77-1-.73-1.4-.63a3.08,3.08,0,0,1-.7.13,4.57,4.57,0,0,0-1.63.42c-.44.17-1,.4-2,.71-1.56.52-1.62.33-1.75-.09-.06-.19-.14-.45-.71-.65l-.77-.29a1.72,1.72,0,0,0-.39-.13,2.75,2.75,0,0,0-.56,0h0l-.71.06h-.16a2.93,2.93,0,0,0-.8.1.4.4,0,0,0-.1.11,4.14,4.14,0,0,1-1.08,1l-.13.09Zm13.42-.45a8.32,8.32,0,0,0-1,1.61l2.32.22a2.34,2.34,0,0,0-.13-.47c-.29-.75-.39-.81-.77-1.07l-.43-.3Zm1.35,2.06-2.45-.23a6.58,6.58,0,0,0-.48,3.48l17.19.41a8.63,8.63,0,0,0-2-1.61,5.93,5.93,0,0,0-2.58-.07,4.61,4.61,0,0,1-2.14-.06c-1.08-.68-1.09-.68-1.14-.62s-.29.31-1,.31a17.51,17.51,0,0,1-3.16-.21l-.49-.06c-1.7-.21-1.73-.54-1.78-1.21v-.14Zm14.48,3.9-17.38-.42a8.66,8.66,0,0,0,1.88,3.95l7.16-.32,0-.06c.46-1.07,3.41-.23,3.42-.23h0a.16.16,0,0,1,.1.08l0,0,9.12-.41h0c-2-.22-3.13-1.37-4.25-2.55l-.08-.08Zm-8,3.19,2.38-.11c-.77-.16-2-.35-2.38.11Zm13.34-.6,4.13-.19a3.48,3.48,0,0,0-3-.08,11.47,11.47,0,0,1-1.13.26Zm4.41,0-14.33.65a10.64,10.64,0,0,0,2.16,1.28c1.21.59,1.26.46,1.39.15a1.87,1.87,0,0,1,.88-1,2.25,2.25,0,0,1,2.74.27l.31.21.22.13h0a5.08,5.08,0,0,1,1.5,1.13.59.59,0,0,1,.11.52l7.43-1.37c-.19-.18-.51-.43-.92-.74s-.94-.72-1.5-1.19Zm-14.76.67-3.12.14a1.14,1.14,0,0,1-.67.42,1.5,1.5,0,0,0-.25.1c-.23.13-.26.44.45,1.74.55,1,1,1.84,1.34,2.52,3.57-.7,7.6-1.47,11.47-2.19l.08-.05a.24.24,0,0,0,.07-.38,4.9,4.9,0,0,0-1.39-1h0l-.22-.13-.33-.22a2,2,0,0,0-2.4-.25,1.58,1.58,0,0,0-.74.86c-.22.53-.32.75-1.83,0a8.43,8.43,0,0,1-2.46-1.55Zm-3.64.16-6.7.3a16.25,16.25,0,0,0,3.14,2.81,24.92,24.92,0,0,0,3.36,2l1.28-.25c-.33-.66-.77-1.47-1.3-2.43-.85-1.54-.72-2-.32-2.18a1.74,1.74,0,0,1,.3-.12l.25-.09Zm21,1.3h0v0Zm0,0-7.75,1.43-.08.06-.19.12c-.69.46-1.24.82-1.29,1.24,0,0,0,0,0,0a.76.76,0,0,0,.32.08,2.17,2.17,0,0,0,.51,0,1.51,1.51,0,0,0,1.24-.78c.28-.85,4-1.55,6-1.93.59-.11,1-.2,1.2-.24ZM291.6,194l-1.08.21q.7.33,1.45.64l-.13-.32q-.1-.25-.24-.53Zm-29.73-10.9,0-.12h0c-.26-1.15-.34-1.52.69-2.48a2.37,2.37,0,0,0,.66-.85l-2-.19-.18.41a10.86,10.86,0,0,0-.83,4.16q0,.19,0,.38l1.4,0a1.51,1.51,0,0,0,0-.3.17.17,0,0,1,0-.07l.26-1Zm7.6-2.87a1,1,0,0,1-1.29-.12l-4.65-.43a2.48,2.48,0,0,1-.78,1.06c-.9.84-.82,1.16-.59,2.17h0l0,.15a.16.16,0,0,1,0,.08l-.26,1a1.92,1.92,0,0,1,0,.31l19.39.45a6.89,6.89,0,0,1,.47-3.51l-12.33-1.15Zm3.46-1.78a.16.16,0,0,0-.17-.15Z" style="fill: url(#t)"/>
        </g>
        <g>
          <path d="M296.81,178.74l4.35,1.86c.2.19.39.39.58.6l-5.27-2.25Z" style="fill: #5f543a"/>
          <path d="M281.57,186a7.41,7.41,0,0,1-.22-1l-4.26-.1,1-.2,3.26.08a6.83,6.83,0,0,1-.05-.75l.32-.07a6.65,6.65,0,0,0,.06.82l15.29.37-.88.21-14.38-.35a7.15,7.15,0,0,0,.21.91l-.32.05Zm13.8-6.33,6.12,1.21.14.15a.11.11,0,0,1-.13.09l-6.33-1.25.2-.19Zm-11,.32a2.16,2.16,0,0,0-.44,0,2,2,0,0,1,.49.86,2.31,2.31,0,0,1,.13.47l-1.65-.15a2.26,2.26,0,0,0,0,.23l1.67.16v.14c.05.67.08,1,1.78,1.21l.49.06a17.51,17.51,0,0,0,3.16.21c.7,0,.88-.19,1-.31s.06-.07,1.14.62a4.61,4.61,0,0,0,2.14.06,5.93,5.93,0,0,1,2.58.07,8,8,0,0,1,1.76,1.41l.61.16a9.59,9.59,0,0,0-2.21-1.85,5.94,5.94,0,0,0-2.76-.11,4.84,4.84,0,0,1-1.94,0c-1.3-.83-1.33-.79-1.55-.57s-.19.21-.76.21a17.29,17.29,0,0,1-3.12-.21l-.49-.06c-1.44-.17-1.46-.42-1.5-.92v-.09l18.27,1.71-.11-.24-18.18-1.7a2.65,2.65,0,0,0-.16-.62,3.85,3.85,0,0,0-.35-.74Zm15.09,5.25,3.75.09a.9.9,0,0,1-.32.22l-2.32-.06h-.06Z" style="fill: #5f543a"/>
        </g>
        <path d="M305.76,187.09c0-.23.27-.42.65-.44s.71.16.73.39l.25,2.4,4-.15c.38,0,.71.16.73.39s-.27.42-.65.44l-4,.15.25,2.4c0,.23-.27.42-.65.44s-.71-.16-.73-.39l-.25-2.4-4,.15c-.38,0-.71-.16-.73-.39s.27-.42.65-.44l4-.15Z" style="fill: #d91d52"/>
        <path d="M305.78,189.83a7.18,7.18,0,0,1,.84.21h0l.59-.29h0a7.42,7.42,0,0,0-.82-.2l-.61.28Zm-29.44-3.33h.86l.59-.29H277l-.67.27Zm1.8.42h1l.34-.33h-.88l-.48.31Zm2.12.25h1.15l-.1-.35h-.91l-.14.35Zm2.29-.08h1l-.58-.29h-.81l.36.33Zm1.9-.43h0l0,0,0,0,0,0,0,0,0,0,0,0,0,0,0,0,0,0,0,0,0,0,0,0,0,0,0,0h0l-.79-.23h0l0,0,0,0,0,0,0,0,0,0,0,0,0,0,0,0,0,0h0l0,0,0,0h-.13l.74.25Zm1.38-.54h.7l-.72-.25h-.53l0,0,0,0h0l0,0,0,0h0l.76.24Zm1.43-.47H288l-.5-.31h-.92l.64.28Zm1.61-.3h.87l.06-.35h-1.18l.25.34Zm1.78,0h1l.34-.33h-1l-.28.34Zm1.93.22h1l.38-.33h-1l-.34.33Zm1.87.25h.85l.56-.3h-1l-.45.32Zm1.6.36h.66l.8-.22h-.77l-.69.26Zm1.22.51h.48l.92-.16h-.53l-.88.19Zm1,.62h0l0,0h0l0,0,0,0,0,0h.06l0,0h.06l0,0h0l0,0h0l0,0h0l0,0h0l0,0h0l.83-.21h-.53l-.9.17Zm1.27.6h0l0,0h0l0,0,0,0h0l0,0h0l0,0,0,0h0l0,0h0l0,0h0l0,0h.08l.74-.24h-.27l0,0h-.08l0,0h-.26l-.78.23Zm1.46.52H301l0,0h.23l0,0h.36l.7-.26h-.75l-.72.25Zm1.55.48h.8l.66-.27h-.78l-.68.27Zm1.61.45h.83l.63-.28h-.81Z" style="fill: #d91d52"/>
      </g>
    </g>
  </g>
</svg>
