<svg xmlns="http://www.w3.org/2000/svg" xmlns:xlink="http://www.w3.org/1999/xlink" width="600" height="400" viewBox="0 0 600 400">
  <defs>
    <linearGradient id="a" x1="173.71" y1="240.41" x2="157.22" y2="236.05" gradientUnits="userSpaceOnUse">
      <stop offset="0" stop-color="#fff"/>
      <stop offset="1"/>
    </linearGradient>
    <linearGradient id="b" x1="300.54" y1="148.67" x2="300.54" y2="142" xlink:href="#a"/>
    <linearGradient id="c" x1="184.37" y1="177.64" x2="114.86" y2="142.32" xlink:href="#a"/>
    <linearGradient id="d" x1="150.27" y1="212.26" x2="77.38" y2="175.22" gradientUnits="userSpaceOnUse">
      <stop offset="0.01" stop-color="#fff"/>
      <stop offset="1"/>
    </linearGradient>
    <linearGradient id="e" x1="-38.3" y1="132.62" x2="-34.19" y2="148.76" gradientTransform="translate(558.77 74.94) rotate(31.6)" gradientUnits="userSpaceOnUse">
      <stop offset="0.01" stop-color="#fff78f"/>
      <stop offset="1" stop-color="#b76e11"/>
    </linearGradient>
    <radialGradient id="f" cx="-36.64" cy="143.81" r="3.31" gradientTransform="translate(558.77 74.94) rotate(31.6)" xlink:href="#e"/>
    <linearGradient id="g" x1="312.69" y1="148.74" x2="305.44" y2="88.49" gradientUnits="userSpaceOnUse">
      <stop offset="0" stop-color="#29abe2"/>
      <stop offset="1" stop-color="#fff"/>
    </linearGradient>
    <radialGradient id="h" cx="307.28" cy="182.47" r="33.47" gradientTransform="translate(0 32.58) scale(1 0.77)" gradientUnits="userSpaceOnUse">
      <stop offset="0"/>
      <stop offset="1" stop-opacity="0"/>
    </radialGradient>
    <radialGradient id="i" cx="310.5" cy="179" r="16.51" gradientTransform="translate(-2.74 93.12) rotate(-1.74) scale(1 0.53)" xlink:href="#g"/>
    <radialGradient id="j" cx="307.77" cy="154.95" r="24.32" xlink:href="#g"/>
    <radialGradient id="k" cx="307.77" cy="147.28" r="21.97" xlink:href="#g"/>
    <linearGradient id="l" x1="309.89" y1="147.84" x2="307.89" y2="106.09" xlink:href="#g"/>
    <radialGradient id="m" cx="305.65" cy="132.38" r="17.72" gradientUnits="userSpaceOnUse">
      <stop offset="0" stop-color="#999"/>
      <stop offset="1"/>
    </radialGradient>
  </defs>
  <title>room</title>
  <g style="isolation: isolate">
    <g>
      <polygon points="124.5 334.7 179.5 140.5 421.15 140.71 475.91 334.7 124.5 334.7" style="fill: #9bdad9"/>
      <polygon points="124.5 334.7 153.18 334.5 202.49 140.71 179.5 140.5 124.5 334.7" style="opacity: 0.3;mix-blend-mode: multiply;fill: url(#a)"/>
      <polygon points="179.5 140.5 421.15 140.71 424.23 150.02 176.85 150.02 179.5 140.5" style="opacity: 0.2;mix-blend-mode: multiply;fill: url(#b)"/>
      <line x1="166.88" y1="334.5" x2="208.64" y2="140.71" style="fill: none;stroke: #000;stroke-miterlimit: 10;mix-blend-mode: overlay"/>
      <line x1="208.64" y1="334.7" x2="238.08" y2="139.78" style="fill: none;stroke: #000;stroke-miterlimit: 10;mix-blend-mode: overlay"/>
      <line x1="252.54" y1="333.76" x2="265.8" y2="140.39" style="fill: none;stroke: #000;stroke-miterlimit: 10;mix-blend-mode: overlay"/>
      <line x1="300" y1="334.7" x2="300.61" y2="139.78" style="fill: none;stroke: #000;stroke-miterlimit: 10;mix-blend-mode: overlay"/>
      <line x1="348.46" y1="334.7" x2="334.47" y2="140.71" style="fill: none;stroke: #000;stroke-miterlimit: 10;mix-blend-mode: overlay"/>
      <line x1="391.39" y1="333.76" x2="363.06" y2="140.71" style="fill: none;stroke: #000;stroke-miterlimit: 10;mix-blend-mode: overlay"/>
      <line x1="433.96" y1="333.76" x2="392.36" y2="140.71" style="fill: none;stroke: #000;stroke-miterlimit: 10;mix-blend-mode: overlay"/>
      <g style="opacity: 0.5;mix-blend-mode: screen">
        <line x1="167.88" y1="334.5" x2="209.64" y2="140.71" style="fill: none;stroke: #fff;stroke-miterlimit: 10;mix-blend-mode: overlay"/>
      </g>
      <g style="opacity: 0.5;mix-blend-mode: screen">
        <line x1="209.64" y1="334.7" x2="239.08" y2="139.78" style="fill: none;stroke: #fff;stroke-miterlimit: 10;mix-blend-mode: overlay"/>
      </g>
      <g style="opacity: 0.5;mix-blend-mode: screen">
        <line x1="253.54" y1="333.76" x2="266.8" y2="140.39" style="fill: none;stroke: #fff;stroke-miterlimit: 10;mix-blend-mode: overlay"/>
      </g>
      <g style="opacity: 0.5;mix-blend-mode: screen">
        <line x1="301" y1="334.7" x2="301.61" y2="139.78" style="fill: none;stroke: #fff;stroke-miterlimit: 10;mix-blend-mode: overlay"/>
      </g>
      <g style="opacity: 0.5;mix-blend-mode: screen">
        <line x1="349.46" y1="334.7" x2="335.47" y2="140.71" style="fill: none;stroke: #fff;stroke-miterlimit: 10;mix-blend-mode: overlay"/>
      </g>
      <g style="opacity: 0.5;mix-blend-mode: screen">
        <line x1="392.39" y1="333.76" x2="364.06" y2="140.71" style="fill: none;stroke: #fff;stroke-miterlimit: 10;mix-blend-mode: overlay"/>
      </g>
      <g style="opacity: 0.5;mix-blend-mode: screen">
        <line x1="434.96" y1="333.76" x2="393.36" y2="140.71" style="fill: none;stroke: #fff;stroke-miterlimit: 10;mix-blend-mode: overlay"/>
      </g>
      <line x1="166.88" y1="334.5" x2="208.64" y2="140.71" style="fill: none;stroke: #000;stroke-miterlimit: 10;mix-blend-mode: overlay"/>
      <line x1="208.64" y1="334.7" x2="238.08" y2="139.78" style="fill: none;stroke: #000;stroke-miterlimit: 10;mix-blend-mode: overlay"/>
      <line x1="252.54" y1="333.76" x2="265.8" y2="140.39" style="fill: none;stroke: #000;stroke-miterlimit: 10;mix-blend-mode: overlay"/>
      <line x1="300" y1="334.7" x2="300.61" y2="139.78" style="fill: none;stroke: #000;stroke-miterlimit: 10;mix-blend-mode: overlay"/>
      <line x1="348.46" y1="334.7" x2="334.47" y2="140.71" style="fill: none;stroke: #000;stroke-miterlimit: 10;mix-blend-mode: overlay"/>
      <line x1="391.39" y1="333.76" x2="363.06" y2="140.71" style="fill: none;stroke: #000;stroke-miterlimit: 10;mix-blend-mode: overlay"/>
      <line x1="433.96" y1="333.76" x2="392.36" y2="140.71" style="fill: none;stroke: #000;stroke-miterlimit: 10;mix-blend-mode: overlay"/>
      <g style="opacity: 0.5;mix-blend-mode: screen">
        <line x1="167.88" y1="334.5" x2="209.64" y2="140.71" style="fill: none;stroke: #fff;stroke-miterlimit: 10;mix-blend-mode: overlay"/>
      </g>
      <g style="opacity: 0.5;mix-blend-mode: screen">
        <line x1="209.64" y1="334.7" x2="239.08" y2="139.78" style="fill: none;stroke: #fff;stroke-miterlimit: 10;mix-blend-mode: overlay"/>
      </g>
      <g style="opacity: 0.5;mix-blend-mode: screen">
        <line x1="253.54" y1="333.76" x2="266.8" y2="140.39" style="fill: none;stroke: #fff;stroke-miterlimit: 10;mix-blend-mode: overlay"/>
      </g>
      <g style="opacity: 0.5;mix-blend-mode: screen">
        <line x1="301" y1="334.7" x2="301.61" y2="139.78" style="fill: none;stroke: #fff;stroke-miterlimit: 10;mix-blend-mode: overlay"/>
      </g>
      <g style="opacity: 0.5;mix-blend-mode: screen">
        <line x1="349.46" y1="334.7" x2="335.47" y2="140.71" style="fill: none;stroke: #fff;stroke-miterlimit: 10;mix-blend-mode: overlay"/>
      </g>
      <g style="opacity: 0.5;mix-blend-mode: screen">
        <line x1="392.39" y1="333.76" x2="364.06" y2="140.71" style="fill: none;stroke: #fff;stroke-miterlimit: 10;mix-blend-mode: overlay"/>
      </g>
      <g style="opacity: 0.5;mix-blend-mode: screen">
        <line x1="434.96" y1="333.76" x2="393.36" y2="140.71" style="fill: none;stroke: #fff;stroke-miterlimit: 10;mix-blend-mode: overlay"/>
      </g>
      <g style="opacity: 0.5;mix-blend-mode: multiply">
        <line x1="172.33" y1="165" x2="429.33" y2="165" style="fill: none;stroke: #000;stroke-miterlimit: 10"/>
        <line x1="164.52" y1="189.81" x2="435.22" y2="189.81" style="fill: none;stroke: #000;stroke-miterlimit: 10"/>
        <line x1="157.27" y1="219" x2="443.56" y2="219" style="fill: none;stroke: #000;stroke-miterlimit: 10"/>
        <line x1="149" y1="248.19" x2="453.7" y2="248.19" style="fill: none;stroke: #000;stroke-miterlimit: 10"/>
        <line x1="140.73" y1="277.39" x2="459.92" y2="277.39" style="fill: none;stroke: #000;stroke-miterlimit: 10"/>
        <line x1="132.1" y1="306.58" x2="468.39" y2="306.58" style="fill: none;stroke: #000;stroke-miterlimit: 10"/>
      </g>
      <g style="opacity: 0.4;mix-blend-mode: screen">
        <line x1="172.33" y1="165.56" x2="429.33" y2="165.56" style="fill: none;stroke: #fff;stroke-miterlimit: 10"/>
        <line x1="164.52" y1="190.36" x2="435.22" y2="190.36" style="fill: none;stroke: #fff;stroke-miterlimit: 10"/>
        <line x1="157.27" y1="219.56" x2="443.56" y2="219.56" style="fill: none;stroke: #fff;stroke-miterlimit: 10"/>
        <line x1="149" y1="248.75" x2="453.7" y2="248.75" style="fill: none;stroke: #fff;stroke-miterlimit: 10"/>
        <line x1="140.73" y1="277.94" x2="459.92" y2="277.94" style="fill: none;stroke: #fff;stroke-miterlimit: 10"/>
        <line x1="132.1" y1="307.14" x2="468.39" y2="307.14" style="fill: none;stroke: #fff;stroke-miterlimit: 10"/>
      </g>
    </g>
    <g>
      <polygon points="53.5 254.5 125.5 334.5 179.5 140.5 421.5 140.5 475.5 334.5 547.5 254.5 454.5 54.5 146.5 54.5 53.5 254.5" style="fill: #9bdad9"/>
      <polygon points="454.94 54.66 146.28 54.66 178.97 140.71 422.25 140.71 454.94 54.66" style="opacity: 0.3;mix-blend-mode: multiply"/>
      <polygon points="125.5 334.5 53.5 254.5 145.5 54.5 179.5 140.5 125.5 334.5" style="opacity: 0.5;mix-blend-mode: multiply"/>
      <polygon points="475.5 334.5 547.5 254.5 455.5 54.5 421.5 140.5 475.5 334.5" style="opacity: 0.1;mix-blend-mode: multiply"/>
      <polygon points="53.5 254.5 547.5 254.5 475.5 334.5 125.5 334.5 53.5 254.5" style="fill: #9bdad9;opacity: 0.3"/>
    </g>
    <g>
      <polygon points="151 242 114.42 170.61 163.61 195.5 164.5 195.5 151 242" style="fill: #999;mix-blend-mode: multiply"/>
      <polygon points="467.5 122.5 486.58 170.61 451.51 239.51 438.42 193 467.5 122.5" style="fill: #8c6239"/>
      <polygon points="437.39 195.5 439.13 195.5 468.14 132.32 486.58 170.61 469.89 128.52 467.5 122.5 437.39 195.5" style="fill: #999;mix-blend-mode: multiply"/>
      <polygon points="133.5 122.5 114.42 170.61 149.49 239.51 163.61 195.5 133.5 122.5" style="fill: #42210b"/>
      <polygon points="163.61 195.5 161.88 195.5 132.86 132.32 114.42 170.61 131.11 128.52 133.5 122.5 163.61 195.5" style="opacity: 0.5;mix-blend-mode: multiply;fill: url(#c)"/>
      <polygon points="149.49 239.51 114.42 170.61 115.81 167.1 150.67 235.3 149.49 239.51" style="opacity: 0.5;mix-blend-mode: multiply;fill: url(#d)"/>
      <polygon points="451.26 187.62 448.69 183.04 452.9 173.69 456.5 178.77 451.26 187.62" style="fill: url(#e)"/>
      <path d="M454.88,181.84a2.93,2.93,0,1,1-5-2.94,3.29,3.29,0,0,1,3.91-1.5A3,3,0,0,1,454.88,181.84Z" style="fill: #999;opacity: 0.5;mix-blend-mode: multiply"/>
      <path d="M454.37,180.39a3.09,3.09,0,0,1-4.42,1.19,3,3,0,0,1-.46-3.94,3.28,3.28,0,0,1,3.82-1.53C454.86,176.72,455.43,178.67,454.37,180.39Z" style="fill: url(#f)"/>
    </g>
    <g>
      <rect x="280.12" y="83.26" width="55.48" height="50.68" rx="8.21" ry="8.21" style="fill: url(#g)"/>
      <path d="M331.79,118.49c8.08-14.36,1.64-37-22-37s-30.1,22.64-22,37c4.66,8.28,6.59,12.8,22,12.8S327.13,126.77,331.79,118.49Z" style="fill: gray;opacity: 0.4;mix-blend-mode: multiply"/>
      <ellipse cx="307.28" cy="173.69" rx="33.47" ry="25.88" style="opacity: 0.5;mix-blend-mode: multiply;fill: url(#h)"/>
      <ellipse cx="307.77" cy="178.81" rx="17.78" ry="10.71" style="fill: url(#i)"/>
      <ellipse cx="307.77" cy="154.95" rx="23.19" ry="25.4" style="fill: url(#j)"/>
      <path d="M322.95,140.33c3.35,6.63-2.72,14.62-15.18,14.62s-18.52-8-15.18-14.62c2.32-4.6,8.86-7.41,15.18-7.41S320.62,135.73,322.95,140.33Zm-15.18-11c-15.44,0-17.37,3.26-22,9.25-8.08,10.37-1.64,26.73,22,26.73s30.1-16.36,22-26.73C325.13,132.55,323.2,129.29,307.77,129.29Z" style="fill: url(#k)"/>
      <path d="M329.79,116.49c8.08-14.36,1.64-37-22-37s-30.1,22.64-22,37c4.66,8.28,6.59,12.8,22,12.8S325.13,124.77,329.79,116.49Z" style="fill: url(#l)"/>
      <path d="M325.82,138.74c0,10-8.08,15.73-18.05,15.73s-18.05-5.76-18.05-15.73a18.05,18.05,0,0,1,36.11,0Z" style="fill: url(#m)"/>
      <circle cx="299.35" cy="133.93" r="2.09"/>
      <circle cx="305.2" cy="138.02" r="2.09"/>
      <circle cx="298.11" cy="140.21" r="2.09"/>
      <path d="M308,124.64c6.3,0,11.61,3.7,13.29,8.77-.58-6.26-6.53-11.19-13.8-11.19-7.65,0-13.86,5.46-13.86,12.19C293.66,135.61,296,124.64,308,124.64Z" style="fill: #fff;opacity: 0.4;mix-blend-mode: screen"/>
    </g>
  </g>
</svg>
