<svg xmlns="http://www.w3.org/2000/svg" xmlns:xlink="http://www.w3.org/1999/xlink" width="600" height="400" viewBox="0 0 600 400">
  <defs>
    <linearGradient id="a" x1="173.71" y1="240.41" x2="157.22" y2="236.05" gradientUnits="userSpaceOnUse">
      <stop offset="0" stop-color="#fff"/>
      <stop offset="1"/>
    </linearGradient>
    <linearGradient id="b" x1="300.54" y1="148.67" x2="300.54" y2="142" xlink:href="#a"/>
    <linearGradient id="c" x1="184.37" y1="177.64" x2="114.86" y2="142.32" xlink:href="#a"/>
    <linearGradient id="d" x1="150.27" y1="212.26" x2="77.38" y2="175.22" gradientUnits="userSpaceOnUse">
      <stop offset="0.01" stop-color="#fff"/>
      <stop offset="1"/>
    </linearGradient>
  </defs>
  <title>room</title>
  <g style="isolation: isolate">
    <g>
      <polygon points="124.5 334.7 179.5 140.5 421.15 140.71 475.91 334.7 124.5 334.7" style="fill: #998675"/>
      <line x1="166.88" y1="334.5" x2="208.64" y2="140.71" style="fill: none;stroke: #000;stroke-miterlimit: 10;mix-blend-mode: overlay"/>
      <line x1="208.64" y1="334.7" x2="238.08" y2="139.78" style="fill: none;stroke: #000;stroke-miterlimit: 10;mix-blend-mode: overlay"/>
      <line x1="252.54" y1="333.76" x2="265.8" y2="140.39" style="fill: none;stroke: #000;stroke-miterlimit: 10;mix-blend-mode: overlay"/>
      <line x1="300" y1="334.7" x2="300.61" y2="139.78" style="fill: none;stroke: #000;stroke-miterlimit: 10;mix-blend-mode: overlay"/>
      <line x1="348.46" y1="334.7" x2="334.47" y2="140.71" style="fill: none;stroke: #000;stroke-miterlimit: 10;mix-blend-mode: overlay"/>
      <line x1="391.39" y1="333.76" x2="363.06" y2="140.71" style="fill: none;stroke: #000;stroke-miterlimit: 10;mix-blend-mode: overlay"/>
      <line x1="433.96" y1="333.76" x2="392.36" y2="140.71" style="fill: none;stroke: #000;stroke-miterlimit: 10;mix-blend-mode: overlay"/>
      <g style="opacity: 0.5;mix-blend-mode: screen">
        <line x1="167.88" y1="334.5" x2="209.64" y2="140.71" style="fill: none;stroke: #fff;stroke-miterlimit: 10;mix-blend-mode: overlay"/>
      </g>
      <g style="opacity: 0.5;mix-blend-mode: screen">
        <line x1="209.64" y1="334.7" x2="239.08" y2="139.78" style="fill: none;stroke: #fff;stroke-miterlimit: 10;mix-blend-mode: overlay"/>
      </g>
      <g style="opacity: 0.5;mix-blend-mode: screen">
        <line x1="253.54" y1="333.76" x2="266.8" y2="140.39" style="fill: none;stroke: #fff;stroke-miterlimit: 10;mix-blend-mode: overlay"/>
      </g>
      <g style="opacity: 0.5;mix-blend-mode: screen">
        <line x1="301" y1="334.7" x2="301.61" y2="139.78" style="fill: none;stroke: #fff;stroke-miterlimit: 10;mix-blend-mode: overlay"/>
      </g>
      <g style="opacity: 0.5;mix-blend-mode: screen">
        <line x1="349.46" y1="334.7" x2="335.47" y2="140.71" style="fill: none;stroke: #fff;stroke-miterlimit: 10;mix-blend-mode: overlay"/>
      </g>
      <g style="opacity: 0.5;mix-blend-mode: screen">
        <line x1="392.39" y1="333.76" x2="364.06" y2="140.71" style="fill: none;stroke: #fff;stroke-miterlimit: 10;mix-blend-mode: overlay"/>
      </g>
      <g style="opacity: 0.5;mix-blend-mode: screen">
        <line x1="434.96" y1="333.76" x2="393.36" y2="140.71" style="fill: none;stroke: #fff;stroke-miterlimit: 10;mix-blend-mode: overlay"/>
      </g>
      <polygon points="124.5 334.7 153.18 334.5 202.49 140.71 179.5 140.5 124.5 334.7" style="opacity: 0.3;mix-blend-mode: multiply;fill: url(#a)"/>
      <polygon points="179.5 140.5 421.15 140.71 424.23 150.02 176.85 150.02 179.5 140.5" style="opacity: 0.2;mix-blend-mode: multiply;fill: url(#b)"/>
      <g>
        <polygon points="401.97 177.2 197.49 177.2 178.79 283.87 426.25 283.87 401.97 177.2" style="fill: #5e0d8b;fill-rule: evenodd"/>
        <polygon points="394.67 184.77 205.19 184.77 191.25 273.13 413.23 273.13 394.67 184.77" style="fill: #f1e6f0;fill-rule: evenodd"/>
        <polygon points="404.93 263.67 200.19 263.67 210.73 191.07 390.45 191.07 404.93 263.67" style="fill: #d0adce;fill-rule: evenodd"/>
      </g>
      <polygon points="374.48 245.79 445.81 245.79 424 142.62 358.06 140.71 374.48 245.79" style="stroke: #fff;stroke-miterlimit: 10;stroke-width: 0.9763386260272355px;opacity: 0.3;mix-blend-mode: multiply"/>
    </g>
    <g>
      <polygon points="53.5 254.5 125.5 334.5 179.5 140.5 421.5 140.5 475.5 334.5 547.5 254.5 454.5 54.5 146.5 54.5 53.5 254.5" style="fill: #c9aad0"/>
      <polygon points="454.94 54.66 146.28 54.66 178.97 140.71 422.25 140.71 454.94 54.66" style="opacity: 0.3;mix-blend-mode: multiply"/>
      <polygon points="125.5 334.5 53.5 254.5 145.5 54.5 179.5 140.5 125.5 334.5" style="opacity: 0.5;mix-blend-mode: multiply"/>
      <polygon points="475.5 334.5 547.5 254.5 455.5 54.5 421.5 140.5 475.5 334.5" style="opacity: 0.1;mix-blend-mode: multiply"/>
      <polygon points="53.5 254.5 547.5 254.5 475.5 334.5 125.5 334.5 53.5 254.5" style="fill: #c9aad0;opacity: 0.3"/>
    </g>
    <g>
      <polygon points="151 242 114.42 170.61 163.61 195.5 164.5 195.5 151 242" style="fill: #999;mix-blend-mode: multiply"/>
      <polygon points="365.03 261.56 235.97 261.56 252.61 334.7 348.39 334.7 365.03 261.56" style="fill: #754c24"/>
      <polygon points="133.5 122.5 114.42 170.61 149.49 239.51 163.61 195.5 133.5 122.5" style="fill: #42210b"/>
      <polygon points="163.61 195.5 161.88 195.5 132.86 132.32 114.42 170.61 131.11 128.52 133.5 122.5 163.61 195.5" style="opacity: 0.5;mix-blend-mode: multiply;fill: url(#c)"/>
      <polygon points="238.08 255.67 235.97 261.56 365.03 261.56 363.06 255.67 238.08 255.67" style="fill: #a67c52"/>
      <polygon points="149.49 239.51 114.42 170.61 115.81 167.1 150.67 235.3 149.49 239.51" style="opacity: 0.5;mix-blend-mode: multiply;fill: url(#d)"/>
    </g>
    <g>
      <polygon points="358.71 148.02 357.13 100.46 434.68 101.74 421.23 147.39 358.71 148.02" style="fill: #754c24"/>
      <polygon points="451.87 217.79 375.67 217.79 360.61 120.02 426.81 120.02 451.87 217.79" style="fill: #f8b3c2"/>
      <polygon points="451.87 217.79 445.78 236.93 376.42 236.93 375.67 217.79 451.87 217.79" style="fill: #f38aa5"/>
      <polygon points="360.61 120.02 361.06 142.71 376.42 236.93 375.67 217.79 360.61 120.02" style="fill: #f6a1b7"/>
      <path d="M375.71,116.37s-4.59,5.91-3.05,15.42,6.69,13.37,6.69,13.37H402c15.88,0,20.33-2.12,20.33-2.12s2.12-5.34,1.28-13.82a27.08,27.08,0,0,0-5.47-13.88,111,111,0,0,0-20.08-1.8C383.57,113.54,375.71,116.37,375.71,116.37Z" style="fill: gray;opacity: 0.6;mix-blend-mode: multiply"/>
      <path d="M373.59,113.83s-4.59,5.91-3.05,15.42,6.69,13.37,6.69,13.37H399.9c15.88,0,20.33-2.12,20.33-2.12s2.12-5.34,1.28-13.82A27.08,27.08,0,0,0,416,112.8,111,111,0,0,0,396,111C381.45,111,373.59,113.83,373.59,113.83Z" style="fill: #f38aa5"/>
      <polygon points="376.42 244.15 375.67 210.99 451.87 210.99 443.56 245.79 440.45 245.79 445.59 215.88 379.53 216.39 379.17 243.69 376.42 244.15" style="fill: #754c24"/>
    </g>
  </g>
</svg>
