<svg xmlns="http://www.w3.org/2000/svg" xmlns:xlink="http://www.w3.org/1999/xlink" width="600" height="400" viewBox="0 0 600 400">
  <defs>
    <linearGradient id="a" x1="173.71" y1="240.41" x2="157.22" y2="236.05" gradientUnits="userSpaceOnUse">
      <stop offset="0" stop-color="#fff"/>
      <stop offset="1"/>
    </linearGradient>
    <linearGradient id="b" x1="300.54" y1="148.67" x2="300.54" y2="142" xlink:href="#a"/>
    <linearGradient id="c" x1="271.6" y1="101.74" x2="275.05" y2="115.28" gradientUnits="userSpaceOnUse">
      <stop offset="0.01" stop-color="#fff78f"/>
      <stop offset="1" stop-color="#b76e11"/>
    </linearGradient>
    <linearGradient id="d" x1="269.96" y1="133.11" x2="259.39" y2="77.41" xlink:href="#a"/>
    <linearGradient id="e" x1="327.08" y1="141.67" x2="252.33" y2="133.8" xlink:href="#a"/>
    <linearGradient id="f" x1="184.37" y1="177.64" x2="114.86" y2="142.32" xlink:href="#a"/>
    <linearGradient id="g" x1="150.27" y1="212.26" x2="77.38" y2="175.22" gradientUnits="userSpaceOnUse">
      <stop offset="0.01" stop-color="#fff"/>
      <stop offset="1"/>
    </linearGradient>
    <radialGradient id="h" cx="274.06" cy="111.47" r="2.97" xlink:href="#c"/>
    <linearGradient id="i" x1="750" y1="-441.26" x2="754.11" y2="-425.12" gradientTransform="translate(-413.35 150.74) rotate(31.6)" xlink:href="#c"/>
    <radialGradient id="j" cx="751.66" cy="-430.07" r="3.31" gradientTransform="translate(-413.35 150.74) rotate(31.6)" xlink:href="#c"/>
  </defs>
  <title>room</title>
  <g style="isolation: isolate">
    <g>
      <g>
        <polygon points="181.43 287.13 155.85 287.13 147.61 324.53 174.64 324.53 181.43 287.13" style="fill: red;stroke: #fff;stroke-miterlimit: 10;stroke-width: 0.9763386260272355px"/>
        <polygon points="214.43 287.13 188.85 287.13 182.49 324.53 209.52 324.53 214.43 287.13" style="fill: red;stroke: #fff;stroke-miterlimit: 10;stroke-width: 0.9763386260272355px"/>
        <polygon points="247.43 287.13 221.85 287.13 217.37 324.53 244.41 324.53 247.43 287.13" style="fill: red;stroke: #fff;stroke-miterlimit: 10;stroke-width: 0.9763386260272355px"/>
        <polygon points="280.44 287.13 254.86 287.13 252.25 324.53 279.29 324.53 280.44 287.13" style="fill: red;stroke: #fff;stroke-miterlimit: 10;stroke-width: 0.9763386260272355px"/>
        <polygon points="313.44 287.13 287.86 287.13 287.13 324.53 314.17 324.53 313.44 287.13" style="fill: red;stroke: #fff;stroke-miterlimit: 10;stroke-width: 0.9763386260272355px"/>
        <polygon points="346.44 287.13 320.87 287.13 322.02 324.53 349.05 324.53 346.44 287.13" style="fill: red;stroke: #fff;stroke-miterlimit: 10;stroke-width: 0.9763386260272355px"/>
        <polygon points="379.45 287.13 353.87 287.13 356.9 324.53 383.93 324.53 379.45 287.13" style="fill: red;stroke: #fff;stroke-miterlimit: 10;stroke-width: 0.9763386260272355px"/>
        <polygon points="412.45 287.13 386.87 287.13 391.78 324.53 418.81 324.53 412.45 287.13" style="fill: red;stroke: #fff;stroke-miterlimit: 10;stroke-width: 0.9763386260272355px"/>
        <polygon points="445.46 287.13 419.88 287.13 426.66 324.53 453.69 324.53 445.46 287.13" style="fill: red;stroke: #fff;stroke-miterlimit: 10;stroke-width: 0.9763386260272355px"/>
        <polygon points="188.92 245.79 164.96 245.79 157.75 278.52 182.99 278.52 188.92 245.79" style="fill: red;stroke: #fff;stroke-miterlimit: 10;stroke-width: 0.9763386260272355px"/>
        <polygon points="219.85 245.79 195.88 245.79 190.32 278.52 215.56 278.52 219.85 245.79" style="fill: red;stroke: #fff;stroke-miterlimit: 10;stroke-width: 0.9763386260272355px"/>
        <polygon points="250.78 245.79 226.81 245.79 222.89 278.52 248.13 278.52 250.78 245.79" style="fill: red;stroke: #fff;stroke-miterlimit: 10;stroke-width: 0.9763386260272355px"/>
        <polygon points="281.71 245.79 257.74 245.79 255.46 278.52 280.7 278.52 281.71 245.79" style="fill: red;stroke: #fff;stroke-miterlimit: 10;stroke-width: 0.9763386260272355px"/>
        <polygon points="312.64 245.79 288.67 245.79 288.03 278.52 313.27 278.52 312.64 245.79" style="fill: red;stroke: #fff;stroke-miterlimit: 10;stroke-width: 0.9763386260272355px"/>
        <polygon points="343.56 245.79 319.6 245.79 320.6 278.52 345.85 278.52 343.56 245.79" style="fill: red;stroke: #fff;stroke-miterlimit: 10;stroke-width: 0.9763386260272355px"/>
        <polygon points="374.49 245.79 350.52 245.79 353.17 278.52 378.42 278.52 374.49 245.79" style="fill: red;stroke: #fff;stroke-miterlimit: 10;stroke-width: 0.9763386260272355px"/>
        <polygon points="405.42 245.79 381.45 245.79 385.74 278.52 410.99 278.52 405.42 245.79" style="fill: red;stroke: #fff;stroke-miterlimit: 10;stroke-width: 0.9763386260272355px"/>
        <polygon points="436.35 245.79 412.38 245.79 418.31 278.52 443.56 278.52 436.35 245.79" style="fill: red;stroke: #fff;stroke-miterlimit: 10;stroke-width: 0.9763386260272355px"/>
        <polygon points="195.53 209.35 172.98 209.35 166.62 238.22 190.3 238.22 195.53 209.35" style="fill: red;stroke: #fff;stroke-miterlimit: 10;stroke-width: 0.9763386260272355px"/>
        <polygon points="224.63 209.35 202.08 209.35 197.17 238.22 220.85 238.22 224.63 209.35" style="fill: red;stroke: #fff;stroke-miterlimit: 10;stroke-width: 0.9763386260272355px"/>
        <polygon points="253.73 209.35 231.18 209.35 227.72 238.22 251.39 238.22 253.73 209.35" style="fill: red;stroke: #fff;stroke-miterlimit: 10;stroke-width: 0.9763386260272355px"/>
        <polygon points="282.83 209.35 260.28 209.35 258.27 238.22 281.94 238.22 282.83 209.35" style="fill: red;stroke: #fff;stroke-miterlimit: 10;stroke-width: 0.9763386260272355px"/>
        <polygon points="311.93 209.35 289.38 209.35 288.81 238.22 312.49 238.22 311.93 209.35" style="fill: red;stroke: #fff;stroke-miterlimit: 10;stroke-width: 0.9763386260272355px"/>
        <polygon points="341.03 209.35 318.47 209.35 319.36 238.22 343.04 238.22 341.03 209.35" style="fill: red;stroke: #fff;stroke-miterlimit: 10;stroke-width: 0.9763386260272355px"/>
        <polygon points="370.12 209.35 347.57 209.35 349.91 238.22 373.58 238.22 370.12 209.35" style="fill: red;stroke: #fff;stroke-miterlimit: 10;stroke-width: 0.9763386260272355px"/>
        <polygon points="399.22 209.35 376.67 209.35 380.46 238.22 404.13 238.22 399.22 209.35" style="fill: red;stroke: #fff;stroke-miterlimit: 10;stroke-width: 0.9763386260272355px"/>
        <polygon points="428.32 209.35 405.77 209.35 411.01 238.22 434.68 238.22 428.32 209.35" style="fill: red;stroke: #fff;stroke-miterlimit: 10;stroke-width: 0.9763386260272355px"/>
        <polygon points="201.41 176.97 180.12 176.97 174.46 202.64 196.75 202.64 201.41 176.97" style="fill: red;stroke: #fff;stroke-miterlimit: 10;stroke-width: 0.9763386260272355px"/>
        <polygon points="228.88 176.97 207.59 176.97 203.22 202.64 225.51 202.64 228.88 176.97" style="fill: red;stroke: #fff;stroke-miterlimit: 10;stroke-width: 0.9763386260272355px"/>
        <polygon points="256.35 176.97 235.06 176.97 231.98 202.64 254.28 202.64 256.35 176.97" style="fill: red;stroke: #fff;stroke-miterlimit: 10;stroke-width: 0.9763386260272355px"/>
        <polygon points="283.82 176.97 262.53 176.97 260.75 202.64 283.04 202.64 283.82 176.97" style="fill: red;stroke: #fff;stroke-miterlimit: 10;stroke-width: 0.9763386260272355px"/>
        <polygon points="311.3 176.97 290.01 176.97 289.51 202.64 311.8 202.64 311.3 176.97" style="fill: red;stroke: #fff;stroke-miterlimit: 10;stroke-width: 0.9763386260272355px"/>
        <polygon points="338.77 176.97 317.48 176.97 318.27 202.64 340.56 202.64 338.77 176.97" style="fill: red;stroke: #fff;stroke-miterlimit: 10;stroke-width: 0.9763386260272355px"/>
        <polygon points="366.24 176.97 344.95 176.97 347.03 202.64 369.32 202.64 366.24 176.97" style="fill: red;stroke: #fff;stroke-miterlimit: 10;stroke-width: 0.9763386260272355px"/>
        <polygon points="393.71 176.97 372.42 176.97 375.79 202.64 398.08 202.64 393.71 176.97" style="fill: red;stroke: #fff;stroke-miterlimit: 10;stroke-width: 0.9763386260272355px"/>
        <polygon points="421.19 176.97 399.9 176.97 404.55 202.64 426.84 202.64 421.19 176.97" style="fill: red;stroke: #fff;stroke-miterlimit: 10;stroke-width: 0.9763386260272355px"/>
        <polygon points="206.66 148.02 186.49 148.02 181.43 170.99 202.49 170.99 206.66 148.02" style="fill: red;stroke: #fff;stroke-miterlimit: 10;stroke-width: 0.9763386260272355px"/>
        <polygon points="232.68 148.02 212.51 148.02 208.61 170.99 229.66 170.99 232.68 148.02" style="fill: red;stroke: #fff;stroke-miterlimit: 10;stroke-width: 0.9763386260272355px"/>
        <polygon points="258.7 148.02 238.53 148.02 235.78 170.99 256.84 170.99 258.7 148.02" style="fill: red;stroke: #fff;stroke-miterlimit: 10;stroke-width: 0.9763386260272355px"/>
        <polygon points="284.71 148.02 264.55 148.02 262.95 170.99 284.01 170.99 284.71 148.02" style="fill: red;stroke: #fff;stroke-miterlimit: 10;stroke-width: 0.9763386260272355px"/>
        <polygon points="310.73 148.02 290.57 148.02 290.12 170.99 311.18 170.99 310.73 148.02" style="fill: red;stroke: #fff;stroke-miterlimit: 10;stroke-width: 0.9763386260272355px"/>
        <polygon points="336.75 148.02 316.59 148.02 317.29 170.99 338.35 170.99 336.75 148.02" style="fill: red;stroke: #fff;stroke-miterlimit: 10;stroke-width: 0.9763386260272355px"/>
        <polygon points="362.77 148.02 342.61 148.02 344.47 170.99 365.52 170.99 362.77 148.02" style="fill: red;stroke: #fff;stroke-miterlimit: 10;stroke-width: 0.9763386260272355px"/>
        <polygon points="388.79 148.02 368.63 148.02 371.64 170.99 392.7 170.99 388.79 148.02" style="fill: red;stroke: #fff;stroke-miterlimit: 10;stroke-width: 0.9763386260272355px"/>
        <polygon points="414.81 148.02 394.64 148.02 398.81 170.99 419.87 170.99 414.81 148.02" style="fill: red;stroke: #fff;stroke-miterlimit: 10;stroke-width: 0.9763386260272355px"/>
      </g>
      <polygon points="124.5 334.7 179.5 140.5 421.15 140.71 475.91 334.7 124.5 334.7" style="fill: #998675"/>
      <line x1="166.88" y1="334.5" x2="208.64" y2="140.71" style="fill: none;stroke: #000;stroke-miterlimit: 10;mix-blend-mode: overlay"/>
      <line x1="208.64" y1="334.7" x2="238.08" y2="139.78" style="fill: none;stroke: #000;stroke-miterlimit: 10;mix-blend-mode: overlay"/>
      <line x1="252.54" y1="333.76" x2="265.8" y2="140.39" style="fill: none;stroke: #000;stroke-miterlimit: 10;mix-blend-mode: overlay"/>
      <line x1="300" y1="334.7" x2="300.61" y2="139.78" style="fill: none;stroke: #000;stroke-miterlimit: 10;mix-blend-mode: overlay"/>
      <line x1="348.46" y1="334.7" x2="334.47" y2="140.71" style="fill: none;stroke: #000;stroke-miterlimit: 10;mix-blend-mode: overlay"/>
      <line x1="391.39" y1="333.76" x2="363.06" y2="140.71" style="fill: none;stroke: #000;stroke-miterlimit: 10;mix-blend-mode: overlay"/>
      <line x1="433.96" y1="333.76" x2="392.36" y2="140.71" style="fill: none;stroke: #000;stroke-miterlimit: 10;mix-blend-mode: overlay"/>
      <g style="opacity: 0.5;mix-blend-mode: screen">
        <line x1="167.88" y1="334.5" x2="209.64" y2="140.71" style="fill: none;stroke: #fff;stroke-miterlimit: 10;mix-blend-mode: overlay"/>
      </g>
      <g style="opacity: 0.5;mix-blend-mode: screen">
        <line x1="209.64" y1="334.7" x2="239.08" y2="139.78" style="fill: none;stroke: #fff;stroke-miterlimit: 10;mix-blend-mode: overlay"/>
      </g>
      <g style="opacity: 0.5;mix-blend-mode: screen">
        <line x1="253.54" y1="333.76" x2="266.8" y2="140.39" style="fill: none;stroke: #fff;stroke-miterlimit: 10;mix-blend-mode: overlay"/>
      </g>
      <g style="opacity: 0.5;mix-blend-mode: screen">
        <line x1="301" y1="334.7" x2="301.61" y2="139.78" style="fill: none;stroke: #fff;stroke-miterlimit: 10;mix-blend-mode: overlay"/>
      </g>
      <g style="opacity: 0.5;mix-blend-mode: screen">
        <line x1="349.46" y1="334.7" x2="335.47" y2="140.71" style="fill: none;stroke: #fff;stroke-miterlimit: 10;mix-blend-mode: overlay"/>
      </g>
      <g style="opacity: 0.5;mix-blend-mode: screen">
        <line x1="392.39" y1="333.76" x2="364.06" y2="140.71" style="fill: none;stroke: #fff;stroke-miterlimit: 10;mix-blend-mode: overlay"/>
      </g>
      <g style="opacity: 0.5;mix-blend-mode: screen">
        <line x1="434.96" y1="333.76" x2="393.36" y2="140.71" style="fill: none;stroke: #fff;stroke-miterlimit: 10;mix-blend-mode: overlay"/>
      </g>
      <polygon points="124.5 334.7 153.18 334.5 202.49 140.71 179.5 140.5 124.5 334.7" style="opacity: 0.3;mix-blend-mode: multiply;fill: url(#a)"/>
      <polygon points="179.5 140.5 421.15 140.71 424.23 150.02 176.85 150.02 179.5 140.5" style="opacity: 0.2;mix-blend-mode: multiply;fill: url(#b)"/>
    </g>
    <g>
      <g>
        <polygon points="401.97 177.2 197.49 177.2 178.79 283.87 426.25 283.87 401.97 177.2" style="fill: #006837;fill-rule: evenodd"/>
        <polygon points="394.67 184.77 205.19 184.77 191.25 273.13 413.23 273.13 394.67 184.77" style="fill: #39b54a;fill-rule: evenodd"/>
        <polygon points="404.93 263.67 200.19 263.67 210.73 191.07 390.45 191.07 404.93 263.67" style="fill: #009245;fill-rule: evenodd"/>
      </g>
      <polygon points="53.5 254.5 125.5 334.5 179.5 140.5 421.5 140.5 475.5 334.5 547.5 254.5 454.5 54.5 146.5 54.5 53.5 254.5" style="fill: #39b54a"/>
      <polygon points="454.94 54.66 146.28 54.66 178.97 140.71 422.25 140.71 454.94 54.66" style="opacity: 0.3;mix-blend-mode: multiply"/>
      <polygon points="125.5 334.5 53.5 254.5 146.5 54.5 179.5 140.5 125.5 334.5" style="opacity: 0.5;mix-blend-mode: multiply"/>
      <polygon points="475.5 334.5 547.5 254.5 455.5 54.5 421.5 140.5 475.5 334.5" style="opacity: 0.1;mix-blend-mode: multiply"/>
      <polygon points="53.5 254.5 547.5 254.5 475.5 334.5 125.5 334.5 53.5 254.5" style="fill: #39b54a;opacity: 0.3"/>
    </g>
    <g>
      <polygon points="265.82 140.71 260.21 71 340.79 71 335.2 140.68 265.82 140.71" style="fill: #754c24"/>
      <polygon points="277.42 118 271.48 118 270.48 107.83 277.42 107.83 277.42 118" style="fill: url(#c)"/>
      <polygon points="151 242 114.42 170.61 163.61 195.5 164.5 195.5 151 242" style="fill: #999;mix-blend-mode: multiply"/>
      <polygon points="467.5 122.5 486.58 170.61 451.51 239.51 438.42 193 467.5 122.5" style="fill: #8c6239"/>
      <polygon points="336.48 77 335.4 78 265.24 77.64 264.54 77 264.5 77 269.49 138.67 270.39 137.68 330 137 331.51 138.65 336.5 77 336.48 77" style="fill: none"/>
      <polygon points="336.5 75 331.51 136.65 335.2 140.68 340.84 71 340.79 71 336.48 75 336.5 75" style="fill: #ccc;mix-blend-mode: multiply"/>
      <polygon points="264.5 75 264.54 75 260.21 71 260.16 71 265.8 140.71 265.82 140.71 269.49 136.67 264.5 75" style="opacity: 0.7000000000000001;mix-blend-mode: multiply;fill: url(#d)"/>
      <polygon points="335.2 140.68 331.51 136.65 331.51 136.71 269.49 136.71 269.49 136.67 265.82 140.71 335.2 140.71 335.2 140.68" style="opacity: 0.5;mix-blend-mode: multiply;fill: url(#e)"/>
      <polygon points="336.48 75 340.79 71 260.21 71 264.54 75 336.48 75" style="fill: #4d4d4d;mix-blend-mode: multiply"/>
      <polygon points="437.39 195.5 439.13 195.5 468.14 132.32 486.58 170.61 469.89 128.52 467.5 122.5 437.39 195.5" style="fill: #999;mix-blend-mode: multiply"/>
      <polygon points="133.5 122.5 114.42 170.61 149.49 239.51 163.61 195.5 133.5 122.5" style="fill: #42210b"/>
      <polygon points="163.61 195.5 161.88 195.5 132.86 132.32 114.42 170.61 131.11 128.52 133.5 122.5 163.61 195.5" style="opacity: 0.5;mix-blend-mode: multiply;fill: url(#f)"/>
      <polygon points="149.49 239.51 114.42 170.61 115.81 167.1 150.67 235.3 149.49 239.51" style="opacity: 0.5;mix-blend-mode: multiply;fill: url(#g)"/>
      <circle cx="274.67" cy="112.5" r="2.75" style="fill: #999;opacity: 0.5;mix-blend-mode: multiply"/>
      <circle cx="274.23" cy="112.16" r="2.75" style="fill: url(#h)"/>
      <polygon points="451.26 187.62 448.69 183.04 452.9 173.69 456.5 178.77 451.26 187.62" style="fill: url(#i)"/>
      <path d="M454.88,181.84a2.93,2.93,0,1,1-5-2.94,3.29,3.29,0,0,1,3.91-1.5A3,3,0,0,1,454.88,181.84Z" style="fill: #999;opacity: 0.5;mix-blend-mode: multiply"/>
      <path d="M454.37,180.39a3.09,3.09,0,0,1-4.42,1.19,3,3,0,0,1-.46-3.94,3.28,3.28,0,0,1,3.82-1.53C454.86,176.72,455.43,178.67,454.37,180.39Z" style="fill: url(#j)"/>
    </g>
    <g>
      <g>
        <g>
          <g>
            <polygon points="422.46 159.43 366.77 159.43 385.61 70.38 460.4 71 422.46 159.43" style="fill: #c0966b"/>
            <polygon points="441.98 104.4 382.29 104.09 389.07 73.8 454.49 74.32 441.98 104.4" style="fill: #886541"/>
            <polygon points="453.69 76.25 388.64 75.74 389.07 73.8 454.49 74.32 453.69 76.25" style="fill: #d5b291"/>
            <polygon points="440.13 104.56 441.91 104.57 454.49 74.32 452.54 74.31 440.13 104.56" style="fill: #d5b291"/>
            <polygon points="430.18 132.78 375.9 132.65 381.45 107.87 440.42 108.16 430.18 132.78" style="fill: #886541"/>
            <polygon points="439.77 109.72 381.1 109.44 381.45 107.87 440.42 108.16 439.77 109.72" style="fill: #d5b291"/>
            <polygon points="428.51 132.91 430.12 132.92 440.42 108.16 438.66 108.15 428.51 132.91" style="fill: #d5b291"/>
            <polygon points="420.36 156.39 370.59 156.38 375.21 135.73 428.9 135.85 420.36 156.39" style="fill: #886541"/>
            <polygon points="428.36 137.15 374.92 137.04 375.21 135.73 428.9 135.85 428.36 137.15" style="fill: #d5b291"/>
            <polygon points="418.83 156.5 420.31 156.51 428.9 135.85 427.3 135.85 418.83 156.5" style="fill: #d5b291"/>
          </g>
          <g>
            <polygon points="387.57 104.07 382.63 104.04 385.8 89.95 390.96 89.98 387.57 104.07" style="fill: #ef5b25"/>
            <polygon points="387.57 104.07 385.1 104.06 388.38 89.97 390.96 89.98 387.57 104.07" style="fill: #be272c"/>
            <polygon points="388.21 101.42 383.23 101.39 385.25 92.36 390.38 92.39 388.21 101.42" style="fill: #ff5443"/>
            <polygon points="388.21 101.42 385.72 101.4 387.82 92.38 390.38 92.39 388.21 101.42" style="fill: #ff5443"/>
            <polygon points="388.3 101.02 383.31 101 383.15 101.71 388.13 101.74 388.3 101.02" style="fill: #6e2c3d"/>
            <polygon points="388.3 101.02 385.81 101.01 385.64 101.72 388.13 101.74 388.3 101.02" style="fill: #461933"/>
            <polygon points="390.56 91.64 385.42 91.61 385.25 92.37 390.38 92.4 390.56 91.64" style="fill: #6e2c3d"/>
            <polygon points="390.56 91.64 387.99 91.63 387.82 92.38 390.38 92.4 390.56 91.64" style="fill: #461933"/>
            <polygon points="389.37 104.08 387.57 104.07 391.81 86.61 393.71 86.63 389.37 104.08" style="fill: #efefef"/>
            <polygon points="389.37 104.08 388.47 104.07 392.76 86.62 393.71 86.63 389.37 104.08" style="fill: #c9c9c9"/>
            <polygon points="390.14 99.13 389.23 99.12 391.02 91.78 391.96 91.79 390.14 99.13" style="fill: #6e2c3d"/>
            <polygon points="390.14 99.13 389.69 99.12 391.49 91.78 391.96 91.79 390.14 99.13" style="fill: #461933"/>
            <polygon points="390.3 100.33 388.48 100.31 388.27 101.19 390.08 101.21 390.3 100.33" style="fill: #63c3ba"/>
            <polygon points="390.3 100.33 389.39 100.32 389.18 101.2 390.08 101.21 390.3 100.33" style="fill: #68a09f"/>
            <polygon points="391.17 104.09 389.38 104.08 393.72 86.63 395.61 86.64 391.17 104.09" style="fill: #efefef"/>
            <polygon points="391.17 104.09 390.27 104.08 394.67 86.64 395.61 86.64 391.17 104.09" style="fill: #c9c9c9"/>
            <polygon points="391.98 99.14 391.06 99.13 392.9 91.79 393.83 91.8 391.98 99.14" style="fill: #6e2c3d"/>
            <polygon points="391.98 99.14 391.52 99.13 393.37 91.8 393.83 91.8 391.98 99.14" style="fill: #461933"/>
            <polygon points="392.13 100.34 390.31 100.33 390.09 101.2 391.9 101.22 392.13 100.34" style="fill: #9664a8"/>
            <polygon points="392.13 100.34 391.22 100.33 391 101.21 391.9 101.22 392.13 100.34" style="fill: #90669f"/>
            <polygon points="401.52 104.19 396.41 104.16 401.28 86.08 406.68 86.12 401.52 104.19" style="fill: #e2af89"/>
            <polygon points="401.52 104.19 398.96 104.18 403.98 86.1 406.68 86.12 401.52 104.19" style="fill: #e2af89"/>
            <polygon points="402.98 99.07 397.79 99.04 399.29 93.49 404.56 93.52 402.98 99.07" style="fill: #efefef"/>
            <polygon points="402.98 99.07 400.38 99.06 401.92 93.51 404.56 93.52 402.98 99.07" style="fill: #c9c9c9"/>
            <polygon points="402.63 100.31 397.46 100.28 397.21 101.19 402.37 101.22 402.63 100.31" style="fill: #6e2c3d"/>
            <polygon points="394.15 104.15 392.34 103.99 399.34 86 401.25 86.19 394.15 104.15" style="fill: #efefef"/>
            <polygon points="394.15 104.15 393.24 104.07 400.3 86.09 401.25 86.19 394.15 104.15" style="fill: #c9c9c9"/>
            <polygon points="395.7 99.02 394.78 98.94 397.74 91.38 398.68 91.46 395.7 99.02" style="fill: #6e2c3d"/>
            <polygon points="395.7 99.02 395.24 98.98 398.21 91.42 398.68 91.46 395.7 99.02" style="fill: #461933"/>
            <polygon points="395.67 100.29 393.85 100.13 393.49 101.03 395.32 101.2 395.67 100.29" style="fill: #ef5b25"/>
            <polygon points="395.67 100.29 394.76 100.21 394.41 101.11 395.32 101.2 395.67 100.29" style="fill: #be272c"/>
          </g>
          <polygon points="405.45 104.13 401.62 104.11 406.23 88 410.25 88.03 405.45 104.13" style="fill: #8ac441"/>
          <polygon points="405.45 104.13 403.53 104.12 408.24 88.01 410.25 88.03 405.45 104.13" style="fill: #0c8f47"/>
          <polygon points="406.48 100.66 402.62 100.64 402.38 101.45 406.24 101.47 406.48 100.66" style="fill: #f9ae3b"/>
          <polygon points="406.48 100.66 404.55 100.65 404.31 101.46 406.24 101.47 406.48 100.66" style="fill: #f69120"/>
          <polygon points="409.38 90.92 405.4 90.89 405.15 91.76 409.13 91.78 409.38 90.92" style="fill: #f9ae3b"/>
          <polygon points="409.38 90.92 407.39 90.91 407.14 91.77 409.13 91.78 409.38 90.92" style="fill: #f69120"/>
          <polygon points="407.43 97.49 403.52 97.47 404.21 95.05 408.15 95.07 407.43 97.49" style="fill: #f9ae3b"/>
          <polygon points="407.43 97.49 405.47 97.48 406.18 95.06 408.15 95.07 407.43 97.49" style="fill: #f69120"/>
          <polygon points="407.94 104.31 405.4 104.29 409.74 89.74 412.39 89.76 407.94 104.31" style="fill: #e6c697"/>
          <polygon points="416.1 86.44 413.42 86.42 407.98 104.18 410.52 104.19 413.06 104.2 418.78 86.45 416.1 86.44" style="fill: #b43530"/>
          <polygon points="415.59 104.22 413.06 104.2 419.24 85.03 421.93 85.05 415.59 104.22" style="fill: #fff"/>
          <polygon points="418.64 104.23 415.59 104.22 421.46 86.47 424.69 86.5 418.64 104.23" style="fill: #463246"/>
          <polygon points="421.18 104.25 418.64 104.23 424.19 87.95 426.86 87.97 421.18 104.25" style="fill: #b43530"/>
          <polygon points="411.25 93.51 408.62 93.49 409.84 89.38 412.5 89.4 411.25 93.51" style="fill: #eca629"/>
          <polygon points="414.86 98.6 409.69 98.57 411.8 91.68 417.08 91.72 414.86 98.6" style="fill: #61868a"/>
          <polygon points="416.43 98.61 415.73 98.61 419.21 87.91 419.93 87.92 416.43 98.61" style="fill: #b43530"/>
          <polygon points="425.34 102.48 435.36 102.54 438.69 94.05 428.4 93.98 425.34 102.48" style="fill: #ea5e57"/>
          <polygon points="427.12 101.36 434.43 101.4 436.83 95.22 429.37 95.18 427.12 101.36" style="fill: #ffd9c2"/>
          <path d="M431.49,98.44c-.07.18.05.33.27.33a.58.58,0,0,0,.52-.32l.84-2.23c.07-.18-.05-.33-.27-.34a.58.58,0,0,0-.52.33Z" style="fill: #037e6d"/>
          <path d="M431.24,99.09a.57.57,0,0,0,.52-.33c.07-.18-.05-.33-.27-.33h-2.11a.57.57,0,0,0-.51.32c-.07.18.05.33.27.33Z" style="fill: #037e6d"/>
          <path d="M431.1,98.76a1,1,0,0,1,.86-.54c.36,0,.56.25.45.55a1,1,0,0,1-.86.54c-.36,0-.56-.25-.45-.55" style="fill: #6ba499"/>
          <polygon points="422.75 104.09 436.72 104.17 437.36 102.55 423.33 102.47 422.75 104.09" style="fill: #ea5e57"/>
        </g>
        <g>
          <g>
            <polygon points="423.54 120.22 424.19 132.31 425.81 131.95 425.12 119.85 423.54 120.22" style="fill: #203a49"/>
            <polygon points="426.88 119.44 425.12 119.85 425.81 131.95 427.39 131.6 426.88 119.44" style="fill: #344e5d"/>
            <polygon points="426.56 130.39 426.33 124.64 425.4 124.85 425.73 130.58 426.56 130.39" style="fill: #eec84d"/>
            <polygon points="425.4 124.85 424.61 125.03 424.88 130.77 425.73 130.58 425.4 124.85" style="fill: #dab439"/>
          </g>
          <g>
            <polygon points="420.94 116.74 415.31 132.29 417.23 132.29 422.96 116.75 420.94 116.74" style="fill: #ca3535"/>
            <polygon points="424.85 116.76 422.96 116.75 417.23 132.29 419.01 132.3 424.85 116.76" style="fill: #de4949"/>
            <polygon points="420.05 127.09 419.15 127.09 417.55 131.41 418.44 131.42 420.05 127.09" style="fill: #de4949"/>
            <polygon points="416.45 129.13 415.81 130.91 417.74 130.91 418.39 129.13 416.45 129.13" style="fill: #2f9d88"/>
            <polygon points="420.2 129.14 418.39 129.13 417.74 130.91 419.53 130.92 420.2 129.14" style="fill: #43b19c"/>
            <polygon points="416.66 128.55 416.38 129.31 418.32 129.32 418.61 128.55 416.66 128.55" style="fill: #203a49"/>
            <polygon points="420.42 128.56 418.61 128.55 418.32 129.32 420.13 129.32 420.42 128.56" style="fill: #344e5d"/>
          </g>
          <g>
            <polygon points="397.44 116.65 393.02 132.23 395.81 132.24 400.39 116.66 397.44 116.65" style="fill: #ca3535"/>
            <polygon points="403.1 116.67 400.39 116.66 395.81 132.24 398.38 132.24 403.1 116.67" style="fill: #de4949"/>
            <polygon points="398.64 127.03 397.35 127.02 396.07 131.36 397.34 131.36 398.64 127.03" style="fill: #de4949"/>
            <polygon points="393.92 129.06 393.41 130.85 396.22 130.85 396.74 129.07 393.92 129.06" style="fill: #2f9d88"/>
            <polygon points="399.34 129.08 396.74 129.07 396.22 130.85 398.8 130.86 399.34 129.08" style="fill: #43b19c"/>
            <polygon points="394.08 128.48 393.87 129.25 396.69 129.26 396.91 128.49 394.08 128.48" style="fill: #203a49"/>
            <polygon points="399.52 128.5 396.91 128.49 396.69 129.26 399.29 129.26 399.52 128.5" style="fill: #344e5d"/>
          </g>
          <g>
            <polygon points="420.12 117.09 418.39 117.08 413 132.28 414.65 132.29 420.12 117.09" style="fill: #eec84d"/>
            <polygon points="416.47 117.07 411.18 132.28 413 132.28 418.39 117.08 416.47 117.07" style="fill: #dab439"/>
            <polygon points="414.05 127.19 412.56 131.42 413.31 131.42 414.81 127.19 414.05 127.19" style="fill: #203a49"/>
            <polygon points="415.62 127.19 414.81 127.19 413.31 131.42 414.11 131.42 415.62 127.19" style="fill: #344e5d"/>
          </g>
          <g>
            <polygon points="414.11 116.63 408.8 132.27 409.67 132.27 415.03 116.63 414.11 116.63" style="fill: #ca3535"/>
            <polygon points="415.82 116.63 415.03 116.63 409.67 132.27 410.42 132.28 415.82 116.63" style="fill: #de4949"/>
            <g>
              <polygon points="413.8 122.48 413.02 122.47 411.69 126.36 412.46 126.36 413.8 122.48" style="fill: #344e5d"/>
              <polygon points="412.13 122.47 410.81 126.35 411.69 126.36 413.02 122.47 412.13 122.47" style="fill: #203a49"/>
            </g>
          </g>
          <g>
            <polygon points="410.9 121.12 407.17 132.27 408.03 132.27 411.78 121.12 410.9 121.12" style="fill: #dab439"/>
            <polygon points="412.58 121.12 411.78 121.12 408.03 132.27 408.8 132.27 412.58 121.12" style="fill: #eec84d"/>
            <g>
              <polygon points="410.28 122.97 409.74 124.59 410.61 124.59 411.16 122.97 410.28 122.97" style="fill: #203a49"/>
              <polygon points="411.95 122.97 411.16 122.97 410.61 124.59 411.4 124.59 411.95 122.97" style="fill: #344e5d"/>
            </g>
          </g>
          <g>
            <polygon points="409.27 116.4 404.09 132.26 405.75 132.26 410.97 116.4 409.27 116.4" style="fill: #e3ddd2"/>
            <polygon points="412.52 116.41 410.97 116.4 405.75 132.26 407.17 132.27 412.52 116.41" style="fill: #f7f1e6"/>
            <polygon points="408.6 118.66 408.09 120.22 409.71 120.23 410.22 118.67 408.6 118.66" style="fill: #203a49"/>
            <polygon points="411.76 118.67 410.22 118.67 409.71 120.23 411.24 120.23 411.76 118.67" style="fill: #344e5d"/>
            <polygon points="411.3 120.07 409.76 120.06 409.55 120.73 411.07 120.73 411.3 120.07" style="fill: #eec84d"/>
            <polygon points="408.15 120.06 407.93 120.72 409.55 120.73 409.76 120.06 408.15 120.06" style="fill: #dab439"/>
          </g>
          <g>
            <polygon points="406.84 119.71 402.84 132.25 403.51 132.26 407.53 119.71 406.84 119.71" style="fill: #344e5d"/>
            <polygon points="408.15 119.72 407.53 119.71 403.51 132.26 404.1 132.26 408.15 119.72" style="fill: #344e5d"/>
          </g>
          <g>
            <polygon points="405.54 119.71 401.6 132.25 402.21 132.25 406.18 119.71 405.54 119.71" style="fill: #ca3535"/>
            <polygon points="406.84 119.71 406.18 119.71 402.21 132.25 402.85 132.25 406.84 119.71" style="fill: #ca3535"/>
          </g>
          <g>
            <polygon points="402.14 119.69 398.34 132.24 400.08 132.25 403.95 119.7 402.14 119.69" style="fill: #dab439"/>
            <polygon points="405.52 119.71 403.95 119.7 400.08 132.25 401.58 132.25 405.52 119.71" style="fill: #eec84d"/>
          </g>
          <g>
            <polygon points="389.8 119.17 386.4 132.21 387.79 132.22 391.25 119.18 389.8 119.17" style="fill: #ca3535"/>
            <polygon points="392.54 119.19 391.25 119.18 387.79 132.22 389.03 132.22 392.54 119.19" style="fill: #de4949"/>
            <g>
              <polygon points="387.48 128.07 387.4 128.38 388.81 128.39 388.89 128.08 387.48 128.07" style="fill: #dab439"/>
              <polygon points="390.14 128.08 388.89 128.08 388.81 128.39 390.06 128.39 390.14 128.08" style="fill: #eec84d"/>
              <polygon points="386.93 130.19 386.85 130.5 388.24 130.51 388.33 130.2 386.93 130.19" style="fill: #dab439"/>
              <polygon points="389.57 130.2 388.33 130.2 388.24 130.51 389.49 130.51 389.57 130.2" style="fill: #eec84d"/>
              <polygon points="387.4 128.38 386.93 130.19 388.33 130.2 388.81 128.39 387.4 128.38" style="fill: #203a49"/>
              <polygon points="390.06 128.39 388.81 128.39 388.33 130.2 389.57 130.2 390.06 128.39" style="fill: #344e5d"/>
            </g>
          </g>
          <g>
            <polygon points="387.05 119.16 383.77 132.21 385.13 132.21 388.47 119.17 387.05 119.16" style="fill: #cd662a"/>
            <polygon points="389.79 119.17 388.47 119.17 385.13 132.21 386.4 132.21 389.79 119.17" style="fill: #e17a3e"/>
            <g>
              <polygon points="386.02 123.24 385.94 123.56 387.35 123.57 387.43 123.25 386.02 123.24" style="fill: #dab439"/>
              <polygon points="388.73 123.25 387.43 123.25 387.35 123.57 388.65 123.57 388.73 123.25" style="fill: #eec84d"/>
              <polygon points="386.58 121.01 386.5 121.34 387.91 121.35 388 121.02 386.58 121.01" style="fill: #dab439"/>
              <polygon points="389.31 121.02 388 121.02 387.91 121.35 389.23 121.35 389.31 121.02" style="fill: #eec84d"/>
              <polygon points="386.5 121.34 386.02 123.24 387.43 123.25 387.91 121.35 386.5 121.34" style="fill: #203a49"/>
              <polygon points="389.23 121.35 387.91 121.35 387.43 123.25 388.73 123.25 389.23 121.35" style="fill: #344e5d"/>
            </g>
          </g>
          <g>
            <polygon points="395.26 119.19 393.94 119.19 390.36 132.22 391.63 132.23 395.26 119.19" style="fill: #43b19c"/>
            <polygon points="392.52 119.19 389 132.22 390.36 132.22 393.94 119.19 392.52 119.19" style="fill: #43b19c"/>
            <g>
              <polygon points="391.42 123.26 391.33 123.58 392.73 123.59 392.82 123.27 391.42 123.26" style="fill: #eec84d"/>
              <polygon points="394.13 123.27 392.82 123.27 392.73 123.59 394.04 123.59 394.13 123.27" style="fill: #eec84d"/>
              <polygon points="392.02 121.03 391.93 121.36 393.34 121.37 393.43 121.04 392.02 121.03" style="fill: #dab439"/>
              <polygon points="394.75 121.04 393.43 121.04 393.34 121.37 394.65 121.37 394.75 121.04" style="fill: #eec84d"/>
              <polygon points="394.65 121.37 393.34 121.37 392.82 123.27 394.13 123.27 394.65 121.37" style="fill: #344e5d"/>
              <polygon points="391.93 121.36 391.42 123.26 392.82 123.27 393.34 121.37 391.93 121.36" style="fill: #203a49"/>
            </g>
          </g>
          <g>
            <polygon points="385.09 116.51 381.29 132.2 382.19 132.2 386.04 116.51 385.09 116.51" style="fill: #ca3535"/>
            <polygon points="386.81 116.52 386.04 116.51 382.19 132.2 382.92 132.21 386.81 116.52" style="fill: #de4949"/>
            <g>
              <polygon points="383.67 122.37 382.73 126.27 383.64 126.27 384.6 122.38 383.67 122.37" style="fill: #dab439"/>
              <polygon points="385.36 122.38 384.6 122.38 383.64 126.27 384.39 126.27 385.36 122.38" style="fill: #eec84d"/>
            </g>
          </g>
          <g>
            <polygon points="383.09 121.02 382.29 121.01 379.64 132.2 380.42 132.2 383.09 121.02" style="fill: #43b19c"/>
            <polygon points="381.4 121.01 378.79 132.19 379.64 132.2 382.29 121.01 381.4 121.01" style="fill: #2f9d88"/>
            <g>
              <polygon points="382.65 122.87 381.85 122.87 381.46 124.5 382.26 124.5 382.65 122.87" style="fill: #344e5d"/>
              <polygon points="380.96 122.87 380.59 124.49 381.46 124.5 381.85 122.87 380.96 122.87" style="fill: #203a49"/>
            </g>
          </g>
          <g>
            <polygon points="379.7 121 377.15 132.19 377.93 132.19 380.51 121.01 379.7 121" style="fill: #203a49"/>
            <polygon points="381.4 121.01 380.51 121.01 377.93 132.19 378.78 132.19 381.4 121.01" style="fill: #344e5d"/>
            <g>
              <polygon points="379.28 122.86 378.91 124.49 379.71 124.49 380.08 122.86 379.28 122.86" style="fill: #dab439"/>
              <polygon points="380.96 122.87 380.08 122.86 379.71 124.49 380.58 124.49 380.96 122.87" style="fill: #eec84d"/>
            </g>
          </g>
        </g>
        <g>
          <g>
            <polygon points="374.2 146.43 371.89 156.52 373.05 156.52 375.41 146.43 374.2 146.43" style="fill: #203a49"/>
            <polygon points="376.57 146.43 375.41 146.43 373.05 156.52 374.17 156.52 376.57 146.43" style="fill: #344e5d"/>
            <g>
              <polygon points="374.94 153.28 373.81 153.28 373.4 155.03 374.52 155.03 374.94 153.28" style="fill: #43b19c"/>
              <polygon points="372.63 153.28 372.23 155.03 373.4 155.03 373.81 153.28 372.63 153.28" style="fill: #2f9d88"/>
            </g>
            <g>
              <polygon points="375.36 151.52 374.22 151.52 373.81 153.28 374.94 153.28 375.36 151.52" style="fill: #eec84d"/>
              <polygon points="373.04 151.51 372.63 153.28 373.81 153.28 374.22 151.52 373.04 151.51" style="fill: #dab439"/>
            </g>
            <g>
              <polygon points="373.44 149.72 373.04 151.51 374.22 151.52 374.64 149.72 373.44 149.72" style="fill: #cd662a"/>
              <polygon points="375.78 149.72 374.64 149.72 374.22 151.52 375.36 151.52 375.78 149.72" style="fill: #e17a3e"/>
            </g>
            <g>
              <polygon points="373.86 147.91 373.44 149.72 374.64 149.72 375.06 147.91 373.86 147.91" style="fill: #ca3535"/>
              <polygon points="376.21 147.91 375.06 147.91 374.64 149.72 375.78 149.72 376.21 147.91" style="fill: #de4949"/>
            </g>
          </g>
          <g>
            <polygon points="376.59 146.34 374.17 156.52 375.57 156.52 378.05 146.34 376.59 146.34" style="fill: #ca3535"/>
            <polygon points="379.4 146.34 378.05 146.34 375.57 156.52 376.87 156.52 379.4 146.34" style="fill: #de4949"/>
            <polygon points="375.65 153.08 374.96 155.94 375.71 155.94 376.41 153.08 375.65 153.08" style="fill: #ca3535"/>
            <polygon points="376.88 153.08 376.41 153.08 375.71 155.94 376.18 155.94 376.88 153.08" style="fill: #de4949"/>
            <polygon points="374.67 154.43 374.39 155.6 375.79 155.6 376.08 154.43 374.67 154.43" style="fill: #2f9d88"/>
            <polygon points="377.39 154.43 376.08 154.43 375.79 155.6 377.1 155.6 377.39 154.43" style="fill: #43b19c"/>
            <polygon points="374.76 154.04 374.64 154.55 376.05 154.55 376.17 154.04 374.76 154.04" style="fill: #203a49"/>
            <polygon points="377.49 154.04 376.17 154.04 376.05 154.55 377.36 154.55 377.49 154.04" style="fill: #344e5d"/>
          </g>
          <g>
            <polygon points="379.84 146.57 377.35 156.52 378.52 156.52 381.06 146.57 379.84 146.57" style="fill: #dab439"/>
            <polygon points="382.46 146.57 381.06 146.57 378.52 156.52 379.88 156.52 382.46 146.57" style="fill: #eec84d"/>
            <polygon points="378.82 153.15 378.11 155.95 378.67 155.95 379.38 153.15 378.82 153.15" style="fill: #203a49"/>
            <polygon points="379.96 153.15 379.38 153.15 378.67 155.95 379.24 155.95 379.96 153.15" style="fill: #344e5d"/>
          </g>
          <g>
            <polygon points="383.11 146.29 380.43 156.52 381.04 156.52 383.74 146.29 383.11 146.29" style="fill: #ca3535"/>
            <polygon points="384.34 146.29 383.74 146.29 381.04 156.52 381.61 156.52 384.34 146.29" style="fill: #de4949"/>
            <g>
              <polygon points="382.12 150.08 381.46 152.62 382.07 152.62 382.74 150.08 382.12 150.08" style="fill: #203a49"/>
              <polygon points="383.33 150.08 382.74 150.08 382.07 152.62 382.66 152.62 383.33 150.08" style="fill: #344e5d"/>
            </g>
          </g>
          <g>
            <polygon points="383.57 149.2 381.62 156.52 382.2 156.52 384.17 149.2 383.57 149.2" style="fill: #dab439"/>
            <polygon points="384.78 149.2 384.17 149.2 382.2 156.52 382.8 156.52 384.78 149.2" style="fill: #eec84d"/>
            <g>
              <polygon points="384.45 150.41 383.84 150.41 383.56 151.46 384.17 151.47 384.45 150.41" style="fill: #344e5d"/>
              <polygon points="383.25 150.41 382.96 151.46 383.56 151.46 383.84 150.41 383.25 150.41" style="fill: #203a49"/>
            </g>
          </g>
          <g>
            <polygon points="385.57 146.16 382.8 156.52 383.87 156.52 386.72 146.16 385.57 146.16" style="fill: #e3ddd2"/>
            <polygon points="387.9 146.16 386.72 146.16 383.87 156.52 385.04 156.52 387.9 146.16" style="fill: #f7f1e6"/>
            <polygon points="385.17 147.62 384.9 148.63 386.04 148.63 386.32 147.62 385.17 147.62" style="fill: #203a49"/>
            <polygon points="387.44 147.62 386.32 147.62 386.04 148.63 387.16 148.63 387.44 147.62" style="fill: #344e5d"/>
            <polygon points="384.93 148.52 384.81 148.95 385.95 148.95 386.07 148.52 384.93 148.52" style="fill: #dab439"/>
            <polygon points="387.19 148.53 386.07 148.52 385.95 148.95 387.07 148.95 387.19 148.53" style="fill: #eec84d"/>
          </g>
          <g>
            <polygon points="387.33 148.3 385.03 156.52 385.47 156.52 387.78 148.3 387.33 148.3" style="fill: #203a49"/>
            <polygon points="388.27 148.31 387.78 148.3 385.47 156.52 385.94 156.52 388.27 148.31" style="fill: #344e5d"/>
          </g>
          <g>
            <polygon points="388.27 148.31 385.94 156.52 386.38 156.52 388.72 148.31 388.27 148.31" style="fill: #ca3535"/>
            <polygon points="389.2 148.31 388.72 148.31 386.38 156.52 386.85 156.53 389.2 148.31" style="fill: #de4949"/>
          </g>
          <g>
            <polygon points="389.22 148.31 386.86 156.53 387.41 156.53 389.79 148.31 389.22 148.31" style="fill: #dab439"/>
            <polygon points="390.41 148.31 389.79 148.31 387.41 156.53 388.02 156.53 390.41 148.31" style="fill: #eec84d"/>
          </g>
          <g>
            <polygon points="391.82 145.23 388.51 156.53 391.36 156.53 394.8 145.23 391.82 145.23" style="fill: #203a49"/>
            <polygon points="397.78 145.24 394.8 145.23 391.36 156.53 394.22 156.53 397.78 145.24" style="fill: #344e5d"/>
            <polygon points="391.4 146.64 391.26 147.11 394.23 147.11 394.37 146.64 391.4 146.64" style="fill: #2f9d88"/>
            <polygon points="397.33 146.65 394.37 146.64 394.23 147.11 397.18 147.11 397.33 146.65" style="fill: #43b19c"/>
            <polygon points="390.96 148.12 390.83 148.59 393.78 148.59 393.92 148.13 390.96 148.12" style="fill: #dab439"/>
            <polygon points="396.86 148.13 393.92 148.13 393.78 148.59 396.72 148.59 396.86 148.13" style="fill: #eec84d"/>
            <polygon points="390.53 149.59 390.4 150.05 393.33 150.05 393.47 149.59 390.53 149.59" style="fill: #cd662a"/>
            <polygon points="396.4 149.59 393.47 149.59 393.33 150.05 396.26 150.05 396.4 149.59" style="fill: #e17a3e"/>
            <polygon points="390.11 151.04 389.98 151.49 392.89 151.49 393.03 151.04 390.11 151.04" style="fill: #ca3535"/>
            <polygon points="395.94 151.04 393.03 151.04 392.89 151.49 395.8 151.5 395.94 151.04" style="fill: #de4949"/>
          </g>
          <g>
            <polygon points="414.64 145.26 410.39 156.53 411.24 156.53 415.54 145.26 414.64 145.26" style="fill: #203a49"/>
            <polygon points="416.55 145.26 415.54 145.26 411.24 156.53 412.22 156.53 416.55 145.26" style="fill: #344e5d"/>
            <polygon points="414.11 146.67 413.94 147.13 414.82 147.13 415 146.67 414.11 146.67" style="fill: #2f9d88"/>
            <polygon points="416.01 146.67 415 146.67 414.82 147.13 415.83 147.13 416.01 146.67" style="fill: #43b19c"/>
            <polygon points="413.55 148.15 413.38 148.61 414.26 148.61 414.44 148.15 413.55 148.15" style="fill: #dab439"/>
            <polygon points="415.44 148.15 414.44 148.15 414.26 148.61 415.26 148.61 415.44 148.15" style="fill: #eec84d"/>
            <polygon points="413 149.61 412.83 150.07 413.71 150.07 413.88 149.61 413 149.61" style="fill: #cd662a"/>
            <polygon points="414.88 149.61 413.88 149.61 413.71 150.07 414.7 150.07 414.88 149.61" style="fill: #e17a3e"/>
            <polygon points="412.45 151.06 412.28 151.51 413.16 151.51 413.33 151.06 412.45 151.06" style="fill: #ca3535"/>
            <polygon points="414.32 151.06 413.33 151.06 413.16 151.51 414.15 151.51 414.32 151.06" style="fill: #de4949"/>
          </g>
          <g>
            <polygon points="399.35 148.01 396.58 156.53 397.5 156.53 400.3 148.01 399.35 148.01" style="fill: #ca3535"/>
            <polygon points="401.31 148.01 400.3 148.01 397.5 156.53 398.48 156.53 401.31 148.01" style="fill: #de4949"/>
            <g>
              <polygon points="397.47 153.8 397.4 154 398.33 154 398.4 153.8 397.47 153.8" style="fill: #dab439"/>
              <polygon points="399.39 153.8 398.4 153.8 398.33 154 399.32 154 399.39 153.8" style="fill: #eec84d"/>
              <polygon points="397.02 155.19 396.95 155.4 397.88 155.4 397.94 155.19 397.02 155.19" style="fill: #dab439"/>
              <polygon points="398.92 155.19 397.94 155.19 397.88 155.4 398.86 155.4 398.92 155.19" style="fill: #eec84d"/>
              <polygon points="397.4 154 397.02 155.19 397.94 155.19 398.33 154 397.4 154" style="fill: #203a49"/>
              <polygon points="399.32 154 398.33 154 397.94 155.19 398.92 155.19 399.32 154" style="fill: #344e5d"/>
            </g>
          </g>
          <g>
            <polygon points="401.31 148.01 398.49 156.53 399.4 156.53 402.26 148.01 401.31 148.01" style="fill: #cd662a"/>
            <polygon points="403.27 148.01 402.26 148.01 399.4 156.53 400.38 156.53 403.27 148.01" style="fill: #e17a3e"/>
            <g>
              <polygon points="400.43 150.65 400.36 150.86 401.3 150.86 401.37 150.65 400.43 150.65" style="fill: #dab439"/>
              <polygon points="402.37 150.65 401.37 150.65 401.3 150.86 402.3 150.86 402.37 150.65" style="fill: #eec84d"/>
              <polygon points="400.91 149.21 400.84 149.42 401.79 149.42 401.86 149.21 400.91 149.21" style="fill: #dab439"/>
              <polygon points="402.86 149.21 401.86 149.21 401.79 149.42 402.79 149.42 402.86 149.21" style="fill: #eec84d"/>
              <polygon points="400.84 149.42 400.43 150.65 401.37 150.65 401.79 149.42 400.84 149.42" style="fill: #203a49"/>
              <polygon points="402.79 149.42 401.79 149.42 401.37 150.65 402.37 150.65 402.79 149.42" style="fill: #344e5d"/>
            </g>
          </g>
          <g>
            <polygon points="397.4 148.01 394.7 156.53 395.69 156.53 398.42 148.01 397.4 148.01" style="fill: #2f9d88"/>
            <polygon points="399.36 148.01 398.42 148.01 395.69 156.53 396.6 156.53 399.36 148.01" style="fill: #43b19c"/>
            <g>
              <polygon points="396.57 150.65 396.5 150.86 397.51 150.86 397.57 150.65 396.57 150.65" style="fill: #dab439"/>
              <polygon points="398.51 150.65 397.57 150.65 397.51 150.86 398.44 150.86 398.51 150.65" style="fill: #eec84d"/>
              <polygon points="397.02 149.2 396.96 149.42 397.97 149.42 398.04 149.21 397.02 149.2" style="fill: #dab439"/>
              <polygon points="398.98 149.21 398.04 149.21 397.97 149.42 398.91 149.42 398.98 149.21" style="fill: #eec84d"/>
              <polygon points="396.96 149.42 396.57 150.65 397.57 150.65 397.97 149.42 396.96 149.42" style="fill: #203a49"/>
              <polygon points="398.91 149.42 397.97 149.42 397.57 150.65 398.51 150.65 398.91 149.42" style="fill: #344e5d"/>
            </g>
          </g>
          <g>
            <polygon points="404.49 146.31 401 156.53 401.6 156.53 405.1 146.32 404.49 146.31" style="fill: #ca3535"/>
            <polygon points="405.71 146.32 405.1 146.32 401.6 156.53 402.18 156.53 405.71 146.32" style="fill: #de4949"/>
            <g>
              <polygon points="403.19 150.09 402.33 152.63 402.94 152.63 403.81 150.1 403.19 150.09" style="fill: #dab439"/>
              <polygon points="404.4 150.1 403.81 150.1 402.94 152.63 403.52 152.63 404.4 150.1" style="fill: #eec84d"/>
            </g>
          </g>
          <g>
            <polygon points="405.35 149.22 402.8 156.53 403.37 156.53 405.93 149.22 405.35 149.22" style="fill: #2f9d88"/>
            <polygon points="406.56 149.22 405.93 149.22 403.37 156.53 403.98 156.53 406.56 149.22" style="fill: #43b19c"/>
            <g>
              <polygon points="404.93 150.42 404.56 151.48 405.14 151.48 405.51 150.43 404.93 150.42" style="fill: #203a49"/>
              <polygon points="406.13 150.43 405.51 150.43 405.14 151.48 405.76 151.48 406.13 150.43" style="fill: #344e5d"/>
            </g>
          </g>
          <g>
            <polygon points="406.56 149.22 403.98 156.53 404.6 156.53 407.19 149.22 406.56 149.22" style="fill: #203a49"/>
            <polygon points="407.77 149.22 407.19 149.22 404.6 156.53 405.15 156.53 407.77 149.22" style="fill: #344e5d"/>
            <g>
              <polygon points="406.13 150.43 405.76 151.48 406.39 151.48 406.77 150.43 406.13 150.43" style="fill: #dab439"/>
              <polygon points="407.34 150.43 406.77 150.43 406.39 151.48 406.96 151.48 407.34 150.43" style="fill: #eec84d"/>
            </g>
          </g>
          <g>
            <polygon points="407.75 149.22 405.14 156.53 405.7 156.53 408.33 149.22 407.75 149.22" style="fill: #ca3535"/>
            <polygon points="408.96 149.22 408.33 149.22 405.7 156.53 406.32 156.53 408.96 149.22" style="fill: #de4949"/>
            <g>
              <polygon points="408.53 150.43 407.9 150.43 407.52 151.48 408.14 151.48 408.53 150.43" style="fill: #344e5d"/>
              <polygon points="407.32 150.43 406.95 151.48 407.52 151.48 407.9 150.43 407.32 150.43" style="fill: #203a49"/>
            </g>
          </g>
          <g>
            <polygon points="413.15 149.23 412.53 149.23 409.79 156.53 410.4 156.53 413.15 149.23" style="fill: #eec84d"/>
            <polygon points="411.94 149.23 409.22 156.53 409.79 156.53 412.53 149.23 411.94 149.23" style="fill: #dab439"/>
            <g>
              <polygon points="411.5 150.43 411.1 151.49 411.68 151.49 412.08 150.43 411.5 150.43" style="fill: #203a49"/>
              <polygon points="412.7 150.43 412.08 150.43 411.68 151.49 412.3 151.49 412.7 150.43" style="fill: #344e5d"/>
            </g>
          </g>
          <g>
            <polygon points="413.35 145.48 411.82 145.48 407.77 156.53 409.23 156.53 413.35 145.48" style="fill: #43b19c"/>
            <polygon points="410.31 145.48 406.31 156.53 407.77 156.53 411.82 145.48 410.31 145.48" style="fill: #2f9d88"/>
            <line x1="410.02" y1="154.4" x2="410.23" y2="153.85" style="fill: #344e5d"/>
            <line x1="407.28" y1="153.85" x2="407.08" y2="154.39" style="fill: #344e5d"/>
            <g>
              <polygon points="407.95 156.53 408.64 156.53 412.74 145.48 412.02 145.48 407.95 156.53" style="fill: #de4949"/>
              <polygon points="406.86 156.53 407.55 156.53 411.61 145.47 410.88 145.47 406.86 156.53" style="fill: #dab439"/>
            </g>
          </g>
          <g>
            <polygon points="416.37 145.75 415.66 156.53 417.18 156.33 417.85 145.54 416.37 145.75" style="fill: #ca3535"/>
            <polygon points="419.51 145.31 417.85 145.54 417.18 156.33 418.67 156.13 419.51 145.31" style="fill: #de4949"/>
            <line x1="418.83" y1="154.04" x2="418.87" y2="153.5" style="fill: #344e5d"/>
            <line x1="415.83" y1="153.91" x2="415.8" y2="154.45" style="fill: #344e5d"/>
            <g>
              <polygon points="418.06 156.21 418.88 145.4 418.14 145.5 417.35 156.31 418.06 156.21" style="fill: #eec84d"/>
              <polygon points="416.96 145.66 416.22 156.46 416.94 156.36 417.71 145.56 416.96 145.66" style="fill: #dab439"/>
            </g>
          </g>
        </g>
      </g>
      <g>
        <g>
          <polygon points="177.3 169.01 218.42 169.01 218.42 66.03 144.23 66.03 177.3 169.01" style="fill: #cea981;fill-rule: evenodd"/>
          <polygon points="175.27 146.96 213.36 146.96 210.9 73.91 154.28 73.91 175.27 146.96" style="fill: #834f2f;fill-rule: evenodd"/>
          <polygon points="178.71 158.91 213.77 158.91 213.48 150.4 176.26 150.4 178.71 158.91" style="fill: #ffd679;fill-rule: evenodd"/>
          <path d="M214.15,159.14H178.39l-2.61-9h38.09ZM179,158.68h34.35l-.29-8H176.74Z" style="fill: #c26f40"/>
          <polygon points="180.89 166.48 214.02 166.48 213.77 158.91 178.71 158.91 180.89 166.48" style="fill: #ffd679;fill-rule: evenodd"/>
          <path d="M214.39,166.69h-33.8l-2.32-8h35.88Zm-33.2-.41h32.46l-.26-7.14H179.16Z" style="fill: #b3632e"/>
          <g>
            <polygon points="173.26 127.38 168.65 110.05 164.67 110.05 169.65 127.38 173.26 127.38" style="fill: #d7497a;fill-rule: evenodd"/>
            <polygon points="170.7 126.29 166.87 112.59 167.85 112.59 171.61 126.29 170.7 126.29" style="fill: #e3638d;fill-rule: evenodd"/>
          </g>
          <g>
            <polygon points="178.15 127.38 174.54 112.16 169.38 112.16 173.42 127.38 178.15 127.38" style="fill: #cbe69c;fill-rule: evenodd"/>
            <g>
              <line x1="172.58" y1="119.62" x2="174.2" y2="125.9" style="fill: none;stroke: #b7d87e;stroke-miterlimit: 22.925600000000003;stroke-width: 0.6729819791053137px"/>
              <line x1="173.78" y1="119.62" x2="175.36" y2="125.9" style="fill: none;stroke: #b7d87e;stroke-miterlimit: 22.925600000000003;stroke-width: 0.6729819791053137px"/>
              <line x1="174.98" y1="119.62" x2="176.52" y2="125.9" style="fill: none;stroke: #b7d87e;stroke-miterlimit: 22.925600000000003;stroke-width: 0.6729819791053137px"/>
              <polygon points="172.36 118.88 174.8 118.88 173.58 113.89 171.07 113.89 172.36 118.88" style="fill: none;stroke: #b7d87e;stroke-miterlimit: 22.925600000000003;stroke-width: 0.6729819791053137px;fill-rule: evenodd"/>
            </g>
          </g>
          <g>
            <polygon points="163.68 106.58 212 106.58 211.9 103.7 162.85 103.7 163.68 106.58" style="fill: #f4be79;fill-rule: evenodd"/>
            <polygon points="170.29 129.6 212.77 129.6 212.7 127.38 169.65 127.38 170.29 129.6" style="fill: #f4be79;fill-rule: evenodd"/>
          </g>
          <g>
            <polygon points="202.68 103.7 211.91 103.7 211.15 81.31 200.86 81.31 202.68 103.7" style="fill: #fff;fill-rule: evenodd"/>
            <polygon points="203.02 87.99 209.76 87.99 209.59 83.86 202.72 83.86 203.02 87.99" style="fill: #6ee0fd;fill-rule: evenodd"/>
            <polygon points="193.46 103.7 202.68 103.7 200.86 81.31 190.57 81.31 193.46 103.7" style="fill: #6ee0fd;fill-rule: evenodd"/>
            <polygon points="193.05 87.99 199.79 87.99 199.42 83.86 192.55 83.86 193.05 87.99" style="fill: #fff;fill-rule: evenodd"/>
          </g>
          <path d="M199.34,155c0,.22-.23.39-.58.39h-6.94c-.35,0-.67-.18-.71-.39h0c0-.22.21-.39.57-.39h7c.35,0,.66.18.69.39Z" style="fill: #fff;fill-rule: evenodd"/>
          <path d="M200.42,163c0,.19-.22.35-.55.35h-6.55c-.33,0-.63-.16-.67-.35h0c0-.19.2-.35.54-.35h6.58c.33,0,.62.16.65.35Z" style="fill: #fff;fill-rule: evenodd"/>
          <g>
            <polygon points="202.3 147.09 181.94 147.09 181.14 143.83 201.95 143.83 202.3 147.09" style="fill: #ffb533"/>
            <polygon points="203.33 144.27 180.25 144.27 179.97 143.16 203.22 143.16 203.33 144.27" style="fill: #ffd01f"/>
            <polygon points="201.87 143.16 180.98 143.16 179.68 137.81 201.3 137.81 201.87 143.16" style="fill: #ffb533"/>
            <polygon points="202.86 139.48 179.05 139.48 178.63 137.81 202.69 137.81 202.86 139.48" style="fill: #ffd01f"/>
            <polygon points="193.98 137.81 179.68 137.81 178.41 132.6 193.18 132.6 193.98 137.81" style="fill: #625f52"/>
            <polygon points="193.33 133.62 178.66 133.62 178.41 132.6 193.18 132.6 193.33 133.62" style="fill: #313029"/>
          </g>
        </g>
        <g>
          <g>
            <path d="M188.72,97.07l-.64-4.32a.28.28,0,0,0-.27-.21H172.7a.18.18,0,0,0-.19.21l1,4.32a.29.29,0,0,0,.28.2h14.75A.19.19,0,0,0,188.72,97.07Z" style="fill: #f6921e"/>
            <path d="M185.34,96.63l-.57-3.44a.28.28,0,0,0-.28-.21h-.91a.19.19,0,0,0-.2.21l.59,3.44a.27.27,0,0,0,.27.2h.89A.18.18,0,0,0,185.34,96.63Z" style="fill: #fcb813"/>
            <path d="M186.65,96.63l-.55-3.44a.28.28,0,0,0-.28-.21h-.35a.19.19,0,0,0-.21.21l.56,3.44a.27.27,0,0,0,.27.2h.34A.19.19,0,0,0,186.65,96.63Z" style="fill: #fcb813"/>
          </g>
          <g>
            <path d="M195.78,103.51l-.3-2.56a.25.25,0,0,0-.25-.2H170.87c-.13,0-.21.09-.19.2l.62,2.56a.29.29,0,0,0,.28.19h24A.19.19,0,0,0,195.78,103.51Z" style="fill: #00bdd6"/>
            <path d="M178.1,102.24c.09.44-.26.8-.79.8a1.16,1.16,0,0,1-1.13-.8c-.1-.45.26-.81.79-.81A1.16,1.16,0,0,1,178.1,102.24Z" style="fill: #90278e"/>
          </g>
          <g>
            <path d="M195.43,100.55l-.13-1.13a.25.25,0,0,0-.26-.2H167c-.13,0-.21.09-.18.2l.3,1.13a.3.3,0,0,0,.28.2h27.83A.19.19,0,0,0,195.43,100.55Z" style="fill: #967348"/>
            <path d="M195,99.22H184.81l.26,1.53h10.15a.19.19,0,0,0,.21-.2l-.13-1.13A.25.25,0,0,0,195,99.22Z" style="fill: #b99664"/>
          </g>
          <g>
            <path d="M191.47,97.77l0-.3a.26.26,0,0,0-.26-.2H172.87a.17.17,0,0,0-.19.2l.07.3a.29.29,0,0,0,.28.2h18.23A.19.19,0,0,0,191.47,97.77Z" style="fill: #357f75"/>
            <path d="M180.71,97.27h-7.84a.17.17,0,0,0-.19.2l.07.3a.29.29,0,0,0,.28.2h7.81Z" style="fill: #42968c"/>
          </g>
          <g>
            <path d="M191.64,99l-.11-.85a.26.26,0,0,0-.26-.2H173a.17.17,0,0,0-.19.2L173,99a.29.29,0,0,0,.28.2h18.11A.19.19,0,0,0,191.64,99Z" style="fill: #ab5c2e"/>
            <path d="M191.26,98h-4.87l.2,1.25h4.84a.19.19,0,0,0,.21-.2l-.11-.85A.26.26,0,0,0,191.26,98Z" style="fill: #bf6735"/>
          </g>
        </g>
        <g>
          <g>
            <g>
              <path d="M199.68,122.78c0-.09-2.58-9.48-5.07-11.12l.17-.17c2.58,1.7,5.07,10.89,5.17,11.26Z" style="fill: #39b54a"/>
              <path d="M195.07,113.16a3.6,3.6,0,0,1,1.77,1.3,4.1,4.1,0,0,1-2.27.09,3.67,3.67,0,0,1-1.78-1.3A4.07,4.07,0,0,1,195.07,113.16Z" style="fill: #57e591"/>
              <path d="M196.46,116.44a3.48,3.48,0,0,1,1.72,1.25,4.11,4.11,0,0,1-2.23.08,3.57,3.57,0,0,1-1.74-1.25A4.08,4.08,0,0,1,196.46,116.44Z" style="fill: #57e591"/>
              <path d="M197.56,119.61a3.38,3.38,0,0,1,1.69,1.21,4.11,4.11,0,0,1-2.19.08,3.46,3.46,0,0,1-1.7-1.21A4.08,4.08,0,0,1,197.56,119.61Z" style="fill: #57e591"/>
              <path d="M196.2,112.21a2.34,2.34,0,0,0,.36,1.83,2.72,2.72,0,0,0,1.47-1.3,2.38,2.38,0,0,0-.35-1.86A2.76,2.76,0,0,0,196.2,112.21Z" style="fill: #57e591"/>
              <path d="M193.53,111.37a2.8,2.8,0,0,0,1.44.48,1.75,1.75,0,0,0-.62-1.14,2.83,2.83,0,0,0-1.45-.48A1.78,1.78,0,0,0,193.53,111.37Z" style="fill: #57e591"/>
              <path d="M194.5,111a1.27,1.27,0,0,0,.38.84,1.11,1.11,0,0,0,.5-.72,1.28,1.28,0,0,0-.38-.84A1.11,1.11,0,0,0,194.5,111Z" style="fill: #57e591"/>
              <path d="M198.5,115.48a2,2,0,0,0-.55,1.67,3.61,3.61,0,0,0,2-.68,2.08,2.08,0,0,0,.57-1.68A3.61,3.61,0,0,0,198.5,115.48Z" style="fill: #57e591"/>
              <path d="M199.51,118.12a2,2,0,0,0-.56,1.62,3.6,3.6,0,0,0,2-.66,2,2,0,0,0,.58-1.64A3.61,3.61,0,0,0,199.51,118.12Z" style="fill: #57e591"/>
            </g>
            <path d="M202,119.92a1.41,1.41,0,0,0-.42,1.16,2.64,2.64,0,0,0,1.43-.47,1.43,1.43,0,0,0,.43-1.17A2.65,2.65,0,0,0,202,119.92Z" style="fill: #57e591"/>
            <path d="M200.91,120.64a1.67,1.67,0,0,1,.63,1.15,3,3,0,0,1-1.52-.47,1.7,1.7,0,0,1-.65-1.15A3.06,3.06,0,0,1,200.91,120.64Z" style="fill: #57e591"/>
            <path d="M201.83,122.82h-.27a21.66,21.66,0,0,1,.1-4.58l.27.05A22,22,0,0,0,201.83,122.82Z" style="fill: #39b54a"/>
            <g>
              <path d="M203.55,117.33a.6.6,0,0,0,0-.25,1,1,0,0,0-1.07-.78.85.85,0,0,0-.93.66,1.29,1.29,0,0,0-.48-.1c-.55,0-1,.35-.92.78a1,1,0,0,0,.83.75.57.57,0,0,0,0,.19,1,1,0,0,0,1.06.76.87.87,0,0,0,.9-.58l.24,0c.55,0,1-.34.93-.77A.86.86,0,0,0,203.55,117.33Zm-1.37.43h0l0,.07h0A.62.62,0,0,0,202.19,117.76Z" style="fill: #eccc2d"/>
              <path d="M202.53,117.76c0,.14-.13.26-.32.26a.34.34,0,0,1-.36-.26c0-.15.13-.26.31-.26A.34.34,0,0,1,202.53,117.76Z" style="fill: #c02b2e"/>
            </g>
            <path d="M202.27,121.29a1.56,1.56,0,0,0-.78,1,3,3,0,0,0,1.55-.18,1.59,1.59,0,0,0,.79-1A3,3,0,0,0,202.27,121.29Z" style="fill: #57e591"/>
          </g>
          <g>
            <g>
              <path d="M198.78,122.58c0-.05.29-5.53,1.52-6.46l-.12-.1c-1.28,1-1.55,6.32-1.56,6.54Z" style="fill: #39b54a"/>
              <path d="M200.23,117a1.52,1.52,0,0,0-.86.74,2.56,2.56,0,0,0,1.34,0,1.53,1.53,0,0,0,.87-.74A2.54,2.54,0,0,0,200.23,117Z" style="fill: #57e591"/>
              <path d="M199.85,118.86a1.48,1.48,0,0,0-.85.73,2.54,2.54,0,0,0,1.32,0,1.5,1.5,0,0,0,.85-.73A2.53,2.53,0,0,0,199.85,118.86Z" style="fill: #57e591"/>
              <path d="M199.62,120.71a1.46,1.46,0,0,0-.84.71,2.55,2.55,0,0,0,1.31,0,1.48,1.48,0,0,0,.84-.71A2.53,2.53,0,0,0,199.62,120.71Z" style="fill: #57e591"/>
              <path d="M199.45,116.43a1.21,1.21,0,0,1,0,1,2.16,2.16,0,0,1-1-.74,1.23,1.23,0,0,1,0-1.05A2.19,2.19,0,0,1,199.45,116.43Z" style="fill: #57e591"/>
              <path d="M200.89,116a1.38,1.38,0,0,1-.77.27.79.79,0,0,1,.21-.65,1.39,1.39,0,0,1,.78-.27A.8.8,0,0,1,200.89,116Z" style="fill: #57e591"/>
              <path d="M200.28,115.73a.57.57,0,0,1-.11.47.88.88,0,0,1-.39-.41.58.58,0,0,1,.11-.48A.87.87,0,0,1,200.28,115.73Z" style="fill: #57e591"/>
              <path d="M198.53,118.3a1.44,1.44,0,0,1,.54,1,2.54,2.54,0,0,1-1.27-.39,1.46,1.46,0,0,1-.55-1A2.55,2.55,0,0,1,198.53,118.3Z" style="fill: #57e591"/>
              <path d="M198.28,119.83a1.41,1.41,0,0,1,.54,1,2.53,2.53,0,0,1-1.26-.39,1.44,1.44,0,0,1-.55-1A2.54,2.54,0,0,1,198.28,119.83Z" style="fill: #57e591"/>
            </g>
            <path d="M197,120.88a1,1,0,0,1,.39.68,1.85,1.85,0,0,1-.91-.28,1,1,0,0,1-.4-.69A1.85,1.85,0,0,1,197,120.88Z" style="fill: #57e591"/>
            <path d="M197.77,121.31a.81.81,0,0,0-.23.68,1.53,1.53,0,0,0,.84-.28.82.82,0,0,0,.23-.68A1.53,1.53,0,0,0,197.77,121.31Z" style="fill: #57e591"/>
            <path d="M197.51,122.6h.16a13.76,13.76,0,0,0-.64-2.7l-.15,0A14.14,14.14,0,0,1,197.51,122.6Z" style="fill: #39b54a"/>
            <g>
              <path d="M195.53,119.77a.62.62,0,0,0,.64.45h.14a.66.66,0,0,0,.61.34c.32,0,.56-.2.53-.45a.35.35,0,0,0,0-.11.42.42,0,0,0,.39-.44.61.61,0,0,0-.64-.45.66.66,0,0,0-.27.06.65.65,0,0,0-.63-.38c-.33,0-.56.2-.53.45a.4.4,0,0,0,.05.15A.39.39,0,0,0,195.53,119.77Zm1.14-.11h0l0,0h0Z" style="fill: #eccc2d"/>
              <path d="M196.45,119.62a.21.21,0,0,0,.22.15c.11,0,.19-.07.18-.15a.21.21,0,0,0-.22-.15C196.52,119.47,196.44,119.54,196.45,119.62Z" style="fill: #c02b2e"/>
            </g>
            <path d="M197,121.69a1.24,1.24,0,0,1,.59.6,1.85,1.85,0,0,1-.95-.1,1.26,1.26,0,0,1-.6-.6A1.85,1.85,0,0,1,197,121.69Z" style="fill: #57e591"/>
          </g>
          <g>
            <g>
              <path d="M203.51,122.58a6.64,6.64,0,0,1,.33-3.16c.39-1.22,1.13-1.68,1.45-2.92l-.11-.12c-.34,1.24-1,1.7-1.44,2.91a7,7,0,0,0-.39,3.26Z" style="fill: #39b54a"/>
              <path d="M205.2,117.55a2.18,2.18,0,0,0-.76.54,1,1,0,0,0,1.07.22,2.83,2.83,0,0,0,.95-1.29A8.66,8.66,0,0,1,205.2,117.55Z" style="fill: #57e591"/>
              <path d="M204.6,119.11a.85.85,0,0,0-.79.16,2.29,2.29,0,0,0,1,.54,1.2,1.2,0,0,0,1-.56A4.14,4.14,0,0,1,204.6,119.11Z" style="fill: #57e591"/>
              <path d="M204.12,120.37c-.5-.07-.72.55-.71.56a2.79,2.79,0,0,0,1.13.29,1.21,1.21,0,0,0,.83-.41A11.07,11.07,0,0,0,204.12,120.37Z" style="fill: #57e591"/>
              <path d="M204.57,116.87a1.15,1.15,0,0,1,0,1.05,4.54,4.54,0,0,1-.84-1,2,2,0,0,1-.22-1.14A2.51,2.51,0,0,1,204.57,116.87Z" style="fill: #57e591"/>
              <path d="M205.83,116.18a1,1,0,0,1-.69.48,1.75,1.75,0,0,1,.15-.93,1,1,0,0,1,.75-.42A1.44,1.44,0,0,1,205.83,116.18Z" style="fill: #57e591"/>
              <path d="M205.26,116a1.07,1.07,0,0,1-.08.67,1.16,1.16,0,0,1-.37-.56,1.37,1.37,0,0,1,0-.74A1.36,1.36,0,0,1,205.26,116Z" style="fill: #57e591"/>
              <path d="M203.67,118.2a1.08,1.08,0,0,1,.25.87s-.55-.32-1-.56a1,1,0,0,1-.55-.77A1.6,1.6,0,0,1,203.67,118.2Z" style="fill: #57e591"/>
              <path d="M203.17,119.31a1.34,1.34,0,0,1,.3.92,10.13,10.13,0,0,0-1.06-.18.68.68,0,0,1-.57-.61C201.87,119.37,202.85,118.88,203.17,119.31Z" style="fill: #57e591"/>
            </g>
            <path d="M201.8,120.88a1,1,0,0,1,.38.68,1.81,1.81,0,0,1-.9-.28,1,1,0,0,1-.38-.69A1.81,1.81,0,0,1,201.8,120.88Z" style="fill: #57e591"/>
            <path d="M202.54,121.31a.82.82,0,0,0-.25.68,1.57,1.57,0,0,0,.85-.28.83.83,0,0,0,.25-.68A1.57,1.57,0,0,0,202.54,121.31Z" style="fill: #57e591"/>
            <path d="M202.24,122.6h.16a13.65,13.65,0,0,0-.57-2.7l-.15,0A13.79,13.79,0,0,1,202.24,122.6Z" style="fill: #39b54a"/>
            <g>
              <path d="M200.34,119.77a.6.6,0,0,0,.63.45h.14a.64.64,0,0,0,.6.34c.32,0,.56-.2.54-.45a.36.36,0,0,0,0-.11.44.44,0,0,0,.41-.44.59.59,0,0,0-.63-.45.67.67,0,0,0-.27.06.63.63,0,0,0-.62-.38c-.33,0-.57.2-.54.45a.39.39,0,0,0,0,.15A.4.4,0,0,0,200.34,119.77Zm1.14-.11h0l0,0h0Z" style="fill: #eccc2d"/>
              <path d="M201.27,119.62a.2.2,0,0,0,.21.15c.11,0,.19-.07.18-.15a.2.2,0,0,0-.21-.15C201.34,119.47,201.26,119.54,201.27,119.62Z" style="fill: #c02b2e"/>
            </g>
            <path d="M201.81,121.69a1.2,1.2,0,0,1,.57.6,1.85,1.85,0,0,1-.95-.1,1.22,1.22,0,0,1-.58-.6A1.84,1.84,0,0,1,201.81,121.69Z" style="fill: #57e591"/>
          </g>
          <polygon points="203.89 127.31 197.57 127.31 196.98 122.53 203.48 122.53 203.89 127.31" style="fill: red"/>
          <polygon points="205.07 123.39 197.09 123.39 196.98 122.53 205.01 122.53 205.07 123.39" style="fill: #c1272d"/>
        </g>
        <g>
          <polygon points="190.51 126.81 180.36 126.81 178.79 119.77 189.35 119.77 190.51 126.81" style="fill: #4e1f13"/>
          <polygon points="189.69 126.28 181.21 126.28 179.92 120.35 188.69 120.35 189.69 126.28" style="fill: #fffdf4"/>
          <polygon points="188.84 125.56 181.79 125.56 180.84 121.11 188.07 121.11 188.84 125.56" style="fill: #fed356"/>
          <g>
            <polygon points="184.77 123.36 181.32 123.36 180.8 120.92 184.29 120.92 184.77 123.36" style="fill: #f34b6e"/>
            <polygon points="188.46 123.36 184.77 123.36 184.29 120.92 188.04 120.92 188.46 123.36" style="fill: #fedd76"/>
            <polygon points="185.23 125.74 181.82 125.74 181.32 123.36 184.77 123.36 185.23 125.74" style="fill: #fedd76"/>
            <polygon points="188.87 125.74 185.23 125.74 184.77 123.36 188.46 123.36 188.87 125.74" style="fill: #4e1f13"/>
          </g>
        </g>
      </g>
      <polygon points="222.33 143.71 218.42 169.01 218.42 66.03 222.33 57 222.33 143.71" style="fill: #42210b"/>
      <polygon points="149.35 57 144.23 66.03 218.42 66.03 222.33 57 149.35 57" style="fill: #a67c52"/>
      <polygon points="379.71 56.24 385.61 70.38 460.4 71 453.54 56.24 379.71 56.24" style="fill: #a67c52"/>
      <polygon points="364.06 140.71 379.71 56.24 385.61 70.38 366.77 159.43 364.06 140.71" style="fill: #d5b291"/>
    </g>
  </g>
</svg>
