<svg xmlns="http://www.w3.org/2000/svg" xmlns:xlink="http://www.w3.org/1999/xlink" width="600" height="400" viewBox="0 0 600 400">
  <defs>
    <linearGradient id="a" x1="103.26" y1="286.31" x2="399.76" y2="380.81" gradientUnits="userSpaceOnUse">
      <stop offset="0" stop-color="#e44398"/>
      <stop offset="1" stop-color="#f6a0b3"/>
    </linearGradient>
    <linearGradient id="b" x1="106.39" y1="276.49" x2="402.89" y2="370.99" xlink:href="#a"/>
    <linearGradient id="c" x1="109.52" y1="266.67" x2="406.02" y2="361.17" xlink:href="#a"/>
    <linearGradient id="d" x1="112.65" y1="256.85" x2="409.15" y2="351.35" xlink:href="#a"/>
    <linearGradient id="e" x1="115.78" y1="247.03" x2="412.28" y2="341.53" xlink:href="#a"/>
    <linearGradient id="f" x1="118.91" y1="237.21" x2="415.41" y2="331.71" xlink:href="#a"/>
    <linearGradient id="g" x1="122.04" y1="227.38" x2="418.54" y2="321.88" xlink:href="#a"/>
    <linearGradient id="h" x1="125.17" y1="217.56" x2="421.67" y2="312.06" xlink:href="#a"/>
    <linearGradient id="i" x1="128.3" y1="207.74" x2="424.8" y2="302.24" xlink:href="#a"/>
    <linearGradient id="j" x1="116.71" y1="244.11" x2="413.21" y2="338.61" xlink:href="#a"/>
    <linearGradient id="k" x1="119.64" y1="234.92" x2="416.14" y2="329.42" xlink:href="#a"/>
    <linearGradient id="l" x1="122.57" y1="225.74" x2="419.07" y2="320.24" xlink:href="#a"/>
    <linearGradient id="m" x1="125.49" y1="216.55" x2="421.99" y2="311.05" xlink:href="#a"/>
    <linearGradient id="n" x1="128.42" y1="207.36" x2="424.92" y2="301.86" xlink:href="#a"/>
    <linearGradient id="o" x1="131.35" y1="198.18" x2="427.85" y2="292.68" xlink:href="#a"/>
    <linearGradient id="p" x1="134.28" y1="188.99" x2="430.78" y2="283.49" xlink:href="#a"/>
    <linearGradient id="q" x1="137.21" y1="179.81" x2="433.71" y2="274.31" xlink:href="#a"/>
    <linearGradient id="r" x1="140.13" y1="170.62" x2="436.63" y2="265.12" xlink:href="#a"/>
    <linearGradient id="s" x1="128.53" y1="207.04" x2="425.03" y2="301.54" xlink:href="#a"/>
    <linearGradient id="t" x1="131.28" y1="198.41" x2="427.78" y2="292.91" xlink:href="#a"/>
    <linearGradient id="u" x1="134.03" y1="189.78" x2="430.53" y2="284.28" xlink:href="#a"/>
    <linearGradient id="v" x1="136.78" y1="181.15" x2="433.28" y2="275.65" xlink:href="#a"/>
    <linearGradient id="w" x1="139.53" y1="172.52" x2="436.03" y2="267.02" xlink:href="#a"/>
    <linearGradient id="x" x1="142.28" y1="163.89" x2="438.78" y2="258.39" xlink:href="#a"/>
    <linearGradient id="y" x1="145.03" y1="155.26" x2="441.53" y2="249.76" xlink:href="#a"/>
    <linearGradient id="z" x1="147.78" y1="146.63" x2="444.28" y2="241.13" xlink:href="#a"/>
    <linearGradient id="aa" x1="150.53" y1="138.01" x2="447.03" y2="232.51" xlink:href="#a"/>
    <linearGradient id="ab" x1="138.99" y1="174.21" x2="435.49" y2="268.71" xlink:href="#a"/>
    <linearGradient id="ac" x1="141.58" y1="166.07" x2="438.08" y2="260.57" xlink:href="#a"/>
    <linearGradient id="ad" x1="144.18" y1="157.94" x2="440.68" y2="252.44" xlink:href="#a"/>
    <linearGradient id="ae" x1="146.77" y1="149.8" x2="443.27" y2="244.3" xlink:href="#a"/>
    <linearGradient id="af" x1="149.36" y1="141.67" x2="445.86" y2="236.17" xlink:href="#a"/>
    <linearGradient id="ag" x1="151.95" y1="133.53" x2="448.45" y2="228.03" xlink:href="#a"/>
    <linearGradient id="ah" x1="154.55" y1="125.4" x2="451.05" y2="219.9" xlink:href="#a"/>
    <linearGradient id="ai" x1="157.14" y1="117.26" x2="453.64" y2="211.76" xlink:href="#a"/>
    <linearGradient id="aj" x1="159.73" y1="109.13" x2="456.23" y2="203.63" xlink:href="#a"/>
    <linearGradient id="ak" x1="148.32" y1="144.93" x2="444.82" y2="239.43" xlink:href="#a"/>
    <linearGradient id="al" x1="150.77" y1="137.24" x2="447.27" y2="231.74" xlink:href="#a"/>
    <linearGradient id="am" x1="153.22" y1="129.54" x2="449.72" y2="224.04" xlink:href="#a"/>
    <linearGradient id="an" x1="155.68" y1="121.85" x2="452.18" y2="216.35" xlink:href="#a"/>
    <linearGradient id="ao" x1="158.13" y1="114.15" x2="454.63" y2="208.65" xlink:href="#a"/>
    <linearGradient id="ap" x1="160.58" y1="106.46" x2="457.08" y2="200.96" xlink:href="#a"/>
    <linearGradient id="aq" x1="163.03" y1="98.76" x2="459.53" y2="193.26" xlink:href="#a"/>
    <linearGradient id="ar" x1="165.49" y1="91.07" x2="461.99" y2="185.57" xlink:href="#a"/>
    <linearGradient id="as" x1="167.94" y1="83.37" x2="464.44" y2="177.87" xlink:href="#a"/>
    <linearGradient id="at" x1="173.71" y1="240.41" x2="157.22" y2="236.05" gradientUnits="userSpaceOnUse">
      <stop offset="0" stop-color="#fff"/>
      <stop offset="1"/>
    </linearGradient>
    <linearGradient id="au" x1="399.25" y1="296.98" x2="382.19" y2="292.47" gradientTransform="translate(477.73 -276.37) rotate(74.32)" xlink:href="#at"/>
    <linearGradient id="av" x1="300.54" y1="148.67" x2="300.54" y2="142" xlink:href="#at"/>
    <linearGradient id="aw" x1="70.48" y1="238.06" x2="181.91" y2="286.76" gradientUnits="userSpaceOnUse">
      <stop offset="0" stop-color="#2e3192"/>
      <stop offset="1" stop-color="#fff"/>
    </linearGradient>
    <linearGradient id="ax" x1="60.68" y1="272.65" x2="167.8" y2="319.47" xlink:href="#aw"/>
    <linearGradient id="ay" x1="105.92" y1="253.55" x2="183.1" y2="287.28" xlink:href="#aw"/>
    <linearGradient id="az" x1="99.83" y1="171.34" x2="144.83" y2="191.01" gradientTransform="matrix(-1, 0, 0, 1, 600.66, 0)" gradientUnits="userSpaceOnUse">
      <stop offset="0" stop-color="#fff"/>
      <stop offset="0.03" stop-color="#1b1464"/>
      <stop offset="1" stop-color="#2e3192"/>
    </linearGradient>
    <linearGradient id="ba" x1="184.37" y1="177.64" x2="114.86" y2="142.32" xlink:href="#at"/>
    <linearGradient id="bb" x1="150.27" y1="212.26" x2="77.38" y2="175.22" gradientUnits="userSpaceOnUse">
      <stop offset="0.01" stop-color="#fff"/>
      <stop offset="1"/>
    </linearGradient>
    <linearGradient id="bc" x1="352.89" y1="110.33" x2="437.64" y2="147.37" gradientUnits="userSpaceOnUse">
      <stop offset="0" stop-color="#666"/>
      <stop offset="1" stop-color="#fff"/>
    </linearGradient>
    <linearGradient id="bd" x1="350.58" y1="62.92" x2="454.03" y2="108.13" xlink:href="#bc"/>
    <linearGradient id="be" x1="343.58" y1="113.43" x2="384.62" y2="131.37" xlink:href="#bc"/>
    <linearGradient id="bf" x1="139.44" y1="86.21" x2="351.46" y2="178.87" gradientUnits="userSpaceOnUse">
      <stop offset="0" stop-color="#969696"/>
      <stop offset="1" stop-color="#fff"/>
    </linearGradient>
    <linearGradient id="bg" x1="134.35" y1="107.35" x2="347.25" y2="200.4" gradientUnits="userSpaceOnUse">
      <stop offset="0" stop-color="#4d4d4d"/>
      <stop offset="1" stop-color="#fff"/>
    </linearGradient>
    <linearGradient id="bh" x1="275.02" y1="126.23" x2="134.9" y2="71.74" xlink:href="#bg"/>
    <linearGradient id="bi" x1="314.16" y1="127.82" x2="364.7" y2="149.9" gradientUnits="userSpaceOnUse">
      <stop offset="0" stop-color="#646464"/>
      <stop offset="1" stop-color="#fff"/>
    </linearGradient>
    <linearGradient id="bj" x1="319.89" y1="122.56" x2="356.24" y2="138.44" xlink:href="#bi"/>
    <linearGradient id="bk" x1="338.37" y1="125.15" x2="350.88" y2="130.62" xlink:href="#bi"/>
    <linearGradient id="bl" x1="402.78" y1="134.73" x2="414.61" y2="139.9" xlink:href="#bc"/>
    <linearGradient id="bm" x1="391.81" y1="128.44" x2="403.03" y2="133.35" gradientTransform="matrix(1, 0, -0.25, 0.99, 35.35, 2.04)" xlink:href="#bi"/>
    <linearGradient id="bn" x1="407.17" y1="128.44" x2="418.39" y2="133.35" gradientTransform="matrix(1, 0, -0.25, 0.99, 35.35, 2.04)" xlink:href="#bi"/>
    <linearGradient id="bo" x1="220.51" y1="141.16" x2="136.2" y2="69.41" xlink:href="#bg"/>
  </defs>
  <title>room</title>
  <g style="isolation: isolate">
    <g>
      <polygon points="124.5 334.7 179.5 140.5 421.15 140.71 475.91 334.7 124.5 334.7" style="fill: #ccc"/>
      <g>
        <polygon points="181.43 287.13 155.85 287.13 147.61 324.53 174.64 324.53 181.43 287.13" style="stroke: #f2f2f2;stroke-miterlimit: 10;stroke-width: 0.9763386260272355px;fill: url(#a)"/>
        <polygon points="214.43 287.13 188.85 287.13 182.49 324.53 209.52 324.53 214.43 287.13" style="stroke: #f2f2f2;stroke-miterlimit: 10;stroke-width: 0.9763386260272355px;fill: url(#b)"/>
        <polygon points="247.43 287.13 221.85 287.13 217.37 324.53 244.41 324.53 247.43 287.13" style="stroke: #f2f2f2;stroke-miterlimit: 10;stroke-width: 0.9763386260272355px;fill: url(#c)"/>
        <polygon points="280.44 287.13 254.86 287.13 252.25 324.53 279.29 324.53 280.44 287.13" style="stroke: #f2f2f2;stroke-miterlimit: 10;stroke-width: 0.9763386260272355px;fill: url(#d)"/>
        <polygon points="313.44 287.13 287.86 287.13 287.13 324.53 314.17 324.53 313.44 287.13" style="stroke: #f2f2f2;stroke-miterlimit: 10;stroke-width: 0.9763386260272355px;fill: url(#e)"/>
        <polygon points="346.44 287.13 320.87 287.13 322.02 324.53 349.05 324.53 346.44 287.13" style="stroke: #f2f2f2;stroke-miterlimit: 10;stroke-width: 0.9763386260272355px;fill: url(#f)"/>
        <polygon points="379.45 287.13 353.87 287.13 356.9 324.53 383.93 324.53 379.45 287.13" style="stroke: #f2f2f2;stroke-miterlimit: 10;stroke-width: 0.9763386260272355px;fill: url(#g)"/>
        <polygon points="412.45 287.13 386.87 287.13 391.78 324.53 418.81 324.53 412.45 287.13" style="stroke: #f2f2f2;stroke-miterlimit: 10;stroke-width: 0.9763386260272355px;fill: url(#h)"/>
        <polygon points="445.46 287.13 419.88 287.13 426.66 324.53 453.69 324.53 445.46 287.13" style="stroke: #f2f2f2;stroke-miterlimit: 10;stroke-width: 0.9763386260272355px;fill: url(#i)"/>
        <polygon points="188.92 245.79 164.96 245.79 157.75 278.52 182.99 278.52 188.92 245.79" style="stroke: #f2f2f2;stroke-miterlimit: 10;stroke-width: 0.9763386260272355px;fill: url(#j)"/>
        <polygon points="219.85 245.79 195.88 245.79 190.32 278.52 215.56 278.52 219.85 245.79" style="stroke: #f2f2f2;stroke-miterlimit: 10;stroke-width: 0.9763386260272355px;fill: url(#k)"/>
        <polygon points="250.78 245.79 226.81 245.79 222.89 278.52 248.13 278.52 250.78 245.79" style="stroke: #f2f2f2;stroke-miterlimit: 10;stroke-width: 0.9763386260272355px;fill: url(#l)"/>
        <polygon points="281.71 245.79 257.74 245.79 255.46 278.52 280.7 278.52 281.71 245.79" style="stroke: #f2f2f2;stroke-miterlimit: 10;stroke-width: 0.9763386260272355px;fill: url(#m)"/>
        <polygon points="312.64 245.79 288.67 245.79 288.03 278.52 313.27 278.52 312.64 245.79" style="stroke: #f2f2f2;stroke-miterlimit: 10;stroke-width: 0.9763386260272355px;fill: url(#n)"/>
        <polygon points="343.56 245.79 319.6 245.79 320.6 278.52 345.85 278.52 343.56 245.79" style="stroke: #f2f2f2;stroke-miterlimit: 10;stroke-width: 0.9763386260272355px;fill: url(#o)"/>
        <polygon points="374.49 245.79 350.52 245.79 353.17 278.52 378.42 278.52 374.49 245.79" style="stroke: #f2f2f2;stroke-miterlimit: 10;stroke-width: 0.9763386260272355px;fill: url(#p)"/>
        <polygon points="405.42 245.79 381.45 245.79 385.74 278.52 410.99 278.52 405.42 245.79" style="stroke: #f2f2f2;stroke-miterlimit: 10;stroke-width: 0.9763386260272355px;fill: url(#q)"/>
        <polygon points="436.35 245.79 412.38 245.79 418.31 278.52 443.56 278.52 436.35 245.79" style="stroke: #f2f2f2;stroke-miterlimit: 10;stroke-width: 0.9763386260272355px;fill: url(#r)"/>
        <polygon points="195.53 209.35 172.98 209.35 166.62 238.22 190.3 238.22 195.53 209.35" style="stroke: #f2f2f2;stroke-miterlimit: 10;stroke-width: 0.9763386260272355px;fill: url(#s)"/>
        <polygon points="224.63 209.35 202.08 209.35 197.17 238.22 220.85 238.22 224.63 209.35" style="stroke: #f2f2f2;stroke-miterlimit: 10;stroke-width: 0.9763386260272355px;fill: url(#t)"/>
        <polygon points="253.73 209.35 231.18 209.35 227.72 238.22 251.39 238.22 253.73 209.35" style="stroke: #f2f2f2;stroke-miterlimit: 10;stroke-width: 0.9763386260272355px;fill: url(#u)"/>
        <polygon points="282.83 209.35 260.28 209.35 258.27 238.22 281.94 238.22 282.83 209.35" style="stroke: #f2f2f2;stroke-miterlimit: 10;stroke-width: 0.9763386260272355px;fill: url(#v)"/>
        <polygon points="311.93 209.35 289.38 209.35 288.81 238.22 312.49 238.22 311.93 209.35" style="stroke: #f2f2f2;stroke-miterlimit: 10;stroke-width: 0.9763386260272355px;fill: url(#w)"/>
        <polygon points="341.03 209.35 318.47 209.35 319.36 238.22 343.04 238.22 341.03 209.35" style="stroke: #f2f2f2;stroke-miterlimit: 10;stroke-width: 0.9763386260272355px;fill: url(#x)"/>
        <polygon points="370.12 209.35 347.57 209.35 349.91 238.22 373.58 238.22 370.12 209.35" style="stroke: #f2f2f2;stroke-miterlimit: 10;stroke-width: 0.9763386260272355px;fill: url(#y)"/>
        <polygon points="399.22 209.35 376.67 209.35 380.46 238.22 404.13 238.22 399.22 209.35" style="stroke: #f2f2f2;stroke-miterlimit: 10;stroke-width: 0.9763386260272355px;fill: url(#z)"/>
        <polygon points="428.32 209.35 405.77 209.35 411.01 238.22 434.68 238.22 428.32 209.35" style="stroke: #f2f2f2;stroke-miterlimit: 10;stroke-width: 0.9763386260272355px;fill: url(#aa)"/>
        <polygon points="201.41 176.97 180.12 176.97 174.46 202.64 196.75 202.64 201.41 176.97" style="stroke: #f2f2f2;stroke-miterlimit: 10;stroke-width: 0.9763386260272355px;fill: url(#ab)"/>
        <polygon points="228.88 176.97 207.59 176.97 203.22 202.64 225.51 202.64 228.88 176.97" style="stroke: #f2f2f2;stroke-miterlimit: 10;stroke-width: 0.9763386260272355px;fill: url(#ac)"/>
        <polygon points="256.35 176.97 235.06 176.97 231.98 202.64 254.28 202.64 256.35 176.97" style="stroke: #f2f2f2;stroke-miterlimit: 10;stroke-width: 0.9763386260272355px;fill: url(#ad)"/>
        <polygon points="283.82 176.97 262.53 176.97 260.75 202.64 283.04 202.64 283.82 176.97" style="stroke: #f2f2f2;stroke-miterlimit: 10;stroke-width: 0.9763386260272355px;fill: url(#ae)"/>
        <polygon points="311.3 176.97 290.01 176.97 289.51 202.64 311.8 202.64 311.3 176.97" style="stroke: #f2f2f2;stroke-miterlimit: 10;stroke-width: 0.9763386260272355px;fill: url(#af)"/>
        <polygon points="338.77 176.97 317.48 176.97 318.27 202.64 340.56 202.64 338.77 176.97" style="stroke: #f2f2f2;stroke-miterlimit: 10;stroke-width: 0.9763386260272355px;fill: url(#ag)"/>
        <polygon points="366.24 176.97 344.95 176.97 347.03 202.64 369.32 202.64 366.24 176.97" style="stroke: #f2f2f2;stroke-miterlimit: 10;stroke-width: 0.9763386260272355px;fill: url(#ah)"/>
        <polygon points="393.71 176.97 372.42 176.97 375.79 202.64 398.08 202.64 393.71 176.97" style="stroke: #f2f2f2;stroke-miterlimit: 10;stroke-width: 0.9763386260272355px;fill: url(#ai)"/>
        <polygon points="421.19 176.97 399.9 176.97 404.55 202.64 426.84 202.64 421.19 176.97" style="stroke: #f2f2f2;stroke-miterlimit: 10;stroke-width: 0.9763386260272355px;fill: url(#aj)"/>
        <polygon points="206.66 148.02 186.49 148.02 181.43 170.99 202.49 170.99 206.66 148.02" style="stroke: #f2f2f2;stroke-miterlimit: 10;stroke-width: 0.9763386260272355px;fill: url(#ak)"/>
        <polygon points="232.68 148.02 212.51 148.02 208.61 170.99 229.66 170.99 232.68 148.02" style="stroke: #f2f2f2;stroke-miterlimit: 10;stroke-width: 0.9763386260272355px;fill: url(#al)"/>
        <polygon points="258.7 148.02 238.53 148.02 235.78 170.99 256.84 170.99 258.7 148.02" style="stroke: #f2f2f2;stroke-miterlimit: 10;stroke-width: 0.9763386260272355px;fill: url(#am)"/>
        <polygon points="284.71 148.02 264.55 148.02 262.95 170.99 284.01 170.99 284.71 148.02" style="stroke: #f2f2f2;stroke-miterlimit: 10;stroke-width: 0.9763386260272355px;fill: url(#an)"/>
        <polygon points="310.73 148.02 290.57 148.02 290.12 170.99 311.18 170.99 310.73 148.02" style="stroke: #f2f2f2;stroke-miterlimit: 10;stroke-width: 0.9763386260272355px;fill: url(#ao)"/>
        <polygon points="336.75 148.02 316.59 148.02 317.29 170.99 338.35 170.99 336.75 148.02" style="stroke: #f2f2f2;stroke-miterlimit: 10;stroke-width: 0.9763386260272355px;fill: url(#ap)"/>
        <polygon points="362.77 148.02 342.61 148.02 344.47 170.99 365.52 170.99 362.77 148.02" style="stroke: #f2f2f2;stroke-miterlimit: 10;stroke-width: 0.9763386260272355px;fill: url(#aq)"/>
        <polygon points="388.79 148.02 368.63 148.02 371.64 170.99 392.7 170.99 388.79 148.02" style="stroke: #f2f2f2;stroke-miterlimit: 10;stroke-width: 0.9763386260272355px;fill: url(#ar)"/>
        <polygon points="414.81 148.02 394.64 148.02 398.81 170.99 419.87 170.99 414.81 148.02" style="stroke: #f2f2f2;stroke-miterlimit: 10;stroke-width: 0.9763386260272355px;fill: url(#as)"/>
      </g>
      <polygon points="124.5 334.7 153.18 334.5 202.49 140.71 179.5 140.5 124.5 334.7" style="opacity: 0.3;mix-blend-mode: multiply;fill: url(#at)"/>
      <polygon points="169.75 169.07 164.52 189.81 434.96 190.09 428.73 167.1 169.75 169.07" style="opacity: 0.3;mix-blend-mode: multiply;fill: url(#au)"/>
      <polygon points="179.5 140.5 421.15 140.71 424.23 150.02 176.85 150.02 179.5 140.5" style="opacity: 0.2;mix-blend-mode: multiply;fill: url(#av)"/>
    </g>
    <g>
      <polygon points="53.5 254.5 125.5 334.5 179.5 140.5 421.5 140.5 475.5 334.5 547.5 254.5 454.5 54.5 146.5 54.5 53.5 254.5" style="fill: #f6a0b3"/>
      <polygon points="454.94 54.66 146.28 54.66 178.97 140.71 422.25 140.71 454.94 54.66" style="opacity: 0.3;mix-blend-mode: multiply"/>
      <polygon points="125.5 334.5 53.5 254.5 145.5 54.5 179.5 140.5 125.5 334.5" style="opacity: 0.5;mix-blend-mode: multiply"/>
      <polygon points="475.5 334.5 547.5 254.5 455.5 54.5 421.5 140.5 475.5 334.5" style="opacity: 0.1;mix-blend-mode: multiply"/>
      <polygon points="124.5 274.42 167.88 329.36 175.5 294.5 139.46 219.48 105.53 219.48 85.79 274.42 124.5 274.42" style="fill: url(#aw)"/>
      <polygon points="85.79 274.42 130.64 329.36 167.88 329.36 124.5 274.42 85.79 274.42" style="fill: url(#ax)"/>
      <polygon points="139.46 219.48 124.5 274.42 167.88 329.36 175.5 294.5 139.46 219.48" style="fill: url(#ay)"/>
      <polygon points="53.5 254.5 547.5 254.5 475.5 334.5 125.5 334.5 53.5 254.5" style="fill: #f6a0b3;opacity: 0.3"/>
    </g>
    <g>
      <polygon points="512.33 214.35 475.33 257.01 442.92 155.35 463.04 110.08 512.33 214.35" style="fill: #42210b"/>
      <polygon points="446.66 157.77 463.34 115.58 464.74 118.62 449.26 157.77 479.42 249.2 477.57 251.46 446.66 157.77" style="mix-blend-mode: multiply"/>
      <polygon points="464.74 118.62 508.48 213.7 479.42 249.2 449.26 157.77 464.74 118.62" style="fill: url(#az)"/>
    </g>
    <g>
      <polygon points="151 242 114.42 170.61 163.61 195.5 164.5 195.5 151 242" style="fill: #999;mix-blend-mode: multiply"/>
      <polygon points="133.5 122.5 114.42 170.61 149.49 239.51 163.61 195.5 133.5 122.5" style="fill: #42210b"/>
      <polygon points="163.61 195.5 161.88 195.5 132.86 132.32 114.42 170.61 131.11 128.52 133.5 122.5 163.61 195.5" style="opacity: 0.5;mix-blend-mode: multiply;fill: url(#ba)"/>
      <polygon points="149.49 239.51 114.42 170.61 115.81 167.1 150.67 235.3 149.49 239.51" style="opacity: 0.5;mix-blend-mode: multiply;fill: url(#bb)"/>
    </g>
    <g>
      <polygon points="368.63 171.84 430.22 171.84 460.62 102.78 376.67 102.78 368.63 171.84" style="fill: url(#bc)"/>
      <polygon points="369.32 77.23 376.67 102.78 460.62 102.78 446.66 76.45 369.32 77.23" style="fill: url(#bd)"/>
      <polygon points="369.32 77.23 364.14 141.25 368.63 171.84 376.67 102.78 369.32 77.23" style="fill: url(#be)"/>
      <polygon points="164.5 156.07 173.34 125.88 365.02 125.88 370.14 156.07 164.5 156.07" style="fill: url(#bf)"/>
      <polygon points="164.5 156.07 169.35 176.97 366.24 176.97 370.14 156.07 164.5 156.07" style="fill: url(#bg)"/>
      <polygon points="146.28 54.66 133.07 83.38 150.67 125.88 210.9 125.88 217.37 97.69 214.43 54.66 146.28 54.66" style="fill: url(#bh)"/>
      <polygon points="217.37 97.69 214.43 54.66 202.49 81.67 210.9 125.88 217.37 97.69" style="fill: #666"/>
      <polygon points="325.75 129.25 361.75 129.25 365.75 152.25 325.75 152.25 325.75 129.25" style="fill: url(#bi)"/>
      <polygon points="234.82 129.25 276.25 129.25 274.82 152.25 231 152.25 234.82 129.25" style="fill: #fff"/>
      <polygon points="361.75 129.25 357.13 139.78 332.75 139.78 325.75 129.25 361.75 129.25" style="fill: url(#bj)"/>
      <rect x="343.75" y="119.75" width="4.71" height="17.56" style="fill: url(#bk)"/>
      <path d="M400.26,141.26h-1a1.38,1.38,0,0,1-1.38-1.82l3.49-13.66a2.53,2.53,0,0,1,2.32-1.82h1a1.38,1.38,0,0,1,1.38,1.82l-3.49,13.66A2.53,2.53,0,0,1,400.26,141.26Z" style="fill: gray"/>
      <path d="M415.62,141.26h-1a1.38,1.38,0,0,1-1.38-1.82l3.49-13.66A2.53,2.53,0,0,1,419,124h1a1.38,1.38,0,0,1,1.38,1.82l-3.49,13.66A2.53,2.53,0,0,1,415.62,141.26Z" style="fill: gray"/>
      <ellipse cx="245.89" cy="136.23" rx="7.63" ry="4.75" style="fill: #666"/>
      <ellipse cx="264.65" cy="136.23" rx="7.63" ry="4.75" style="fill: #666"/>
      <ellipse cx="244.35" cy="146.73" rx="7.63" ry="4.75" style="fill: #4d4d4d"/>
      <ellipse cx="263.11" cy="146.73" rx="7.63" ry="4.75" style="fill: #4d4d4d"/>
      <line x1="417.5" y1="103.52" x2="399.9" y2="171.11" style="fill: none;stroke-miterlimit: 10;stroke-width: 2px;stroke: url(#bl)"/>
      <path d="M399.26,140.26h-1a1.38,1.38,0,0,1-1.38-1.82l3.49-13.66a2.53,2.53,0,0,1,2.32-1.82h1a1.38,1.38,0,0,1,1.38,1.82l-3.49,13.66A2.53,2.53,0,0,1,399.26,140.26Z" style="fill: url(#bm)"/>
      <path d="M414.62,140.26h-1a1.38,1.38,0,0,1-1.38-1.82l3.49-13.66A2.53,2.53,0,0,1,418,123h1a1.38,1.38,0,0,1,1.38,1.82l-3.49,13.66A2.53,2.53,0,0,1,414.62,140.26Z" style="fill: url(#bn)"/>
      <polygon points="133.07 83.38 202.49 81.67 210.9 125.88 150.67 125.88 133.07 83.38" style="fill: url(#bo)"/>
    </g>
  </g>
</svg>
