<svg xmlns="http://www.w3.org/2000/svg" xmlns:xlink="http://www.w3.org/1999/xlink" width="600" height="400" viewBox="0 0 600 400">
  <defs>
    <linearGradient id="a" x1="173.71" y1="240.41" x2="157.22" y2="236.05" gradientUnits="userSpaceOnUse">
      <stop offset="0" stop-color="#fff"/>
      <stop offset="1"/>
    </linearGradient>
    <linearGradient id="b" x1="300.54" y1="148.67" x2="300.54" y2="142" xlink:href="#a"/>
    <clipPath id="c">
      <path d="M463.72,207.42c-9.26-17.19-7.76-35.88-21.79-52.72a2.45,2.45,0,0,0-.58-.52h0l-.33-2.46c0-6.17,8.46-13.43,12-18.05s-7.89-10.29-12.59-8c-5.9-6-16.66-7.47-15,3,.68,4.24,1.25,12.8,1,14.58a8.65,8.65,0,0,1-1.12,3.81,12.92,12.92,0,0,1-1.75,2.2l-.18,0c-10.46.25-39.35,31-47,39.23-1.58,1.26.91,2,3.55,3,1.52.57,3.12,1.85,3.11,3.06-.5.65-.7.1-1.21.94.24.85,2.7,2.22,3.57,2.68,2.06,1.07,6.33,3.26,7.88,4.85,1.23,1.26,1.3,2.2.71,4.35a6.75,6.75,0,0,0,3,2c3.09,1.12,9.94.85,11.47,3.61.6,1.08.36,2.23,1.51,2.79,3.28,1.6,5.3,0,11.3.68,3.12.33,5.19,1.61,7.44,2.91,5.23,3,7.18-1.75,14.13-.51,1.43.26,6.06,2,7.2-.45-.48-.79-1-.59-1.89-1.67.23-.85,1.71-1.37,2.56-1.55A11.68,11.68,0,0,1,454,215c2.41.22,5.66,1.38,7.78,1.31.2-1.18-.54-1.41-1.17-2.17-1.51-1.82.66-2.67,2.62-2.81.39,0,1,0,1.36,0,.74-.1.52-.22,1-.53A28.84,28.84,0,0,0,463.72,207.42Z" style="fill: none;clip-rule: evenodd"/>
    </clipPath>
  </defs>
  <title>room</title>
  <g style="isolation: isolate">
    <g>
      <g>
        <polygon points="181.43 287.13 155.85 287.13 147.61 324.53 174.64 324.53 181.43 287.13" style="fill: red;stroke: #fff;stroke-miterlimit: 10;stroke-width: 0.9763386260272355px"/>
        <polygon points="214.43 287.13 188.85 287.13 182.49 324.53 209.52 324.53 214.43 287.13" style="fill: red;stroke: #fff;stroke-miterlimit: 10;stroke-width: 0.9763386260272355px"/>
        <polygon points="247.43 287.13 221.85 287.13 217.37 324.53 244.41 324.53 247.43 287.13" style="fill: red;stroke: #fff;stroke-miterlimit: 10;stroke-width: 0.9763386260272355px"/>
        <polygon points="280.44 287.13 254.86 287.13 252.25 324.53 279.29 324.53 280.44 287.13" style="fill: red;stroke: #fff;stroke-miterlimit: 10;stroke-width: 0.9763386260272355px"/>
        <polygon points="313.44 287.13 287.86 287.13 287.13 324.53 314.17 324.53 313.44 287.13" style="fill: red;stroke: #fff;stroke-miterlimit: 10;stroke-width: 0.9763386260272355px"/>
        <polygon points="346.44 287.13 320.87 287.13 322.02 324.53 349.05 324.53 346.44 287.13" style="fill: red;stroke: #fff;stroke-miterlimit: 10;stroke-width: 0.9763386260272355px"/>
        <polygon points="379.45 287.13 353.87 287.13 356.9 324.53 383.93 324.53 379.45 287.13" style="fill: red;stroke: #fff;stroke-miterlimit: 10;stroke-width: 0.9763386260272355px"/>
        <polygon points="412.45 287.13 386.87 287.13 391.78 324.53 418.81 324.53 412.45 287.13" style="fill: red;stroke: #fff;stroke-miterlimit: 10;stroke-width: 0.9763386260272355px"/>
        <polygon points="445.46 287.13 419.88 287.13 426.66 324.53 453.69 324.53 445.46 287.13" style="fill: red;stroke: #fff;stroke-miterlimit: 10;stroke-width: 0.9763386260272355px"/>
        <polygon points="188.92 245.79 164.96 245.79 157.75 278.52 182.99 278.52 188.92 245.79" style="fill: red;stroke: #fff;stroke-miterlimit: 10;stroke-width: 0.9763386260272355px"/>
        <polygon points="219.85 245.79 195.88 245.79 190.32 278.52 215.56 278.52 219.85 245.79" style="fill: red;stroke: #fff;stroke-miterlimit: 10;stroke-width: 0.9763386260272355px"/>
        <polygon points="250.78 245.79 226.81 245.79 222.89 278.52 248.13 278.52 250.78 245.79" style="fill: red;stroke: #fff;stroke-miterlimit: 10;stroke-width: 0.9763386260272355px"/>
        <polygon points="281.71 245.79 257.74 245.79 255.46 278.52 280.7 278.52 281.71 245.79" style="fill: red;stroke: #fff;stroke-miterlimit: 10;stroke-width: 0.9763386260272355px"/>
        <polygon points="312.64 245.79 288.67 245.79 288.03 278.52 313.27 278.52 312.64 245.79" style="fill: red;stroke: #fff;stroke-miterlimit: 10;stroke-width: 0.9763386260272355px"/>
        <polygon points="343.56 245.79 319.6 245.79 320.6 278.52 345.85 278.52 343.56 245.79" style="fill: red;stroke: #fff;stroke-miterlimit: 10;stroke-width: 0.9763386260272355px"/>
        <polygon points="374.49 245.79 350.52 245.79 353.17 278.52 378.42 278.52 374.49 245.79" style="fill: red;stroke: #fff;stroke-miterlimit: 10;stroke-width: 0.9763386260272355px"/>
        <polygon points="405.42 245.79 381.45 245.79 385.74 278.52 410.99 278.52 405.42 245.79" style="fill: red;stroke: #fff;stroke-miterlimit: 10;stroke-width: 0.9763386260272355px"/>
        <polygon points="436.35 245.79 412.38 245.79 418.31 278.52 443.56 278.52 436.35 245.79" style="fill: red;stroke: #fff;stroke-miterlimit: 10;stroke-width: 0.9763386260272355px"/>
        <polygon points="195.53 209.35 172.98 209.35 166.62 238.22 190.3 238.22 195.53 209.35" style="fill: red;stroke: #fff;stroke-miterlimit: 10;stroke-width: 0.9763386260272355px"/>
        <polygon points="224.63 209.35 202.08 209.35 197.17 238.22 220.85 238.22 224.63 209.35" style="fill: red;stroke: #fff;stroke-miterlimit: 10;stroke-width: 0.9763386260272355px"/>
        <polygon points="253.73 209.35 231.18 209.35 227.72 238.22 251.39 238.22 253.73 209.35" style="fill: red;stroke: #fff;stroke-miterlimit: 10;stroke-width: 0.9763386260272355px"/>
        <polygon points="282.83 209.35 260.28 209.35 258.27 238.22 281.94 238.22 282.83 209.35" style="fill: red;stroke: #fff;stroke-miterlimit: 10;stroke-width: 0.9763386260272355px"/>
        <polygon points="311.93 209.35 289.38 209.35 288.81 238.22 312.49 238.22 311.93 209.35" style="fill: red;stroke: #fff;stroke-miterlimit: 10;stroke-width: 0.9763386260272355px"/>
        <polygon points="341.03 209.35 318.47 209.35 319.36 238.22 343.04 238.22 341.03 209.35" style="fill: red;stroke: #fff;stroke-miterlimit: 10;stroke-width: 0.9763386260272355px"/>
        <polygon points="370.12 209.35 347.57 209.35 349.91 238.22 373.58 238.22 370.12 209.35" style="fill: red;stroke: #fff;stroke-miterlimit: 10;stroke-width: 0.9763386260272355px"/>
        <polygon points="399.22 209.35 376.67 209.35 380.46 238.22 404.13 238.22 399.22 209.35" style="fill: red;stroke: #fff;stroke-miterlimit: 10;stroke-width: 0.9763386260272355px"/>
        <polygon points="428.32 209.35 405.77 209.35 411.01 238.22 434.68 238.22 428.32 209.35" style="fill: red;stroke: #fff;stroke-miterlimit: 10;stroke-width: 0.9763386260272355px"/>
        <polygon points="201.41 176.97 180.12 176.97 174.46 202.64 196.75 202.64 201.41 176.97" style="fill: red;stroke: #fff;stroke-miterlimit: 10;stroke-width: 0.9763386260272355px"/>
        <polygon points="228.88 176.97 207.59 176.97 203.22 202.64 225.51 202.64 228.88 176.97" style="fill: red;stroke: #fff;stroke-miterlimit: 10;stroke-width: 0.9763386260272355px"/>
        <polygon points="256.35 176.97 235.06 176.97 231.98 202.64 254.28 202.64 256.35 176.97" style="fill: red;stroke: #fff;stroke-miterlimit: 10;stroke-width: 0.9763386260272355px"/>
        <polygon points="283.82 176.97 262.53 176.97 260.75 202.64 283.04 202.64 283.82 176.97" style="fill: red;stroke: #fff;stroke-miterlimit: 10;stroke-width: 0.9763386260272355px"/>
        <polygon points="311.3 176.97 290.01 176.97 289.51 202.64 311.8 202.64 311.3 176.97" style="fill: red;stroke: #fff;stroke-miterlimit: 10;stroke-width: 0.9763386260272355px"/>
        <polygon points="338.77 176.97 317.48 176.97 318.27 202.64 340.56 202.64 338.77 176.97" style="fill: red;stroke: #fff;stroke-miterlimit: 10;stroke-width: 0.9763386260272355px"/>
        <polygon points="366.24 176.97 344.95 176.97 347.03 202.64 369.32 202.64 366.24 176.97" style="fill: red;stroke: #fff;stroke-miterlimit: 10;stroke-width: 0.9763386260272355px"/>
        <polygon points="393.71 176.97 372.42 176.97 375.79 202.64 398.08 202.64 393.71 176.97" style="fill: red;stroke: #fff;stroke-miterlimit: 10;stroke-width: 0.9763386260272355px"/>
        <polygon points="421.19 176.97 399.9 176.97 404.55 202.64 426.84 202.64 421.19 176.97" style="fill: red;stroke: #fff;stroke-miterlimit: 10;stroke-width: 0.9763386260272355px"/>
        <polygon points="206.66 148.02 186.49 148.02 181.43 170.99 202.49 170.99 206.66 148.02" style="fill: red;stroke: #fff;stroke-miterlimit: 10;stroke-width: 0.9763386260272355px"/>
        <polygon points="232.68 148.02 212.51 148.02 208.61 170.99 229.66 170.99 232.68 148.02" style="fill: red;stroke: #fff;stroke-miterlimit: 10;stroke-width: 0.9763386260272355px"/>
        <polygon points="258.7 148.02 238.53 148.02 235.78 170.99 256.84 170.99 258.7 148.02" style="fill: red;stroke: #fff;stroke-miterlimit: 10;stroke-width: 0.9763386260272355px"/>
        <polygon points="284.71 148.02 264.55 148.02 262.95 170.99 284.01 170.99 284.71 148.02" style="fill: red;stroke: #fff;stroke-miterlimit: 10;stroke-width: 0.9763386260272355px"/>
        <polygon points="310.73 148.02 290.57 148.02 290.12 170.99 311.18 170.99 310.73 148.02" style="fill: red;stroke: #fff;stroke-miterlimit: 10;stroke-width: 0.9763386260272355px"/>
        <polygon points="336.75 148.02 316.59 148.02 317.29 170.99 338.35 170.99 336.75 148.02" style="fill: red;stroke: #fff;stroke-miterlimit: 10;stroke-width: 0.9763386260272355px"/>
        <polygon points="362.77 148.02 342.61 148.02 344.47 170.99 365.52 170.99 362.77 148.02" style="fill: red;stroke: #fff;stroke-miterlimit: 10;stroke-width: 0.9763386260272355px"/>
        <polygon points="388.79 148.02 368.63 148.02 371.64 170.99 392.7 170.99 388.79 148.02" style="fill: red;stroke: #fff;stroke-miterlimit: 10;stroke-width: 0.9763386260272355px"/>
        <polygon points="414.81 148.02 394.64 148.02 398.81 170.99 419.87 170.99 414.81 148.02" style="fill: red;stroke: #fff;stroke-miterlimit: 10;stroke-width: 0.9763386260272355px"/>
      </g>
      <polygon points="124.5 334.7 179.5 140.5 421.15 140.71 475.91 334.7 124.5 334.7" style="fill: #998675"/>
      <line x1="166.88" y1="334.5" x2="208.64" y2="140.71" style="fill: none;stroke: #000;stroke-miterlimit: 10;mix-blend-mode: overlay"/>
      <line x1="208.64" y1="334.7" x2="238.08" y2="139.78" style="fill: none;stroke: #000;stroke-miterlimit: 10;mix-blend-mode: overlay"/>
      <line x1="252.54" y1="333.76" x2="265.8" y2="140.39" style="fill: none;stroke: #000;stroke-miterlimit: 10;mix-blend-mode: overlay"/>
      <line x1="300" y1="334.7" x2="300.61" y2="139.78" style="fill: none;stroke: #000;stroke-miterlimit: 10;mix-blend-mode: overlay"/>
      <line x1="348.46" y1="334.7" x2="334.47" y2="140.71" style="fill: none;stroke: #000;stroke-miterlimit: 10;mix-blend-mode: overlay"/>
      <line x1="391.39" y1="333.76" x2="363.06" y2="140.71" style="fill: none;stroke: #000;stroke-miterlimit: 10;mix-blend-mode: overlay"/>
      <line x1="433.96" y1="333.76" x2="392.36" y2="140.71" style="fill: none;stroke: #000;stroke-miterlimit: 10;mix-blend-mode: overlay"/>
      <g style="opacity: 0.5;mix-blend-mode: screen">
        <line x1="167.88" y1="334.5" x2="209.64" y2="140.71" style="fill: none;stroke: #fff;stroke-miterlimit: 10;mix-blend-mode: overlay"/>
      </g>
      <g style="opacity: 0.5;mix-blend-mode: screen">
        <line x1="209.64" y1="334.7" x2="239.08" y2="139.78" style="fill: none;stroke: #fff;stroke-miterlimit: 10;mix-blend-mode: overlay"/>
      </g>
      <g style="opacity: 0.5;mix-blend-mode: screen">
        <line x1="253.54" y1="333.76" x2="266.8" y2="140.39" style="fill: none;stroke: #fff;stroke-miterlimit: 10;mix-blend-mode: overlay"/>
      </g>
      <g style="opacity: 0.5;mix-blend-mode: screen">
        <line x1="301" y1="334.7" x2="301.61" y2="139.78" style="fill: none;stroke: #fff;stroke-miterlimit: 10;mix-blend-mode: overlay"/>
      </g>
      <g style="opacity: 0.5;mix-blend-mode: screen">
        <line x1="349.46" y1="334.7" x2="335.47" y2="140.71" style="fill: none;stroke: #fff;stroke-miterlimit: 10;mix-blend-mode: overlay"/>
      </g>
      <g style="opacity: 0.5;mix-blend-mode: screen">
        <line x1="392.39" y1="333.76" x2="364.06" y2="140.71" style="fill: none;stroke: #fff;stroke-miterlimit: 10;mix-blend-mode: overlay"/>
      </g>
      <g style="opacity: 0.5;mix-blend-mode: screen">
        <line x1="434.96" y1="333.76" x2="393.36" y2="140.71" style="fill: none;stroke: #fff;stroke-miterlimit: 10;mix-blend-mode: overlay"/>
      </g>
      <polygon points="124.5 334.7 153.18 334.5 202.49 140.71 179.5 140.5 124.5 334.7" style="opacity: 0.3;mix-blend-mode: multiply;fill: url(#a)"/>
      <polygon points="179.5 140.5 421.15 140.71 424.23 150.02 176.85 150.02 179.5 140.5" style="opacity: 0.2;mix-blend-mode: multiply;fill: url(#b)"/>
    </g>
    <g>
      <polygon points="53.5 254.5 125.5 334.5 179.5 140.5 421.5 140.5 475.5 334.5 547.5 254.5 454.5 54.5 146.5 54.5 53.5 254.5" style="fill: #fff68d"/>
      <polygon points="454.94 54.66 146.28 54.66 178.97 140.71 422.25 140.71 454.94 54.66" style="opacity: 0.3;mix-blend-mode: multiply"/>
      <polygon points="125.5 334.5 53.5 254.5 145.5 54.5 179.5 140.5 125.5 334.5" style="opacity: 0.5;mix-blend-mode: multiply"/>
      <polygon points="475.5 334.5 547.5 254.5 455.5 54.5 421.5 140.5 475.5 334.5" style="opacity: 0.1;mix-blend-mode: multiply"/>
      <polygon points="53.5 254.5 547.5 254.5 475.5 334.5 125.5 334.5 53.5 254.5" style="fill: #fff68d;opacity: 0.3"/>
    </g>
    <g>
      <polygon points="365.03 261.56 235.97 261.56 252.61 334.7 348.39 334.7 365.03 261.56" style="fill: #754c24"/>
      <polygon points="238.08 255.67 235.97 261.56 365.03 261.56 363.06 255.67 238.08 255.67" style="fill: #a67c52"/>
    </g>
    <g>
      <polygon points="182.49 145.26 237.26 145.26 230.71 188.59 170.48 187.4 182.49 145.26" style="fill: #87451f;fill-rule: evenodd"/>
      <polygon points="237.26 145.26 233.78 114 226.33 163 230.71 188.59 237.26 145.26" style="fill: #a27558;fill-rule: evenodd"/>
      <polygon points="226.33 163 163.5 163 170.48 187.4 230.71 188.59 226.33 163" style="fill: #c48a57;fill-rule: evenodd"/>
      <polygon points="163.5 163 174.46 116 233.78 114 226.33 163 163.5 163" style="fill: #e5af82;fill-rule: evenodd"/>
      <polygon points="230.93 114.98 229.45 83.71 220 132.71 224.38 158.31 230.93 114.98" style="fill: #a27558;fill-rule: evenodd"/>
      <polygon points="220 132.71 157.17 132.71 164.15 157.11 224.38 158.31 220 132.71" style="fill: #c48a57;fill-rule: evenodd"/>
      <polygon points="157.17 132.71 168.13 85.71 229.45 83.71 220 132.71 157.17 132.71" style="fill: #e5af82;fill-rule: evenodd"/>
      <g>
        <path d="M431.87,80.63c1.82-1.34,5.65-4.66,5.49-7a3,3,0,0,0-3.4-2.79,3.59,3.59,0,0,0-3,3.51c-.13-.2-.53-.37-.55-.58-.16-1.85,1.86-3.44,3-3.65a3.94,3.94,0,0,1,4.67,2.54c1.24,3.79-3.3,6.17-5.32,8.27l.7.24c1.36.46,2.66,1,3.14,2.65l.36,1.45c1.61,4.68,5.36,8,9.47,10.57,1.51.94,1.17.9.43,2.75-4.8-2-12.64-10.85-16.59-12.27-1.87-.67-7.82-.83-9.64-.68-2.76.22-8.12.09-10.63-.82l1.06-1.86c3.86.8,10.63.82,14.24-1.1C428.43,80.19,427,79,431.87,80.63Z" style="fill: #897870;fill-rule: evenodd"/>
        <g>
          <path d="M412.52,83l3.63.48,6.48,25.21,21.58-14.79L446.93,96l-4.78,18.47a17.51,17.51,0,0,1-3,4.21c-1.55,1.37-10.56,10.62-10.88,16.73s2,16.59-.09,22.29-20.83,47.86-20.83,47.86l-36.74-14.33,13.65-45.64s4.14-11.62,13.35-16.85c6.87-5.93,5.43-16.5,5.43-16.5s-2.07-7,.36-12.16S412.52,83,412.52,83Z" style="fill: #000084"/>
          <path d="M409.16,89.07c-.92,1.69-1.92,3.55-2.87,5.33L417.57,89l-.9-3.52Z" style="fill: #fff"/>
          <path d="M403.69,99.5l-.29.6a12.67,12.67,0,0,0-1.07,4l17-8.19-.9-3.52Z" style="fill: #fff"/>
          <path d="M402.3,108a25.13,25.13,0,0,0,.58,3.67l18.26-8.78-.9-3.52Z" style="fill: #fff"/>
          <path d="M422.63,108.66l-.62-2.4-18.86,9.07a24.48,24.48,0,0,1-.47,4.18l43.59-21,.66-2.54-1.37-1.07-9.7,4.67Z" style="fill: #fff"/>
          <path d="M401.17,124.08a14.51,14.51,0,0,1-3.55,4.67,23.4,23.4,0,0,0-4,2.92L444,107.44l1.17-4.51Z" style="fill: #fff"/>
          <path d="M385.13,143.53l55.65-26.77a22.8,22.8,0,0,0,1.37-2.29l.69-2.66-54.72,26.32A42,42,0,0,0,385.13,143.53Z" style="fill: #fff"/>
          <path d="M383.5,148.16l-1.38,4.62,48.25-23.21a44,44,0,0,1,4.26-6Z" style="fill: #fff"/>
          <path d="M379.4,161.87l48.89-23.52c0-1.05-.06-2,0-2.93a7.75,7.75,0,0,1,.14-1.08l-47.64,22.92Z" style="fill: #fff"/>
          <path d="M428.85,145.87c-.1-1.28-.21-2.56-.31-3.8l-50.48,24.28L376.68,171Z" style="fill: #fff"/>
          <path d="M429,153.59a37.13,37.13,0,0,0,.06-4l-53.72,25.84L374,180.07Z" style="fill: #fff"/>
          <path d="M426.1,162.77c1-2.27,1.68-4,2-4.93l-55.52,26.71-1.38,4.62Z" style="fill: #fff"/>
          <path d="M421.87,172.6l2.17-5L373,192.17l4.54,1.77Z" style="fill: #fff"/>
          <path d="M386.45,197.43l31.1-15,2.19-5-37.83,18.2Z" style="fill: #fff"/>
          <path d="M395.4,200.91l17.81-8.57,2.21-5-24.55,11.81Z" style="fill: #fff"/>
          <path d="M404.34,204.4l4.49-2.16,2.22-5-11.25,5.41Z" style="fill: #fff"/>
        </g>
      </g>
      <g>
        <path d="M444.33,107.55c1.72-1.47,5.28-5.08,4.94-7.4a3,3,0,0,0-3.61-2.52,3.59,3.59,0,0,0-2.73,3.73c-.15-.19-.56-.33-.59-.54-.3-1.83,1.59-3.58,2.73-3.87a3.94,3.94,0,0,1,4.85,2.17c1.53,3.69-2.81,6.4-4.67,8.66l.71.18c1.39.36,2.73.79,3.34,2.4l.47,1.42c2,4.54,6,7.56,10.25,9.81,1.57.83,1.24.81.64,2.71-4.94-1.65-13.44-9.84-17.49-11-1.91-.53-7.86-.22-9.67.07-2.73.43-8.08.71-10.66,0l.91-1.94c3.91.5,10.66,0,14.12-2.2C440.86,107.37,439.33,106.35,444.33,107.55Z" style="fill: #897870;fill-rule: evenodd"/>
        <g>
          <g>
            <path d="M430.9,111.72a29.71,29.71,0,0,0-1.44,9.52c.07,1.52,2.45,1.56,2.38,0a27.61,27.61,0,0,1,1.35-8.89,1.19,1.19,0,0,0-2.28-.65Z" style="fill: #f7c6ca"/>
            <path d="M452.94,118a27.61,27.61,0,0,1-3.55,8.26c-.87,1.26,1.16,2.49,2,1.24a29.71,29.71,0,0,0,3.81-8.85,1.19,1.19,0,0,0-2.28-.65Z" style="fill: #f7c6ca"/>
          </g>
          <path d="M463.72,207.42c-9.26-17.19-7.76-35.88-21.79-52.72a2.45,2.45,0,0,0-.58-.52h0l-.33-2.46c0-6.17,8.46-13.43,12-18.05s-7.89-10.29-12.59-8c-5.9-6-16.66-7.47-15,3,.68,4.24,1.25,12.8,1,14.58a8.65,8.65,0,0,1-1.12,3.81,12.92,12.92,0,0,1-1.75,2.2l-.18,0c-10.46.25-39.35,31-47,39.23-1.58,1.26.91,2,3.55,3,1.52.57,3.12,1.85,3.11,3.06-.5.65-.7.1-1.21.94.24.85,2.7,2.22,3.57,2.68,2.06,1.07,6.33,3.26,7.88,4.85,1.23,1.26,1.3,2.2.71,4.35a6.75,6.75,0,0,0,3,2c3.09,1.12,9.94.85,11.47,3.61.6,1.08.36,2.23,1.51,2.79,3.28,1.6,5.3,0,11.3.68,3.12.33,5.19,1.61,7.44,2.91,5.23,3,7.18-1.75,14.13-.51,1.43.26,6.06,2,7.2-.45-.48-.79-1-.59-1.89-1.67.23-.85,1.71-1.37,2.56-1.55A11.68,11.68,0,0,1,454,215c2.41.22,5.66,1.38,7.78,1.31.2-1.18-.54-1.41-1.17-2.17-1.51-1.82.66-2.67,2.62-2.81.39,0,1,0,1.36,0,.74-.1.52-.22,1-.53A28.84,28.84,0,0,0,463.72,207.42Z" style="fill: #f7c6ca;fill-rule: evenodd"/>
          <g style="clip-path: url(#c)">
            <g>
              <g>
                <circle cx="390.6" cy="206.43" r="1.19" transform="translate(84.82 525.3) rotate(-74.06)" style="fill: #5d5d5d"/>
                <circle cx="384.32" cy="204.63" r="1.19" transform="matrix(0.27, -0.96, 0.96, 0.27, 81.99, 517.96)" style="fill: #5d5d5d"/>
                <circle cx="378.03" cy="202.84" r="1.19" transform="translate(79.16 510.62) rotate(-74.06)" style="fill: #5d5d5d"/>
                <circle cx="371.75" cy="201.04" r="1.19" transform="translate(76.33 503.28) rotate(-74.06)" style="fill: #5d5d5d"/>
                <circle cx="395.83" cy="207.92" r="1.19" transform="translate(87.18 531.42) rotate(-74.06)" style="fill: #5d5d5d"/>
                <circle cx="401.06" cy="209.42" r="1.19" transform="translate(89.54 537.53) rotate(-74.06)" style="fill: #5d5d5d"/>
                <circle cx="406.3" cy="210.91" r="1.19" transform="translate(91.9 543.65) rotate(-74.06)" style="fill: #5d5d5d"/>
                <circle cx="411.53" cy="212.41" r="1.19" transform="matrix(0.27, -0.96, 0.96, 0.27, 94.26, 549.77)" style="fill: #5d5d5d"/>
                <circle cx="416.76" cy="213.9" r="1.19" transform="translate(96.62 555.88) rotate(-74.06)" style="fill: #5d5d5d"/>
                <circle cx="422" cy="215.4" r="1.19" transform="translate(98.98 562) rotate(-74.06)" style="fill: #5d5d5d"/>
                <circle cx="427.23" cy="216.89" r="1.19" transform="translate(101.33 568.12) rotate(-74.06)" style="fill: #5d5d5d"/>
                <circle cx="432.46" cy="218.39" r="1.19" transform="translate(103.69 574.23) rotate(-74.06)" style="fill: #5d5d5d"/>
                <circle cx="437.7" cy="219.88" r="1.19" transform="translate(106.05 580.35) rotate(-74.06)" style="fill: #5d5d5d"/>
                <circle cx="442.93" cy="221.38" r="1.19" transform="translate(108.41 586.47) rotate(-74.06)" style="fill: #5d5d5d"/>
                <circle cx="448.17" cy="222.87" r="1.19" transform="translate(110.77 592.58) rotate(-74.06)" style="fill: #5d5d5d"/>
                <circle cx="453.4" cy="224.37" r="1.19" transform="translate(113.13 598.7) rotate(-74.06)" style="fill: #5d5d5d"/>
                <circle cx="458.63" cy="225.86" r="1.19" transform="translate(115.49 604.82) rotate(-74.06)" style="fill: #5d5d5d"/>
                <circle cx="463.87" cy="227.36" r="1.19" transform="translate(117.84 610.93) rotate(-74.06)" style="fill: #5d5d5d"/>
              </g>
              <g>
                <circle cx="391.79" cy="202.24" r="1.19" transform="translate(89.72 523.41) rotate(-74.06)" style="fill: #5d5d5d"/>
                <circle cx="385.51" cy="200.45" r="1.19" transform="matrix(0.27, -0.96, 0.96, 0.27, 86.89, 516.07)" style="fill: #5d5d5d"/>
                <circle cx="379.23" cy="198.65" r="1.19" transform="translate(84.06 508.73) rotate(-74.06)" style="fill: #5d5d5d"/>
                <circle cx="372.95" cy="196.86" r="1.19" transform="translate(81.23 501.39) rotate(-74.06)" style="fill: #5d5d5d"/>
                <circle cx="397.03" cy="203.73" r="1.19" transform="translate(92.08 529.53) rotate(-74.06)" style="fill: #5d5d5d"/>
                <circle cx="402.26" cy="205.23" r="1.19" transform="translate(94.43 535.65) rotate(-74.06)" style="fill: #5d5d5d"/>
                <circle cx="407.49" cy="206.72" r="1.19" transform="translate(96.79 541.76) rotate(-74.06)" style="fill: #5d5d5d"/>
                <circle cx="412.73" cy="208.22" r="1.19" transform="matrix(0.27, -0.96, 0.96, 0.27, 99.15, 547.88)" style="fill: #5d5d5d"/>
                <circle cx="417.96" cy="209.71" r="1.19" transform="translate(101.51 554) rotate(-74.06)" style="fill: #5d5d5d"/>
                <circle cx="423.19" cy="211.21" r="1.19" transform="translate(103.87 560.11) rotate(-74.06)" style="fill: #5d5d5d"/>
                <circle cx="428.43" cy="212.7" r="1.19" transform="translate(106.23 566.23) rotate(-74.06)" style="fill: #5d5d5d"/>
                <circle cx="433.66" cy="214.2" r="1.19" transform="translate(108.59 572.35) rotate(-74.06)" style="fill: #5d5d5d"/>
                <circle cx="438.89" cy="215.69" r="1.19" transform="translate(110.94 578.46) rotate(-74.06)" style="fill: #5d5d5d"/>
                <circle cx="444.13" cy="217.19" r="1.19" transform="translate(113.3 584.58) rotate(-74.06)" style="fill: #5d5d5d"/>
                <circle cx="449.36" cy="218.68" r="1.19" transform="translate(115.66 590.7) rotate(-74.06)" style="fill: #5d5d5d"/>
                <circle cx="454.6" cy="220.18" r="1.19" transform="translate(118.02 596.81) rotate(-74.06)" style="fill: #5d5d5d"/>
                <circle cx="459.83" cy="221.67" r="1.19" transform="translate(120.38 602.93) rotate(-74.06)" style="fill: #5d5d5d"/>
                <circle cx="465.06" cy="223.17" r="1.19" transform="translate(122.74 609.05) rotate(-74.06)" style="fill: #5d5d5d"/>
              </g>
              <g>
                <circle cx="392.99" cy="198.05" r="1.19" transform="translate(94.61 521.53) rotate(-74.06)" style="fill: #5d5d5d"/>
                <circle cx="386.71" cy="196.26" r="1.19" transform="translate(91.78 514.19) rotate(-74.06)" style="fill: #5d5d5d"/>
                <circle cx="380.43" cy="194.46" r="1.19" transform="translate(88.95 506.85) rotate(-74.06)" style="fill: #5d5d5d"/>
                <circle cx="374.15" cy="192.67" r="1.19" transform="matrix(0.27, -0.96, 0.96, 0.27, 86.12, 499.51)" style="fill: #5d5d5d"/>
                <circle cx="398.22" cy="199.55" r="1.19" transform="translate(96.97 527.64) rotate(-74.06)" style="fill: #5d5d5d"/>
                <circle cx="403.45" cy="201.04" r="1.19" transform="translate(99.33 533.76) rotate(-74.06)" style="fill: #5d5d5d"/>
                <circle cx="408.69" cy="202.54" r="1.19" transform="translate(101.69 539.88) rotate(-74.06)" style="fill: #5d5d5d"/>
                <circle cx="413.92" cy="204.03" r="1.19" transform="translate(104.04 545.99) rotate(-74.06)" style="fill: #5d5d5d"/>
                <circle cx="419.16" cy="205.53" r="1.19" transform="translate(106.4 552.11) rotate(-74.06)" style="fill: #5d5d5d"/>
                <circle cx="424.39" cy="207.02" r="1.19" transform="translate(108.76 558.23) rotate(-74.06)" style="fill: #5d5d5d"/>
                <circle cx="429.62" cy="208.52" r="1.19" transform="translate(111.12 564.34) rotate(-74.06)" style="fill: #5d5d5d"/>
                <circle cx="434.86" cy="210.01" r="1.19" transform="translate(113.48 570.46) rotate(-74.06)" style="fill: #5d5d5d"/>
                <circle cx="440.09" cy="211.51" r="1.19" transform="translate(115.84 576.58) rotate(-74.06)" style="fill: #5d5d5d"/>
                <circle cx="445.32" cy="213" r="1.19" transform="translate(118.2 582.69) rotate(-74.06)" style="fill: #5d5d5d"/>
                <circle cx="450.56" cy="214.5" r="1.19" transform="translate(120.55 588.81) rotate(-74.06)" style="fill: #5d5d5d"/>
                <circle cx="455.79" cy="215.99" r="1.19" transform="translate(122.91 594.93) rotate(-74.06)" style="fill: #5d5d5d"/>
                <circle cx="461.02" cy="217.49" r="1.19" transform="translate(125.27 601.04) rotate(-74.06)" style="fill: #5d5d5d"/>
                <circle cx="466.26" cy="218.98" r="1.19" transform="translate(127.63 607.16) rotate(-74.06)" style="fill: #5d5d5d"/>
              </g>
              <g>
                <circle cx="394.18" cy="193.87" r="1.19" transform="translate(99.5 519.64) rotate(-74.06)" style="fill: #5d5d5d"/>
                <circle cx="387.9" cy="192.07" r="1.19" transform="translate(96.67 512.3) rotate(-74.06)" style="fill: #5d5d5d"/>
                <circle cx="381.62" cy="190.28" r="1.19" transform="translate(93.84 504.96) rotate(-74.06)" style="fill: #5d5d5d"/>
                <circle cx="375.34" cy="188.48" r="1.19" transform="translate(91.01 497.62) rotate(-74.06)" style="fill: #5d5d5d"/>
                <circle cx="399.42" cy="195.36" r="1.19" transform="translate(101.86 525.76) rotate(-74.06)" style="fill: #5d5d5d"/>
                <circle cx="404.65" cy="196.86" r="1.19" transform="translate(104.22 531.87) rotate(-74.06)" style="fill: #5d5d5d"/>
                <circle cx="409.88" cy="198.35" r="1.19" transform="translate(106.58 537.99) rotate(-74.06)" style="fill: #5d5d5d"/>
                <circle cx="415.12" cy="199.85" r="1.19" transform="translate(108.94 544.11) rotate(-74.06)" style="fill: #5d5d5d"/>
                <circle cx="420.35" cy="201.34" r="1.19" transform="translate(111.3 550.22) rotate(-74.06)" style="fill: #5d5d5d"/>
                <circle cx="425.59" cy="202.84" r="1.19" transform="translate(113.66 556.34) rotate(-74.06)" style="fill: #5d5d5d"/>
                <circle cx="430.82" cy="204.33" r="1.19" transform="matrix(0.27, -0.96, 0.96, 0.27, 116.01, 562.46)" style="fill: #5d5d5d"/>
                <circle cx="436.05" cy="205.83" r="1.19" transform="translate(118.37 568.57) rotate(-74.06)" style="fill: #5d5d5d"/>
                <circle cx="441.29" cy="207.32" r="1.19" transform="translate(120.73 574.69) rotate(-74.06)" style="fill: #5d5d5d"/>
                <circle cx="446.52" cy="208.82" r="1.19" transform="translate(123.09 580.81) rotate(-74.06)" style="fill: #5d5d5d"/>
                <circle cx="451.75" cy="210.31" r="1.19" transform="translate(125.45 586.92) rotate(-74.06)" style="fill: #5d5d5d"/>
                <circle cx="456.99" cy="211.81" r="1.19" transform="translate(127.81 593.04) rotate(-74.06)" style="fill: #5d5d5d"/>
                <circle cx="462.22" cy="213.3" r="1.19" transform="translate(130.17 599.16) rotate(-74.06)" style="fill: #5d5d5d"/>
                <circle cx="467.45" cy="214.8" r="1.19" transform="translate(132.52 605.27) rotate(-74.06)" style="fill: #5d5d5d"/>
              </g>
              <g>
                <circle cx="395.38" cy="189.68" r="1.19" transform="translate(104.4 517.75) rotate(-74.06)" style="fill: #5d5d5d"/>
                <circle cx="389.1" cy="187.88" r="1.19" transform="translate(101.57 510.41) rotate(-74.06)" style="fill: #5d5d5d"/>
                <circle cx="382.82" cy="186.09" r="1.19" transform="matrix(0.27, -0.96, 0.96, 0.27, 98.74, 503.07)" style="fill: #5d5d5d"/>
                <circle cx="376.54" cy="184.3" r="1.19" transform="translate(95.91 495.73) rotate(-74.06)" style="fill: #5d5d5d"/>
                <circle cx="400.61" cy="191.17" r="1.19" transform="translate(106.76 523.87) rotate(-74.06)" style="fill: #5d5d5d"/>
                <circle cx="405.85" cy="192.67" r="1.19" transform="translate(109.11 529.99) rotate(-74.06)" style="fill: #5d5d5d"/>
                <circle cx="411.08" cy="194.16" r="1.19" transform="translate(111.47 536.1) rotate(-74.06)" style="fill: #5d5d5d"/>
                <circle cx="416.31" cy="195.66" r="1.19" transform="matrix(0.27, -0.96, 0.96, 0.27, 113.83, 542.22)" style="fill: #5d5d5d"/>
                <circle cx="421.55" cy="197.15" r="1.19" transform="translate(116.19 548.34) rotate(-74.06)" style="fill: #5d5d5d"/>
                <circle cx="426.78" cy="198.65" r="1.19" transform="translate(118.55 554.45) rotate(-74.06)" style="fill: #5d5d5d"/>
                <circle cx="432.02" cy="200.14" r="1.19" transform="translate(120.91 560.57) rotate(-74.06)" style="fill: #5d5d5d"/>
                <circle cx="437.25" cy="201.64" r="1.19" transform="translate(123.27 566.69) rotate(-74.06)" style="fill: #5d5d5d"/>
                <circle cx="442.48" cy="203.13" r="1.19" transform="translate(125.62 572.8) rotate(-74.06)" style="fill: #5d5d5d"/>
                <circle cx="447.72" cy="204.63" r="1.19" transform="translate(127.98 578.92) rotate(-74.06)" style="fill: #5d5d5d"/>
                <circle cx="452.95" cy="206.12" r="1.19" transform="translate(130.34 585.04) rotate(-74.06)" style="fill: #5d5d5d"/>
                <circle cx="458.18" cy="207.62" r="1.19" transform="translate(132.7 591.15) rotate(-74.06)" style="fill: #5d5d5d"/>
                <circle cx="463.42" cy="209.11" r="1.19" transform="translate(135.06 597.27) rotate(-74.06)" style="fill: #5d5d5d"/>
                <circle cx="468.65" cy="210.61" r="1.19" transform="translate(137.42 603.39) rotate(-74.06)" style="fill: #5d5d5d"/>
              </g>
              <g>
                <circle cx="396.58" cy="185.49" r="1.19" transform="translate(109.29 515.87) rotate(-74.06)" style="fill: #5d5d5d"/>
                <circle cx="390.3" cy="183.7" r="1.19" transform="translate(106.46 508.53) rotate(-74.06)" style="fill: #5d5d5d"/>
                <circle cx="384.01" cy="181.9" r="1.19" transform="matrix(0.27, -0.96, 0.96, 0.27, 103.63, 501.18)" style="fill: #5d5d5d"/>
                <circle cx="377.73" cy="180.11" r="1.19" transform="translate(100.8 493.84) rotate(-74.06)" style="fill: #5d5d5d"/>
                <circle cx="401.81" cy="186.99" r="1.19" transform="translate(111.65 521.98) rotate(-74.06)" style="fill: #5d5d5d"/>
                <circle cx="407.04" cy="188.48" r="1.19" transform="translate(114.01 528.1) rotate(-74.06)" style="fill: #5d5d5d"/>
                <circle cx="412.28" cy="189.98" r="1.19" transform="translate(116.37 534.22) rotate(-74.06)" style="fill: #5d5d5d"/>
                <circle cx="417.51" cy="191.47" r="1.19" transform="matrix(0.27, -0.96, 0.96, 0.27, 118.72, 540.33)" style="fill: #5d5d5d"/>
                <circle cx="422.74" cy="192.97" r="1.19" transform="translate(121.08 546.45) rotate(-74.06)" style="fill: #5d5d5d"/>
                <circle cx="427.98" cy="194.46" r="1.19" transform="translate(123.44 552.57) rotate(-74.06)" style="fill: #5d5d5d"/>
                <circle cx="433.21" cy="195.96" r="1.19" transform="translate(125.8 558.68) rotate(-74.06)" style="fill: #5d5d5d"/>
                <circle cx="438.44" cy="197.45" r="1.19" transform="translate(128.16 564.8) rotate(-74.06)" style="fill: #5d5d5d"/>
                <circle cx="443.68" cy="198.95" r="1.19" transform="translate(130.52 570.92) rotate(-74.06)" style="fill: #5d5d5d"/>
                <circle cx="448.91" cy="200.44" r="1.19" transform="translate(132.88 577.03) rotate(-74.06)" style="fill: #5d5d5d"/>
                <circle cx="454.15" cy="201.94" r="1.19" transform="translate(135.23 583.15) rotate(-74.06)" style="fill: #5d5d5d"/>
                <circle cx="459.38" cy="203.43" r="1.19" transform="translate(137.59 589.27) rotate(-74.06)" style="fill: #5d5d5d"/>
                <circle cx="464.61" cy="204.93" r="1.19" transform="translate(139.95 595.38) rotate(-74.06)" style="fill: #5d5d5d"/>
                <circle cx="469.85" cy="206.42" r="1.19" transform="translate(142.31 601.5) rotate(-74.06)" style="fill: #5d5d5d"/>
              </g>
              <g>
                <circle cx="397.77" cy="181.3" r="1.19" transform="translate(114.18 513.98) rotate(-74.06)" style="fill: #5d5d5d"/>
                <circle cx="391.49" cy="179.51" r="1.19" transform="translate(111.35 506.64) rotate(-74.06)" style="fill: #5d5d5d"/>
                <circle cx="385.21" cy="177.72" r="1.19" transform="matrix(0.27, -0.96, 0.96, 0.27, 108.52, 499.3)" style="fill: #5d5d5d"/>
                <circle cx="378.93" cy="175.92" r="1.19" transform="translate(105.69 491.96) rotate(-74.06)" style="fill: #5d5d5d"/>
                <circle cx="403.01" cy="182.8" r="1.19" transform="translate(116.54 520.09) rotate(-74.06)" style="fill: #5d5d5d"/>
                <circle cx="408.24" cy="184.29" r="1.19" transform="translate(118.9 526.21) rotate(-74.06)" style="fill: #5d5d5d"/>
                <circle cx="413.47" cy="185.79" r="1.19" transform="translate(121.26 532.33) rotate(-74.06)" style="fill: #5d5d5d"/>
                <circle cx="418.71" cy="187.28" r="1.19" transform="matrix(0.27, -0.96, 0.96, 0.27, 123.62, 538.45)" style="fill: #5d5d5d"/>
                <circle cx="423.94" cy="188.78" r="1.19" transform="translate(125.98 544.56) rotate(-74.06)" style="fill: #5d5d5d"/>
                <circle cx="429.17" cy="190.27" r="1.19" transform="translate(128.34 550.68) rotate(-74.06)" style="fill: #5d5d5d"/>
                <circle cx="434.41" cy="191.77" r="1.19" transform="translate(130.69 556.8) rotate(-74.06)" style="fill: #5d5d5d"/>
                <circle cx="439.64" cy="193.26" r="1.19" transform="translate(133.05 562.91) rotate(-74.06)" style="fill: #5d5d5d"/>
                <circle cx="444.87" cy="194.76" r="1.19" transform="translate(135.41 569.03) rotate(-74.06)" style="fill: #5d5d5d"/>
                <circle cx="450.11" cy="196.26" r="1.19" transform="translate(137.77 575.15) rotate(-74.06)" style="fill: #5d5d5d"/>
                <circle cx="455.34" cy="197.75" r="1.19" transform="translate(140.13 581.26) rotate(-74.06)" style="fill: #5d5d5d"/>
                <circle cx="460.58" cy="199.25" r="1.19" transform="translate(142.49 587.38) rotate(-74.06)" style="fill: #5d5d5d"/>
                <circle cx="465.81" cy="200.74" r="1.19" transform="translate(144.85 593.5) rotate(-74.06)" style="fill: #5d5d5d"/>
                <circle cx="471.04" cy="202.24" r="1.19" transform="translate(147.2 599.61) rotate(-74.06)" style="fill: #5d5d5d"/>
              </g>
              <g>
                <circle cx="398.97" cy="177.12" r="1.19" transform="translate(119.08 512.09) rotate(-74.06)" style="fill: #5d5d5d"/>
                <circle cx="392.69" cy="175.32" r="1.19" transform="translate(116.25 504.75) rotate(-74.06)" style="fill: #5d5d5d"/>
                <circle cx="386.41" cy="173.53" r="1.19" transform="translate(113.42 497.41) rotate(-74.06)" style="fill: #5d5d5d"/>
                <circle cx="380.13" cy="171.74" r="1.19" transform="translate(110.59 490.07) rotate(-74.06)" style="fill: #5d5d5d"/>
                <circle cx="404.2" cy="178.61" r="1.19" transform="translate(121.44 518.21) rotate(-74.06)" style="fill: #5d5d5d"/>
                <circle cx="409.43" cy="180.11" r="1.19" transform="translate(123.79 524.32) rotate(-74.06)" style="fill: #5d5d5d"/>
                <circle cx="414.67" cy="181.6" r="1.19" transform="translate(126.15 530.44) rotate(-74.06)" style="fill: #5d5d5d"/>
                <circle cx="419.9" cy="183.1" r="1.19" transform="translate(128.51 536.56) rotate(-74.06)" style="fill: #5d5d5d"/>
                <circle cx="425.14" cy="184.59" r="1.19" transform="translate(130.87 542.68) rotate(-74.06)" style="fill: #5d5d5d"/>
                <circle cx="430.37" cy="186.09" r="1.19" transform="translate(133.23 548.79) rotate(-74.06)" style="fill: #5d5d5d"/>
                <circle cx="435.6" cy="187.58" r="1.19" transform="translate(135.59 554.91) rotate(-74.06)" style="fill: #5d5d5d"/>
                <circle cx="440.84" cy="189.08" r="1.19" transform="translate(137.95 561.03) rotate(-74.06)" style="fill: #5d5d5d"/>
                <circle cx="446.07" cy="190.57" r="1.19" transform="translate(140.3 567.14) rotate(-74.06)" style="fill: #5d5d5d"/>
                <circle cx="451.3" cy="192.07" r="1.19" transform="translate(142.66 573.26) rotate(-74.06)" style="fill: #5d5d5d"/>
                <circle cx="456.54" cy="193.56" r="1.19" transform="translate(145.02 579.38) rotate(-74.06)" style="fill: #5d5d5d"/>
                <circle cx="461.77" cy="195.06" r="1.19" transform="translate(147.38 585.49) rotate(-74.06)" style="fill: #5d5d5d"/>
                <circle cx="467.01" cy="196.55" r="1.19" transform="translate(149.74 591.61) rotate(-74.06)" style="fill: #5d5d5d"/>
                <circle cx="472.24" cy="198.05" r="1.19" transform="translate(152.1 597.73) rotate(-74.06)" style="fill: #5d5d5d"/>
              </g>
              <g>
                <circle cx="400.16" cy="172.93" r="1.19" transform="translate(123.97 510.2) rotate(-74.06)" style="fill: #5d5d5d"/>
                <circle cx="393.88" cy="171.14" r="1.19" transform="matrix(0.27, -0.96, 0.96, 0.27, 121.14, 502.86)" style="fill: #5d5d5d"/>
                <circle cx="387.6" cy="169.34" r="1.19" transform="translate(118.31 495.52) rotate(-74.06)" style="fill: #5d5d5d"/>
                <circle cx="381.32" cy="167.55" r="1.19" transform="translate(115.48 488.18) rotate(-74.06)" style="fill: #5d5d5d"/>
                <circle cx="405.4" cy="174.43" r="1.19" transform="translate(126.33 516.32) rotate(-74.06)" style="fill: #5d5d5d"/>
                <circle cx="410.63" cy="175.92" r="1.19" transform="translate(128.69 522.44) rotate(-74.06)" style="fill: #5d5d5d"/>
                <circle cx="415.86" cy="177.42" r="1.19" transform="translate(131.05 528.55) rotate(-74.06)" style="fill: #5d5d5d"/>
                <circle cx="421.1" cy="178.91" r="1.19" transform="matrix(0.27, -0.96, 0.96, 0.27, 133.41, 534.67)" style="fill: #5d5d5d"/>
                <circle cx="426.33" cy="180.41" r="1.19" transform="translate(135.76 540.79) rotate(-74.06)" style="fill: #5d5d5d"/>
                <circle cx="431.57" cy="181.9" r="1.19" transform="translate(138.12 546.9) rotate(-74.06)" style="fill: #5d5d5d"/>
                <circle cx="436.8" cy="183.4" r="1.19" transform="translate(140.48 553.02) rotate(-74.06)" style="fill: #5d5d5d"/>
                <circle cx="442.03" cy="184.89" r="1.19" transform="translate(142.84 559.14) rotate(-74.06)" style="fill: #5d5d5d"/>
                <circle cx="447.27" cy="186.39" r="1.19" transform="translate(145.2 565.26) rotate(-74.06)" style="fill: #5d5d5d"/>
                <circle cx="452.5" cy="187.88" r="1.19" transform="translate(147.56 571.37) rotate(-74.06)" style="fill: #5d5d5d"/>
                <circle cx="457.73" cy="189.38" r="1.19" transform="translate(149.92 577.49) rotate(-74.06)" style="fill: #5d5d5d"/>
                <circle cx="462.97" cy="190.87" r="1.19" transform="translate(152.27 583.61) rotate(-74.06)" style="fill: #5d5d5d"/>
                <circle cx="468.2" cy="192.37" r="1.19" transform="translate(154.63 589.72) rotate(-74.06)" style="fill: #5d5d5d"/>
                <circle cx="473.43" cy="193.86" r="1.19" transform="translate(156.99 595.84) rotate(-74.06)" style="fill: #5d5d5d"/>
              </g>
              <g>
                <circle cx="401.36" cy="168.74" r="1.19" transform="translate(128.86 508.32) rotate(-74.06)" style="fill: #5d5d5d"/>
                <circle cx="395.08" cy="166.95" r="1.19" transform="matrix(0.27, -0.96, 0.96, 0.27, 126.03, 500.98)" style="fill: #5d5d5d"/>
                <circle cx="388.8" cy="165.16" r="1.19" transform="translate(123.2 493.64) rotate(-74.06)" style="fill: #5d5d5d"/>
                <circle cx="382.52" cy="163.36" r="1.19" transform="translate(120.37 486.3) rotate(-74.06)" style="fill: #5d5d5d"/>
                <circle cx="406.59" cy="170.24" r="1.19" transform="translate(131.22 514.43) rotate(-74.06)" style="fill: #5d5d5d"/>
                <circle cx="411.83" cy="171.73" r="1.19" transform="translate(133.58 520.55) rotate(-74.06)" style="fill: #5d5d5d"/>
                <circle cx="417.06" cy="173.23" r="1.19" transform="translate(135.94 526.67) rotate(-74.06)" style="fill: #5d5d5d"/>
                <circle cx="422.29" cy="174.72" r="1.19" transform="matrix(0.27, -0.96, 0.96, 0.27, 138.3, 532.78)" style="fill: #5d5d5d"/>
                <circle cx="427.53" cy="176.22" r="1.19" transform="translate(140.66 538.9) rotate(-74.06)" style="fill: #5d5d5d"/>
                <circle cx="432.76" cy="177.71" r="1.19" transform="translate(143.02 545.02) rotate(-74.06)" style="fill: #5d5d5d"/>
                <circle cx="438" cy="179.21" r="1.19" transform="translate(145.37 551.13) rotate(-74.06)" style="fill: #5d5d5d"/>
                <circle cx="443.23" cy="180.7" r="1.19" transform="translate(147.73 557.25) rotate(-74.06)" style="fill: #5d5d5d"/>
                <circle cx="448.46" cy="182.2" r="1.19" transform="translate(150.09 563.37) rotate(-74.06)" style="fill: #5d5d5d"/>
                <circle cx="453.7" cy="183.69" r="1.19" transform="translate(152.45 569.49) rotate(-74.06)" style="fill: #5d5d5d"/>
                <circle cx="458.93" cy="185.19" r="1.19" transform="translate(154.81 575.6) rotate(-74.06)" style="fill: #5d5d5d"/>
                <circle cx="464.16" cy="186.68" r="1.19" transform="translate(157.17 581.72) rotate(-74.06)" style="fill: #5d5d5d"/>
                <circle cx="469.4" cy="188.18" r="1.19" transform="translate(159.53 587.84) rotate(-74.06)" style="fill: #5d5d5d"/>
                <circle cx="474.63" cy="189.67" r="1.19" transform="translate(161.88 593.95) rotate(-74.06)" style="fill: #5d5d5d"/>
              </g>
              <g>
                <circle cx="402.56" cy="164.56" r="1.19" transform="translate(133.76 506.43) rotate(-74.06)" style="fill: #5d5d5d"/>
                <circle cx="396.28" cy="162.76" r="1.19" transform="matrix(0.27, -0.96, 0.96, 0.27, 130.93, 499.09)" style="fill: #5d5d5d"/>
                <circle cx="389.99" cy="160.97" r="1.19" transform="translate(128.1 491.75) rotate(-74.06)" style="fill: #5d5d5d"/>
                <circle cx="383.71" cy="159.17" r="1.19" transform="translate(125.27 484.41) rotate(-74.06)" style="fill: #5d5d5d"/>
                <circle cx="407.79" cy="166.05" r="1.19" transform="translate(136.12 512.55) rotate(-74.06)" style="fill: #5d5d5d"/>
                <circle cx="413.02" cy="167.55" r="1.19" transform="translate(138.47 518.66) rotate(-74.06)" style="fill: #5d5d5d"/>
                <circle cx="418.26" cy="169.04" r="1.19" transform="translate(140.83 524.78) rotate(-74.06)" style="fill: #5d5d5d"/>
                <circle cx="423.49" cy="170.54" r="1.19" transform="matrix(0.27, -0.96, 0.96, 0.27, 143.19, 530.9)" style="fill: #5d5d5d"/>
                <circle cx="428.72" cy="172.03" r="1.19" transform="translate(145.55 537.01) rotate(-74.06)" style="fill: #5d5d5d"/>
                <circle cx="433.96" cy="173.53" r="1.19" transform="translate(147.91 543.13) rotate(-74.06)" style="fill: #5d5d5d"/>
                <circle cx="439.19" cy="175.02" r="1.19" transform="translate(150.27 549.25) rotate(-74.06)" style="fill: #5d5d5d"/>
                <circle cx="444.42" cy="176.52" r="1.19" transform="translate(152.63 555.36) rotate(-74.06)" style="fill: #5d5d5d"/>
                <circle cx="449.66" cy="178.01" r="1.19" transform="translate(154.98 561.48) rotate(-74.06)" style="fill: #5d5d5d"/>
                <circle cx="454.89" cy="179.51" r="1.19" transform="translate(157.34 567.6) rotate(-74.06)" style="fill: #5d5d5d"/>
                <circle cx="460.13" cy="181" r="1.19" transform="translate(159.7 573.71) rotate(-74.06)" style="fill: #5d5d5d"/>
                <circle cx="465.36" cy="182.5" r="1.19" transform="translate(162.06 579.83) rotate(-74.06)" style="fill: #5d5d5d"/>
                <circle cx="470.59" cy="183.99" r="1.19" transform="translate(164.42 585.95) rotate(-74.06)" style="fill: #5d5d5d"/>
                <circle cx="475.83" cy="185.49" r="1.19" transform="translate(166.78 592.07) rotate(-74.06)" style="fill: #5d5d5d"/>
              </g>
              <g>
                <circle cx="403.75" cy="160.37" r="1.19" transform="translate(138.65 504.54) rotate(-74.06)" style="fill: #5d5d5d"/>
                <circle cx="397.47" cy="158.58" r="1.19" transform="translate(135.82 497.2) rotate(-74.06)" style="fill: #5d5d5d"/>
                <circle cx="391.19" cy="156.78" r="1.19" transform="translate(132.99 489.86) rotate(-74.06)" style="fill: #5d5d5d"/>
                <circle cx="384.91" cy="154.99" r="1.19" transform="matrix(0.27, -0.96, 0.96, 0.27, 130.16, 482.52)" style="fill: #5d5d5d"/>
                <circle cx="408.99" cy="161.87" r="1.19" transform="translate(141.01 510.66) rotate(-74.06)" style="fill: #5d5d5d"/>
                <circle cx="414.22" cy="163.36" r="1.19" transform="translate(143.37 516.78) rotate(-74.06)" style="fill: #5d5d5d"/>
                <circle cx="419.45" cy="164.86" r="1.19" transform="translate(145.73 522.89) rotate(-74.06)" style="fill: #5d5d5d"/>
                <circle cx="424.69" cy="166.35" r="1.19" transform="translate(148.09 529.01) rotate(-74.06)" style="fill: #5d5d5d"/>
                <circle cx="429.92" cy="167.85" r="1.19" transform="translate(150.44 535.13) rotate(-74.06)" style="fill: #5d5d5d"/>
                <circle cx="435.15" cy="169.34" r="1.19" transform="translate(152.8 541.24) rotate(-74.06)" style="fill: #5d5d5d"/>
                <circle cx="440.39" cy="170.84" r="1.19" transform="translate(155.16 547.36) rotate(-74.06)" style="fill: #5d5d5d"/>
                <circle cx="445.62" cy="172.33" r="1.19" transform="translate(157.52 553.48) rotate(-74.06)" style="fill: #5d5d5d"/>
                <circle cx="450.85" cy="173.83" r="1.19" transform="translate(159.88 559.59) rotate(-74.06)" style="fill: #5d5d5d"/>
                <circle cx="456.09" cy="175.32" r="1.19" transform="translate(162.24 565.71) rotate(-74.06)" style="fill: #5d5d5d"/>
                <circle cx="461.32" cy="176.82" r="1.19" transform="translate(164.6 571.83) rotate(-74.06)" style="fill: #5d5d5d"/>
                <circle cx="466.56" cy="178.31" r="1.19" transform="translate(166.95 577.94) rotate(-74.06)" style="fill: #5d5d5d"/>
                <circle cx="471.79" cy="179.81" r="1.19" transform="translate(169.31 584.06) rotate(-74.06)" style="fill: #5d5d5d"/>
                <circle cx="477.02" cy="181.3" r="1.19" transform="translate(171.67 590.18) rotate(-74.06)" style="fill: #5d5d5d"/>
              </g>
              <g>
                <circle cx="404.95" cy="156.18" r="1.19" transform="translate(143.54 502.66) rotate(-74.06)" style="fill: #5d5d5d"/>
                <circle cx="398.67" cy="154.39" r="1.19" transform="translate(140.71 495.32) rotate(-74.06)" style="fill: #5d5d5d"/>
                <circle cx="392.39" cy="152.6" r="1.19" transform="translate(137.88 487.98) rotate(-74.06)" style="fill: #5d5d5d"/>
                <circle cx="386.11" cy="150.8" r="1.19" transform="translate(135.05 480.64) rotate(-74.06)" style="fill: #5d5d5d"/>
                <circle cx="410.18" cy="157.68" r="1.19" transform="translate(145.9 508.77) rotate(-74.06)" style="fill: #5d5d5d"/>
                <circle cx="415.42" cy="159.17" r="1.19" transform="translate(148.26 514.89) rotate(-74.06)" style="fill: #5d5d5d"/>
                <circle cx="420.65" cy="160.67" r="1.19" transform="translate(150.62 521.01) rotate(-74.06)" style="fill: #5d5d5d"/>
                <circle cx="425.88" cy="162.16" r="1.19" transform="translate(152.98 527.12) rotate(-74.06)" style="fill: #5d5d5d"/>
                <circle cx="431.12" cy="163.66" r="1.19" transform="translate(155.34 533.24) rotate(-74.06)" style="fill: #5d5d5d"/>
                <circle cx="436.35" cy="165.15" r="1.19" transform="translate(157.7 539.36) rotate(-74.06)" style="fill: #5d5d5d"/>
                <circle cx="441.58" cy="166.65" r="1.19" transform="matrix(0.27, -0.96, 0.96, 0.27, 160.05, 545.47)" style="fill: #5d5d5d"/>
                <circle cx="446.82" cy="168.14" r="1.19" transform="translate(162.41 551.59) rotate(-74.06)" style="fill: #5d5d5d"/>
                <circle cx="452.05" cy="169.64" r="1.19" transform="translate(164.77 557.71) rotate(-74.06)" style="fill: #5d5d5d"/>
                <circle cx="457.28" cy="171.13" r="1.19" transform="translate(167.13 563.82) rotate(-74.06)" style="fill: #5d5d5d"/>
                <circle cx="462.52" cy="172.63" r="1.19" transform="translate(169.49 569.94) rotate(-74.06)" style="fill: #5d5d5d"/>
                <circle cx="467.75" cy="174.12" r="1.19" transform="translate(171.85 576.06) rotate(-74.06)" style="fill: #5d5d5d"/>
                <circle cx="472.99" cy="175.62" r="1.19" transform="translate(174.21 582.17) rotate(-74.06)" style="fill: #5d5d5d"/>
                <circle cx="478.22" cy="177.11" r="1.19" transform="translate(176.56 588.29) rotate(-74.06)" style="fill: #5d5d5d"/>
              </g>
              <g>
                <circle cx="406.14" cy="152" r="1.19" transform="translate(148.44 500.77) rotate(-74.06)" style="fill: #5d5d5d"/>
                <circle cx="399.86" cy="150.2" r="1.19" transform="translate(145.61 493.43) rotate(-74.06)" style="fill: #5d5d5d"/>
                <circle cx="393.58" cy="148.41" r="1.19" transform="matrix(0.27, -0.96, 0.96, 0.27, 142.78, 486.09)" style="fill: #5d5d5d"/>
                <circle cx="387.3" cy="146.61" r="1.19" transform="translate(139.95 478.75) rotate(-74.06)" style="fill: #5d5d5d"/>
                <circle cx="411.38" cy="153.49" r="1.19" transform="translate(150.8 506.89) rotate(-74.06)" style="fill: #5d5d5d"/>
                <circle cx="416.61" cy="154.99" r="1.19" transform="translate(153.15 513) rotate(-74.06)" style="fill: #5d5d5d"/>
                <circle cx="421.84" cy="156.48" r="1.19" transform="translate(155.51 519.12) rotate(-74.06)" style="fill: #5d5d5d"/>
                <circle cx="427.08" cy="157.98" r="1.19" transform="matrix(0.27, -0.96, 0.96, 0.27, 157.87, 525.24)" style="fill: #5d5d5d"/>
                <circle cx="432.31" cy="159.47" r="1.19" transform="translate(160.23 531.35) rotate(-74.06)" style="fill: #5d5d5d"/>
                <circle cx="437.55" cy="160.97" r="1.19" transform="translate(162.59 537.47) rotate(-74.06)" style="fill: #5d5d5d"/>
                <circle cx="442.78" cy="162.46" r="1.19" transform="translate(164.95 543.59) rotate(-74.06)" style="fill: #5d5d5d"/>
                <circle cx="448.01" cy="163.96" r="1.19" transform="translate(167.31 549.7) rotate(-74.06)" style="fill: #5d5d5d"/>
                <circle cx="453.25" cy="165.45" r="1.19" transform="translate(169.66 555.82) rotate(-74.06)" style="fill: #5d5d5d"/>
                <circle cx="458.48" cy="166.95" r="1.19" transform="translate(172.02 561.94) rotate(-74.06)" style="fill: #5d5d5d"/>
                <circle cx="463.71" cy="168.44" r="1.19" transform="translate(174.38 568.05) rotate(-74.06)" style="fill: #5d5d5d"/>
                <circle cx="468.95" cy="169.94" r="1.19" transform="translate(176.74 574.17) rotate(-74.06)" style="fill: #5d5d5d"/>
                <circle cx="474.18" cy="171.43" r="1.19" transform="translate(179.1 580.29) rotate(-74.06)" style="fill: #5d5d5d"/>
                <circle cx="479.41" cy="172.93" r="1.19" transform="translate(181.46 586.4) rotate(-74.06)" style="fill: #5d5d5d"/>
              </g>
              <g>
                <circle cx="407.34" cy="147.81" r="1.19" transform="translate(153.33 498.88) rotate(-74.06)" style="fill: #5d5d5d"/>
                <circle cx="401.06" cy="146.02" r="1.19" transform="translate(150.5 491.54) rotate(-74.06)" style="fill: #5d5d5d"/>
                <circle cx="394.78" cy="144.22" r="1.19" transform="matrix(0.27, -0.96, 0.96, 0.27, 147.67, 484.2)" style="fill: #5d5d5d"/>
                <circle cx="388.5" cy="142.43" r="1.19" transform="translate(144.84 476.86) rotate(-74.06)" style="fill: #5d5d5d"/>
                <circle cx="412.57" cy="149.3" r="1.19" transform="translate(155.69 505) rotate(-74.06)" style="fill: #5d5d5d"/>
                <circle cx="417.81" cy="150.8" r="1.19" transform="translate(158.05 511.12) rotate(-74.06)" style="fill: #5d5d5d"/>
                <circle cx="423.04" cy="152.29" r="1.19" transform="translate(160.41 517.23) rotate(-74.06)" style="fill: #5d5d5d"/>
                <circle cx="428.27" cy="153.79" r="1.19" transform="matrix(0.27, -0.96, 0.96, 0.27, 162.77, 523.35)" style="fill: #5d5d5d"/>
                <circle cx="433.51" cy="155.28" r="1.19" transform="translate(165.12 529.47) rotate(-74.06)" style="fill: #5d5d5d"/>
                <circle cx="438.74" cy="156.78" r="1.19" transform="translate(167.48 535.58) rotate(-74.06)" style="fill: #5d5d5d"/>
                <circle cx="443.98" cy="158.27" r="1.19" transform="translate(169.84 541.7) rotate(-74.06)" style="fill: #5d5d5d"/>
                <circle cx="449.21" cy="159.77" r="1.19" transform="translate(172.2 547.82) rotate(-74.06)" style="fill: #5d5d5d"/>
                <circle cx="454.44" cy="161.26" r="1.19" transform="translate(174.56 553.93) rotate(-74.06)" style="fill: #5d5d5d"/>
                <circle cx="459.68" cy="162.76" r="1.19" transform="translate(176.92 560.05) rotate(-74.06)" style="fill: #5d5d5d"/>
                <circle cx="464.91" cy="164.25" r="1.19" transform="translate(179.28 566.17) rotate(-74.06)" style="fill: #5d5d5d"/>
                <circle cx="470.14" cy="165.75" r="1.19" transform="translate(181.63 572.28) rotate(-74.06)" style="fill: #5d5d5d"/>
                <circle cx="475.38" cy="167.24" r="1.19" transform="translate(183.99 578.4) rotate(-74.06)" style="fill: #5d5d5d"/>
                <circle cx="480.61" cy="168.74" r="1.19" transform="translate(186.35 584.52) rotate(-74.06)" style="fill: #5d5d5d"/>
              </g>
              <g>
                <circle cx="408.54" cy="143.62" r="1.19" transform="translate(158.22 497) rotate(-74.06)" style="fill: #5d5d5d"/>
                <circle cx="402.26" cy="141.83" r="1.19" transform="translate(155.39 489.66) rotate(-74.06)" style="fill: #5d5d5d"/>
                <circle cx="395.98" cy="140.03" r="1.19" transform="translate(152.56 482.32) rotate(-74.06)" style="fill: #5d5d5d"/>
                <circle cx="389.69" cy="138.24" r="1.19" transform="matrix(0.27, -0.96, 0.96, 0.27, 149.73, 474.98)" style="fill: #5d5d5d"/>
                <circle cx="413.77" cy="145.12" r="1.19" transform="translate(160.58 503.11) rotate(-74.06)" style="fill: #5d5d5d"/>
                <circle cx="419" cy="146.61" r="1.19" transform="translate(162.94 509.23) rotate(-74.06)" style="fill: #5d5d5d"/>
                <circle cx="424.24" cy="148.11" r="1.19" transform="translate(165.3 515.35) rotate(-74.06)" style="fill: #5d5d5d"/>
                <circle cx="429.47" cy="149.6" r="1.19" transform="translate(167.66 521.46) rotate(-74.06)" style="fill: #5d5d5d"/>
                <circle cx="434.7" cy="151.1" r="1.19" transform="translate(170.02 527.58) rotate(-74.06)" style="fill: #5d5d5d"/>
                <circle cx="439.94" cy="152.59" r="1.19" transform="translate(172.38 533.7) rotate(-74.06)" style="fill: #5d5d5d"/>
                <circle cx="445.17" cy="154.09" r="1.19" transform="translate(174.73 539.81) rotate(-74.06)" style="fill: #5d5d5d"/>
                <circle cx="450.41" cy="155.58" r="1.19" transform="translate(177.09 545.93) rotate(-74.06)" style="fill: #5d5d5d"/>
                <circle cx="455.64" cy="157.08" r="1.19" transform="translate(179.45 552.05) rotate(-74.06)" style="fill: #5d5d5d"/>
                <circle cx="460.87" cy="158.57" r="1.19" transform="translate(181.81 558.16) rotate(-74.06)" style="fill: #5d5d5d"/>
                <circle cx="466.11" cy="160.07" r="1.19" transform="translate(184.17 564.28) rotate(-74.06)" style="fill: #5d5d5d"/>
                <circle cx="471.34" cy="161.56" r="1.19" transform="translate(186.53 570.4) rotate(-74.06)" style="fill: #5d5d5d"/>
                <circle cx="476.57" cy="163.06" r="1.19" transform="translate(188.89 576.51) rotate(-74.06)" style="fill: #5d5d5d"/>
                <circle cx="481.81" cy="164.55" r="1.19" transform="translate(191.24 582.63) rotate(-74.06)" style="fill: #5d5d5d"/>
              </g>
              <g>
                <circle cx="409.73" cy="139.44" r="1.19" transform="translate(163.12 495.11) rotate(-74.06)" style="fill: #5d5d5d"/>
                <circle cx="403.45" cy="137.64" r="1.19" transform="translate(160.29 487.77) rotate(-74.06)" style="fill: #5d5d5d"/>
                <circle cx="397.17" cy="135.85" r="1.19" transform="translate(157.46 480.43) rotate(-74.06)" style="fill: #5d5d5d"/>
                <circle cx="390.89" cy="134.05" r="1.19" transform="translate(154.63 473.09) rotate(-74.06)" style="fill: #5d5d5d"/>
                <circle cx="414.97" cy="140.93" r="1.19" transform="translate(165.48 501.23) rotate(-74.06)" style="fill: #5d5d5d"/>
                <circle cx="420.2" cy="142.43" r="1.19" transform="translate(167.84 507.34) rotate(-74.06)" style="fill: #5d5d5d"/>
                <circle cx="425.43" cy="143.92" r="1.19" transform="translate(170.19 513.46) rotate(-74.06)" style="fill: #5d5d5d"/>
                <circle cx="430.67" cy="145.42" r="1.19" transform="translate(172.55 519.58) rotate(-74.06)" style="fill: #5d5d5d"/>
                <circle cx="435.9" cy="146.91" r="1.19" transform="translate(174.91 525.69) rotate(-74.06)" style="fill: #5d5d5d"/>
                <circle cx="441.13" cy="148.41" r="1.19" transform="translate(177.27 531.81) rotate(-74.06)" style="fill: #5d5d5d"/>
                <circle cx="446.37" cy="149.9" r="1.19" transform="translate(179.63 537.93) rotate(-74.06)" style="fill: #5d5d5d"/>
                <circle cx="451.6" cy="151.4" r="1.19" transform="translate(181.99 544.04) rotate(-74.06)" style="fill: #5d5d5d"/>
                <circle cx="456.83" cy="152.89" r="1.19" transform="translate(184.35 550.16) rotate(-74.06)" style="fill: #5d5d5d"/>
                <circle cx="462.07" cy="154.39" r="1.19" transform="translate(186.7 556.28) rotate(-74.06)" style="fill: #5d5d5d"/>
                <circle cx="467.3" cy="155.88" r="1.19" transform="translate(189.06 562.39) rotate(-74.06)" style="fill: #5d5d5d"/>
                <circle cx="472.54" cy="157.38" r="1.19" transform="translate(191.42 568.51) rotate(-74.06)" style="fill: #5d5d5d"/>
                <circle cx="477.77" cy="158.87" r="1.19" transform="translate(193.78 574.63) rotate(-74.06)" style="fill: #5d5d5d"/>
                <circle cx="483" cy="160.37" r="1.19" transform="translate(196.14 580.74) rotate(-74.06)" style="fill: #5d5d5d"/>
              </g>
              <g>
                <circle cx="410.93" cy="135.25" r="1.19" transform="translate(168.01 493.22) rotate(-74.06)" style="fill: #5d5d5d"/>
                <circle cx="404.65" cy="133.45" r="1.19" transform="translate(165.18 485.88) rotate(-74.06)" style="fill: #5d5d5d"/>
                <circle cx="398.37" cy="131.66" r="1.19" transform="translate(162.35 478.54) rotate(-74.06)" style="fill: #5d5d5d"/>
                <circle cx="392.09" cy="129.87" r="1.19" transform="translate(159.52 471.2) rotate(-74.06)" style="fill: #5d5d5d"/>
                <circle cx="416.16" cy="136.74" r="1.19" transform="translate(170.37 499.34) rotate(-74.06)" style="fill: #5d5d5d"/>
                <circle cx="421.4" cy="138.24" r="1.19" transform="translate(172.73 505.46) rotate(-74.06)" style="fill: #5d5d5d"/>
                <circle cx="426.63" cy="139.73" r="1.19" transform="translate(175.09 511.57) rotate(-74.06)" style="fill: #5d5d5d"/>
                <circle cx="431.86" cy="141.23" r="1.19" transform="translate(177.45 517.69) rotate(-74.06)" style="fill: #5d5d5d"/>
                <circle cx="437.1" cy="142.72" r="1.19" transform="translate(179.8 523.81) rotate(-74.06)" style="fill: #5d5d5d"/>
                <circle cx="442.33" cy="144.22" r="1.19" transform="translate(182.16 529.92) rotate(-74.06)" style="fill: #5d5d5d"/>
                <circle cx="447.56" cy="145.71" r="1.19" transform="translate(184.52 536.04) rotate(-74.06)" style="fill: #5d5d5d"/>
                <circle cx="452.8" cy="147.21" r="1.19" transform="translate(186.88 542.16) rotate(-74.06)" style="fill: #5d5d5d"/>
                <circle cx="458.03" cy="148.7" r="1.19" transform="translate(189.24 548.27) rotate(-74.06)" style="fill: #5d5d5d"/>
                <circle cx="463.26" cy="150.2" r="1.19" transform="translate(191.6 554.39) rotate(-74.06)" style="fill: #5d5d5d"/>
                <circle cx="468.5" cy="151.69" r="1.19" transform="translate(193.96 560.51) rotate(-74.06)" style="fill: #5d5d5d"/>
                <circle cx="473.73" cy="153.19" r="1.19" transform="translate(196.31 566.62) rotate(-74.06)" style="fill: #5d5d5d"/>
                <circle cx="478.97" cy="154.68" r="1.19" transform="translate(198.67 572.74) rotate(-74.06)" style="fill: #5d5d5d"/>
                <circle cx="484.2" cy="156.18" r="1.19" transform="translate(201.03 578.86) rotate(-74.06)" style="fill: #5d5d5d"/>
              </g>
              <g>
                <circle cx="412.12" cy="131.06" r="1.19" transform="translate(172.9 491.34) rotate(-74.06)" style="fill: #5d5d5d"/>
                <circle cx="405.84" cy="129.27" r="1.19" transform="translate(170.07 484) rotate(-74.06)" style="fill: #5d5d5d"/>
                <circle cx="399.56" cy="127.47" r="1.19" transform="translate(167.24 476.66) rotate(-74.06)" style="fill: #5d5d5d"/>
                <circle cx="393.28" cy="125.68" r="1.19" transform="translate(164.41 469.32) rotate(-74.06)" style="fill: #5d5d5d"/>
                <circle cx="417.36" cy="132.56" r="1.19" transform="translate(175.26 497.45) rotate(-74.06)" style="fill: #5d5d5d"/>
                <circle cx="422.59" cy="134.05" r="1.19" transform="translate(177.62 503.57) rotate(-74.06)" style="fill: #5d5d5d"/>
                <circle cx="427.82" cy="135.55" r="1.19" transform="translate(179.98 509.69) rotate(-74.06)" style="fill: #5d5d5d"/>
                <circle cx="433.06" cy="137.04" r="1.19" transform="translate(182.34 515.8) rotate(-74.06)" style="fill: #5d5d5d"/>
                <circle cx="438.29" cy="138.54" r="1.19" transform="translate(184.7 521.92) rotate(-74.06)" style="fill: #5d5d5d"/>
                <circle cx="443.53" cy="140.03" r="1.19" transform="translate(187.06 528.04) rotate(-74.06)" style="fill: #5d5d5d"/>
                <circle cx="448.76" cy="141.53" r="1.19" transform="translate(189.41 534.15) rotate(-74.06)" style="fill: #5d5d5d"/>
                <circle cx="453.99" cy="143.02" r="1.19" transform="translate(191.77 540.27) rotate(-74.06)" style="fill: #5d5d5d"/>
                <circle cx="459.23" cy="144.52" r="1.19" transform="translate(194.13 546.39) rotate(-74.06)" style="fill: #5d5d5d"/>
                <circle cx="464.46" cy="146.01" r="1.19" transform="translate(196.49 552.5) rotate(-74.06)" style="fill: #5d5d5d"/>
                <circle cx="469.69" cy="147.51" r="1.19" transform="translate(198.85 558.62) rotate(-74.06)" style="fill: #5d5d5d"/>
                <circle cx="474.93" cy="149" r="1.19" transform="translate(201.21 564.74) rotate(-74.06)" style="fill: #5d5d5d"/>
                <circle cx="480.16" cy="150.5" r="1.19" transform="translate(203.57 570.85) rotate(-74.06)" style="fill: #5d5d5d"/>
                <circle cx="485.39" cy="151.99" r="1.19" transform="translate(205.92 576.97) rotate(-74.06)" style="fill: #5d5d5d"/>
              </g>
              <g>
                <circle cx="413.32" cy="126.87" r="1.19" transform="translate(177.8 489.45) rotate(-74.06)" style="fill: #5d5d5d"/>
                <circle cx="407.04" cy="125.08" r="1.19" transform="matrix(0.27, -0.96, 0.96, 0.27, 174.97, 482.11)" style="fill: #5d5d5d"/>
                <circle cx="400.76" cy="123.29" r="1.19" transform="translate(172.14 474.77) rotate(-74.06)" style="fill: #5d5d5d"/>
                <circle cx="394.48" cy="121.49" r="1.19" transform="translate(169.31 467.43) rotate(-74.06)" style="fill: #5d5d5d"/>
                <circle cx="418.55" cy="128.37" r="1.19" transform="translate(180.16 495.57) rotate(-74.06)" style="fill: #5d5d5d"/>
                <circle cx="423.79" cy="129.86" r="1.19" transform="translate(182.52 501.68) rotate(-74.06)" style="fill: #5d5d5d"/>
                <circle cx="429.02" cy="131.36" r="1.19" transform="translate(184.87 507.8) rotate(-74.06)" style="fill: #5d5d5d"/>
                <circle cx="434.25" cy="132.85" r="1.19" transform="matrix(0.27, -0.96, 0.96, 0.27, 187.23, 513.92)" style="fill: #5d5d5d"/>
                <circle cx="439.49" cy="134.35" r="1.19" transform="translate(189.59 520.03) rotate(-74.06)" style="fill: #5d5d5d"/>
                <circle cx="444.72" cy="135.84" r="1.19" transform="translate(191.95 526.15) rotate(-74.06)" style="fill: #5d5d5d"/>
                <circle cx="449.96" cy="137.34" r="1.19" transform="matrix(0.27, -0.96, 0.96, 0.27, 194.31, 532.27)" style="fill: #5d5d5d"/>
                <circle cx="455.19" cy="138.84" r="1.19" transform="translate(196.67 538.38) rotate(-74.06)" style="fill: #5d5d5d"/>
                <circle cx="460.42" cy="140.33" r="1.19" transform="translate(199.03 544.5) rotate(-74.06)" style="fill: #5d5d5d"/>
                <circle cx="465.66" cy="141.83" r="1.19" transform="translate(201.38 550.62) rotate(-74.06)" style="fill: #5d5d5d"/>
                <circle cx="470.89" cy="143.32" r="1.19" transform="translate(203.74 556.73) rotate(-74.06)" style="fill: #5d5d5d"/>
                <circle cx="476.12" cy="144.82" r="1.19" transform="translate(206.1 562.85) rotate(-74.06)" style="fill: #5d5d5d"/>
                <circle cx="481.36" cy="146.31" r="1.19" transform="translate(208.46 568.97) rotate(-74.06)" style="fill: #5d5d5d"/>
                <circle cx="486.59" cy="147.81" r="1.19" transform="translate(210.82 575.08) rotate(-74.06)" style="fill: #5d5d5d"/>
              </g>
              <g>
                <circle cx="414.52" cy="122.69" r="1.19" transform="translate(182.69 487.56) rotate(-74.06)" style="fill: #5d5d5d"/>
                <circle cx="408.24" cy="120.89" r="1.19" transform="translate(179.86 480.22) rotate(-74.06)" style="fill: #5d5d5d"/>
                <circle cx="401.96" cy="119.1" r="1.19" transform="matrix(0.27, -0.96, 0.96, 0.27, 177.03, 472.88)" style="fill: #5d5d5d"/>
                <circle cx="395.67" cy="117.31" r="1.19" transform="translate(174.2 465.54) rotate(-74.06)" style="fill: #5d5d5d"/>
                <circle cx="419.75" cy="124.18" r="1.19" transform="translate(185.05 493.68) rotate(-74.06)" style="fill: #5d5d5d"/>
                <circle cx="424.98" cy="125.68" r="1.19" transform="translate(187.41 499.8) rotate(-74.06)" style="fill: #5d5d5d"/>
                <circle cx="430.22" cy="127.17" r="1.19" transform="translate(189.77 505.91) rotate(-74.06)" style="fill: #5d5d5d"/>
                <circle cx="435.45" cy="128.67" r="1.19" transform="matrix(0.27, -0.96, 0.96, 0.27, 192.13, 512.03)" style="fill: #5d5d5d"/>
                <circle cx="440.68" cy="130.16" r="1.19" transform="translate(194.48 518.15) rotate(-74.06)" style="fill: #5d5d5d"/>
                <circle cx="445.92" cy="131.66" r="1.19" transform="translate(196.84 524.26) rotate(-74.06)" style="fill: #5d5d5d"/>
                <circle cx="451.15" cy="133.15" r="1.19" transform="translate(199.2 530.38) rotate(-74.06)" style="fill: #5d5d5d"/>
                <circle cx="456.39" cy="134.65" r="1.19" transform="translate(201.56 536.5) rotate(-74.06)" style="fill: #5d5d5d"/>
                <circle cx="461.62" cy="136.14" r="1.19" transform="translate(203.92 542.61) rotate(-74.06)" style="fill: #5d5d5d"/>
                <circle cx="466.85" cy="137.64" r="1.19" transform="translate(206.28 548.73) rotate(-74.06)" style="fill: #5d5d5d"/>
                <circle cx="472.09" cy="139.13" r="1.19" transform="translate(208.64 554.85) rotate(-74.06)" style="fill: #5d5d5d"/>
                <circle cx="477.32" cy="140.63" r="1.19" transform="translate(210.99 560.96) rotate(-74.06)" style="fill: #5d5d5d"/>
                <circle cx="482.55" cy="142.12" r="1.19" transform="translate(213.35 567.08) rotate(-74.06)" style="fill: #5d5d5d"/>
                <circle cx="487.79" cy="143.62" r="1.19" transform="translate(215.71 573.2) rotate(-74.06)" style="fill: #5d5d5d"/>
              </g>
              <g>
                <circle cx="415.71" cy="118.5" r="1.19" transform="translate(187.58 485.68) rotate(-74.06)" style="fill: #5d5d5d"/>
                <circle cx="409.43" cy="116.71" r="1.19" transform="translate(184.75 478.34) rotate(-74.06)" style="fill: #5d5d5d"/>
                <circle cx="403.15" cy="114.91" r="1.19" transform="translate(181.92 471) rotate(-74.06)" style="fill: #5d5d5d"/>
                <circle cx="396.87" cy="113.12" r="1.19" transform="matrix(0.27, -0.96, 0.96, 0.27, 179.09, 463.65)" style="fill: #5d5d5d"/>
                <circle cx="420.95" cy="120" r="1.19" transform="translate(189.94 491.79) rotate(-74.06)" style="fill: #5d5d5d"/>
                <circle cx="426.18" cy="121.49" r="1.19" transform="translate(192.3 497.91) rotate(-74.06)" style="fill: #5d5d5d"/>
                <circle cx="431.41" cy="122.99" r="1.19" transform="translate(194.66 504.03) rotate(-74.06)" style="fill: #5d5d5d"/>
                <circle cx="436.65" cy="124.48" r="1.19" transform="translate(197.02 510.14) rotate(-74.06)" style="fill: #5d5d5d"/>
                <circle cx="441.88" cy="125.98" r="1.19" transform="translate(199.38 516.26) rotate(-74.06)" style="fill: #5d5d5d"/>
                <circle cx="447.11" cy="127.47" r="1.19" transform="translate(201.74 522.38) rotate(-74.06)" style="fill: #5d5d5d"/>
                <circle cx="452.35" cy="128.97" r="1.19" transform="translate(204.09 528.49) rotate(-74.06)" style="fill: #5d5d5d"/>
                <circle cx="457.58" cy="130.46" r="1.19" transform="translate(206.45 534.61) rotate(-74.06)" style="fill: #5d5d5d"/>
                <circle cx="462.81" cy="131.96" r="1.19" transform="translate(208.81 540.73) rotate(-74.06)" style="fill: #5d5d5d"/>
                <circle cx="468.05" cy="133.45" r="1.19" transform="translate(211.17 546.84) rotate(-74.06)" style="fill: #5d5d5d"/>
                <circle cx="473.28" cy="134.95" r="1.19" transform="translate(213.53 552.96) rotate(-74.06)" style="fill: #5d5d5d"/>
                <circle cx="478.52" cy="136.44" r="1.19" transform="translate(215.89 559.08) rotate(-74.06)" style="fill: #5d5d5d"/>
                <circle cx="483.75" cy="137.94" r="1.19" transform="translate(218.25 565.19) rotate(-74.06)" style="fill: #5d5d5d"/>
                <circle cx="488.98" cy="139.43" r="1.19" transform="translate(220.61 571.31) rotate(-74.06)" style="fill: #5d5d5d"/>
              </g>
              <g>
                <circle cx="416.91" cy="114.31" r="1.19" transform="translate(192.48 483.79) rotate(-74.06)" style="fill: #5d5d5d"/>
                <circle cx="410.63" cy="112.52" r="1.19" transform="translate(189.65 476.45) rotate(-74.06)" style="fill: #5d5d5d"/>
                <circle cx="404.35" cy="110.73" r="1.19" transform="translate(186.82 469.11) rotate(-74.06)" style="fill: #5d5d5d"/>
                <circle cx="398.07" cy="108.93" r="1.19" transform="matrix(0.27, -0.96, 0.96, 0.27, 183.99, 461.77)" style="fill: #5d5d5d"/>
                <circle cx="422.14" cy="115.81" r="1.19" transform="translate(194.84 489.91) rotate(-74.06)" style="fill: #5d5d5d"/>
                <circle cx="427.38" cy="117.3" r="1.19" transform="translate(197.2 496.02) rotate(-74.06)" style="fill: #5d5d5d"/>
                <circle cx="432.61" cy="118.8" r="1.19" transform="translate(199.55 502.14) rotate(-74.06)" style="fill: #5d5d5d"/>
                <circle cx="437.84" cy="120.29" r="1.19" transform="translate(201.91 508.26) rotate(-74.06)" style="fill: #5d5d5d"/>
                <circle cx="443.08" cy="121.79" r="1.19" transform="translate(204.27 514.37) rotate(-74.06)" style="fill: #5d5d5d"/>
                <circle cx="448.31" cy="123.28" r="1.19" transform="translate(206.63 520.49) rotate(-74.06)" style="fill: #5d5d5d"/>
                <circle cx="453.54" cy="124.78" r="1.19" transform="translate(208.99 526.61) rotate(-74.06)" style="fill: #5d5d5d"/>
                <circle cx="458.78" cy="126.27" r="1.19" transform="translate(211.35 532.72) rotate(-74.06)" style="fill: #5d5d5d"/>
                <circle cx="464.01" cy="127.77" r="1.19" transform="translate(213.71 538.84) rotate(-74.06)" style="fill: #5d5d5d"/>
                <circle cx="469.24" cy="129.26" r="1.19" transform="translate(216.06 544.96) rotate(-74.06)" style="fill: #5d5d5d"/>
                <circle cx="474.48" cy="130.76" r="1.19" transform="translate(218.42 551.07) rotate(-74.06)" style="fill: #5d5d5d"/>
                <circle cx="479.71" cy="132.25" r="1.19" transform="translate(220.78 557.19) rotate(-74.06)" style="fill: #5d5d5d"/>
                <circle cx="484.95" cy="133.75" r="1.19" transform="translate(223.14 563.31) rotate(-74.06)" style="fill: #5d5d5d"/>
                <circle cx="490.18" cy="135.24" r="1.19" transform="translate(225.5 569.42) rotate(-74.06)" style="fill: #5d5d5d"/>
              </g>
            </g>
          </g>
        </g>
      </g>
      <line x1="433.08" y1="64.67" x2="500.67" y2="254.5" style="fill: none;stroke: #666;stroke-linecap: round;stroke-miterlimit: 10;stroke-width: 5px"/>
      <g>
        <path d="M147.29,139.36c.88-2.09,2.45-6.91,1.11-8.82a3,3,0,0,0-4.35-.64,3.59,3.59,0,0,0-.78,4.56c-.22-.1-.65,0-.77-.22-1.09-1.5-.18-3.91.71-4.69a3.94,3.94,0,0,1,5.31-.23c3,2.61.35,7-.31,9.83l.72-.16c1.4-.3,2.8-.51,4.06.65l1.06,1.05c3.79,3.19,8.71,4.1,13.56,4.19,1.78,0,1.47.17,1.78,2.13-5.16.74-16.42-2.8-20.54-2-1.95.39-7.13,3.31-8.62,4.38-2.25,1.61-6.91,4.25-9.54,4.77l-.05-2.14c3.72-1.3,9.54-4.77,11.65-8.27C144.11,140.75,142.29,140.52,147.29,139.36Z" style="fill: #897870;fill-rule: evenodd"/>
        <g>
          <path d="M143.06,141.87s.84,15.41,3.89,20.75a20.65,20.65,0,0,0,7.21,7.58s3.49-7.77,2.76-12.34-3.36-18-3.36-18,13.53,17.5,15.14,19.61,5,8.23,2.12,14.57,1.09,9.69,3.41,12.39,43.11,48.28,43.11,48.28,2.88,5.09-1.47,5.91-15.12-1.67-19.18.7-13.21,10.2-19.28,8.76-13.55-7.92-17.94-3.88-11.5,11.65-20.54,8-8.74-3.27-13.51-.85-6.59-1.66-6.59-1.66l23.63-61.95s2.45-4.08-2.16-8.53-6.6-7.29-5.23-13.74S143.06,141.87,143.06,141.87Z" style="fill: #d40000;fill-rule: evenodd"/>
          <path d="M172.71,184.78a11.51,11.51,0,0,1-2.67-4.54h0c-15.54,10.87-27.17,5.09-27.17,5.09a6.09,6.09,0,0,1-.41,4.49l-.26.68A37.39,37.39,0,0,0,172.71,184.78Z" style="fill: #a90000;fill-rule: evenodd"/>
        </g>
      </g>
      <line x1="169.63" y1="64.67" x2="102.04" y2="254.5" style="fill: none;stroke: #666;stroke-linecap: round;stroke-miterlimit: 10;stroke-width: 5px"/>
      <path d="M147.27,139.36c.88-2.09,2.45-6.91,1.11-8.82a3,3,0,0,0-4.35-.64,4.64,4.64,0,0,0-1.79,3.6c-.58-1.73-1-2.49,1-3.94a3.94,3.94,0,0,1,5.31-.23c3,2.61.35,7-.31,9.83" style="fill: #897870;fill-rule: evenodd"/>
    </g>
  </g>
</svg>
