<svg xmlns="http://www.w3.org/2000/svg" xmlns:xlink="http://www.w3.org/1999/xlink" width="100" height="100" viewBox="0 0 100 100">
  <defs>
    <radialGradient id="a" cx="49.45" cy="36.07" r="57.81" gradientUnits="userSpaceOnUse">
      <stop offset="0" stop-color="#f5e0cd"/>
      <stop offset="0.22" stop-color="#f5decb"/>
      <stop offset="0.34" stop-color="#f3d9c2"/>
      <stop offset="0.44" stop-color="#f0d0b4"/>
      <stop offset="0.53" stop-color="#edc4a1"/>
      <stop offset="0.55" stop-color="#ecc19c"/>
      <stop offset="1" stop-color="#cf9e76"/>
    </radialGradient>
    <radialGradient id="b" cx="34.9" cy="39.8" r="52.13" xlink:href="#a"/>
    <radialGradient id="c" cx="51.98" cy="91.74" r="35.39" gradientTransform="translate(0 78.28) scale(1 0.15)" gradientUnits="userSpaceOnUse">
      <stop offset="0"/>
      <stop offset="1" stop-opacity="0"/>
    </radialGradient>
    <radialGradient id="d" cx="30.13" cy="88.88" r="18.26" gradientUnits="userSpaceOnUse">
      <stop offset="0" stop-color="#8c6239"/>
      <stop offset="0.35" stop-color="#8a6037"/>
      <stop offset="0.55" stop-color="#815932"/>
      <stop offset="0.71" stop-color="#734c2a"/>
      <stop offset="0.85" stop-color="#5f3b1d"/>
      <stop offset="0.98" stop-color="#46240d"/>
      <stop offset="1" stop-color="#42210b"/>
    </radialGradient>
    <radialGradient id="e" cx="30.13" cy="88.88" r="18.26" gradientTransform="matrix(-1, 0, 0, 1, 105.65, 0)" xlink:href="#d"/>
    <radialGradient id="f" cx="49.64" cy="77.38" r="38.16" gradientUnits="userSpaceOnUse">
      <stop offset="0" stop-color="#0071bc"/>
      <stop offset="0.36" stop-color="#026fba"/>
      <stop offset="0.57" stop-color="#0866b5"/>
      <stop offset="0.74" stop-color="#1258ac"/>
      <stop offset="0.89" stop-color="#20459f"/>
      <stop offset="1" stop-color="#2e3192"/>
    </radialGradient>
    <radialGradient id="g" cx="49.76" cy="51.84" r="27.03" gradientUnits="userSpaceOnUse">
      <stop offset="0" stop-color="#fff"/>
      <stop offset="0.35" stop-color="#fdfdfd"/>
      <stop offset="0.55" stop-color="#f4f4f4"/>
      <stop offset="0.72" stop-color="#e6e6e6"/>
      <stop offset="0.86" stop-color="#d3d3d3"/>
      <stop offset="0.99" stop-color="#b9b9b9"/>
      <stop offset="1" stop-color="#b7b7b7"/>
    </radialGradient>
    <radialGradient id="h" cx="32.18" cy="35.42" r="7.51" gradientUnits="userSpaceOnUse">
      <stop offset="0" stop-color="#fff"/>
      <stop offset="0.32" stop-color="#f6fafc"/>
      <stop offset="0.84" stop-color="#deecf3"/>
      <stop offset="1" stop-color="#d5e7f0"/>
    </radialGradient>
    <radialGradient id="i" cx="60.84" cy="35.26" r="9.76" xlink:href="#h"/>
    <radialGradient id="j" cx="50.15" cy="-20.39" r="12.95" gradientTransform="translate(4.31 79.03) rotate(-3.8)" gradientUnits="userSpaceOnUse">
      <stop offset="0" stop-color="#878787"/>
      <stop offset="0.22" stop-color="#7e7e7e"/>
      <stop offset="0.58" stop-color="#666"/>
      <stop offset="1" stop-color="#424242"/>
    </radialGradient>
    <clipPath id="k">
      <path d="M31.25,32l14.5,8.13s-4.7,3-12.54.61S31.25,32,31.25,32Zm41.85,0-14.5,8.13s4.7,3,12.54.61S73.11,32,73.11,32Z" style="fill: none"/>
    </clipPath>
    <radialGradient id="l" cx="15.97" cy="68.33" r="9.6" gradientTransform="translate(-4.44 -14.88) scale(1.19 1.19)" xlink:href="#a"/>
    <radialGradient id="m" cx="49.96" cy="7.93" r="26.96" xlink:href="#g"/>
  </defs>
  <title>oldman</title>
  <g style="isolation: isolate">
    <g>
      <g>
        <path d="M52.47,4a34.6,34.6,0,0,0-34.6,34.6V84.81c6.2-.25,16.37,0,22.8,0H64c6.43,0,16.76-.1,23.11,0V38.6A34.59,34.59,0,0,0,52.47,4Z" style="opacity: 0.8;fill: url(#a)"/>
        <path d="M52.47,4a34.6,34.6,0,0,0-34.6,34.6V84.81c6.2-.25,16.37,0,22.8,0H64c6.43,0,16.76-.1,23.11,0V38.6A34.59,34.59,0,0,0,52.47,4Z" style="opacity: 0.8;mix-blend-mode: multiply;fill: url(#b)"/>
      </g>
      <ellipse cx="51.98" cy="91.74" rx="36.83" ry="6.26" style="opacity: 0.2;mix-blend-mode: multiply;fill: url(#c)"/>
      <path d="M15.16,93.74A35.94,35.94,0,0,0,27,95.25c6.75-.25,13.75-.67,16.25-1.51a21.44,21.44,0,0,0,5.25-3V86.81s-12.6-1.94-15.84-2.12-12.41,1.56-12.41,1.56S12.81,88.49,15.16,93.74Z" style="fill: url(#d)"/>
      <path d="M90.49,93.74a35.94,35.94,0,0,1-11.84,1.51C71.9,95,64.9,94.58,62.4,93.74a21.44,21.44,0,0,1-5.25-3V86.81S69.75,84.87,73,84.69,85.4,86.25,85.4,86.25,92.83,88.49,90.49,93.74Z" style="fill: url(#e)"/>
      <path d="M16.75,71l1.13,15.81s11.81-2,18.16-1c9.47,1.48,14,2.4,14,2.4l2.82-3.41,2.79,2.63s10-2.12,15.72-2.31a54.11,54.11,0,0,1,15.73,1.69l1.74-16.57Z" style="fill: url(#f)"/>
      <path d="M21,83.17c3.4-.37,8.55-1.67,13.62-.88A129.92,129.92,0,0,1,50,85.5c-2.53-1.86-10.88-4-14.75-4.6C31.8,80.4,24.61,80.63,21,83.17Z" style="fill: #999;opacity: 0.6;mix-blend-mode: multiply"/>
      <path d="M86.06,83.44c-4.62-1.5-9-1.49-15-1.15-6.46.37-8.15,1.47-11.53,2.39,2.38-2,7-3.22,10.9-3.78C73.85,80.4,82.56,80.31,86.06,83.44Z" style="fill: #999;opacity: 0.6;mix-blend-mode: multiply"/>
    </g>
    <g>
      <path d="M61.52,48.76C65.38,47,72,47,74,49a28.77,28.77,0,0,1,4,6s-2.08-1.59-4-1c2.22,2,2.6,4.27,3,5s1.5,1.67,0,5a8.83,8.83,0,0,0-5-2s1.37,4.08,3,6c-3.17-1-7-2-7-2s-2.5,1.92-2,4c-2.58-.58-3.42-2.75-4.25-4.25a7.37,7.37,0,0,0-1,4.94S57.44,69.06,57,67c-1.44,1.56-3.14,2.08-4.37,4.64-1.68-1.8-2.06-3.89-3.25-5.2a4.7,4.7,0,0,0-2.94,4.19C45.6,70,44,67.83,45,65.61,42.58,65.25,40,70,40,70l-2-4s-5.4-.17-7,2c-1.62-2,.33-5.17,3-6-1.4-1.33-4,1-5,2a6.2,6.2,0,0,1,0-5,11.59,11.59,0,0,1,3-5c-1.17-1.42-2.67,0-4,1-.33-2.42,1.59-4.52,4-6s10.84,1.38,10.84,1.38l9,2.2S57.65,50.47,61.52,48.76Z" style="fill: #b3b3b3;opacity: 0.5;mix-blend-mode: multiply"/>
      <path d="M60.52,47.76C64.38,46,71,46,73,48a28.77,28.77,0,0,1,4,6s-2.08-1.59-4-1c2.22,2,2.6,4.27,3,5s1.5,1.67,0,5a8.83,8.83,0,0,0-5-2s1.37,4.08,3,6c-3.17-1-7-2-7-2s-2.5,1.92-2,4c-2.58-.58-3.42-2.75-4.25-4.25a7.37,7.37,0,0,0-1,4.94S56.44,68.06,56,66c-1.44,1.56-3.14,2.08-4.37,4.64-1.68-1.8-2.06-3.89-3.25-5.2a4.7,4.7,0,0,0-2.94,4.19C44.6,69,43,66.83,44,64.61,41.58,64.25,39,69,39,69l-2-4s-5.4-.17-7,2c-1.62-2,.33-5.17,3-6-1.4-1.33-4,1-5,2a6.2,6.2,0,0,1,0-5,11.59,11.59,0,0,1,3-5c-1.17-1.42-2.67,0-4,1-.33-2.42,1.59-4.52,4-6s10.84,1.38,10.84,1.38l9,2.2S56.65,49.47,60.52,47.76Z" style="fill: url(#g)"/>
      <path d="M63.18,6.59s9-2,11,0a28.77,28.77,0,0,1,4,6l-4-1,3,5s1,6,0,5-5-2-5-2,3,4,3,6-7-2-7-2l-2,4-5-3v3s-4-1-4-3-3.82,2.22-3.82,2.22-4.18-4.22-4.18-2.22-4,3-4,3V23.2l-5,4.39-2-4s-7,4-7,2,3-6,3-6-4,1-5,2,0-5,0-5l3-5-4,1a28.77,28.77,0,0,1,4-6c2-2,11,0,11,0L52,10.17Z" style="fill: #999;opacity: 0.3;mix-blend-mode: multiply"/>
      <polygon points="54 55.36 61.07 52.41 61.63 55.88 54 57.65 54 55.36" style="fill: #fff"/>
      <path d="M58.61,40.15s4.15,4.14,12.88,1.35,1.83-9.23,1.83-9.23Z" style="fill: #ccc;mix-blend-mode: multiply"/>
      <path d="M45.68,40.15S41.54,44.29,32.8,41.5,31,32.26,31,32.26Z" style="fill: #ccc;mix-blend-mode: multiply"/>
      <path d="M31.25,32l14.5,8.13s-4.7,3-12.54.61S31.25,32,31.25,32Z" style="fill: url(#h)"/>
      <path d="M73.11,32l-14.5,8.13s4.7,3,12.54.61S73.11,32,73.11,32Z" style="fill: url(#i)"/>
      <g>
        <path d="M55.56,60.21l.06.91s14.38.06,14.82-9.54Z" style="fill: #ccc"/>
        <path d="M35.3,54.43s-2.18,8.77,20.31,6.68L55.56,60s-14.68-.26-17-3.92S35.3,54.43,35.3,54.43Z" style="fill: #ccc"/>
        <path d="M36.17,52.38c-2.8,1.61.6,9.08,15,8.13l4.43-.29s8.15,0,11.63-3.45,3.87-5.76,2.35-6.65c-3.14-1.85-5.14.16-8.94,2.37-.12.07.68,3.22.56,3.29s-2.13.41-2.24.47-.06-2.75-.19-2.68l-.82.42c-.1,0,.2,2.33.1,2.37a3.77,3.77,0,0,1-.57.16c-.1,0-.29-1.13-.37-1.11a8.13,8.13,0,0,0-.43,1.35c-.13.06-2.18.4-2.31.46l.08-1.94C39.52,58.86,39,50.76,36.17,52.38Z" style="fill: url(#j)"/>
      </g>
      <g style="clip-path: url(#k)">
        <path d="M38,32.46A4.06,4.06,0,1,1,34,36.51,4.06,4.06,0,0,1,38,32.46Zm27.49,0a4.06,4.06,0,1,0,4.06,4.06A4.06,4.06,0,0,0,65.52,32.46Z"/>
      </g>
      <circle cx="15.16" cy="70.25" r="7.34" style="fill: url(#l)"/>
      <path d="M63,4s8.18-.41,10.18,1.59a28.77,28.77,0,0,1,4,6l-4-1,3,5s1,6,0,5-5-2-5-2,3,4,3,6-7-2-7-2l-2,4-5-3v3s-4-1-4-3-3.82,2.22-3.82,2.22-4.18-4.22-4.18-2.22-4,3-4,3V22.2l-5,4.39-2-4s-7,4-7,2,3-6,3-6-4,1-5,2,0-5,0-5l3-5-4,1a28.77,28.77,0,0,1,4-6c2-2,11.37-1.59,11.37-1.59l9.92-1.39Z" style="fill: url(#m)"/>
    </g>
  </g>
</svg>
