<svg xmlns="http://www.w3.org/2000/svg" xmlns:xlink="http://www.w3.org/1999/xlink" width="100" height="100" viewBox="0 0 100 100">
  <defs>
    <radialGradient id="a" cx="47.98" cy="91.74" r="35.39" gradientTransform="translate(0 78.28) scale(1 0.15)" gradientUnits="userSpaceOnUse">
      <stop offset="0"/>
      <stop offset="1" stop-opacity="0"/>
    </radialGradient>
    <radialGradient id="b" cx="44.45" cy="36.07" r="57.81" gradientUnits="userSpaceOnUse">
      <stop offset="0" stop-color="#fff"/>
      <stop offset="0.35" stop-color="#fdfdfd"/>
      <stop offset="0.55" stop-color="#f4f4f4"/>
      <stop offset="0.72" stop-color="#e6e6e6"/>
      <stop offset="0.86" stop-color="#d3d3d3"/>
      <stop offset="0.99" stop-color="#b9b9b9"/>
      <stop offset="1" stop-color="#b7b7b7"/>
    </radialGradient>
    <radialGradient id="c" cx="29.9" cy="39.8" r="52.13" xlink:href="#b"/>
    <radialGradient id="d" cx="46.49" cy="-148.92" r="26.32" gradientTransform="translate(0 149.79) scale(1 0.71)" gradientUnits="userSpaceOnUse">
      <stop offset="0" stop-color="#878787"/>
      <stop offset="0.22" stop-color="#7e7e7e"/>
      <stop offset="0.58" stop-color="#666"/>
      <stop offset="1" stop-color="#424242"/>
    </radialGradient>
    <radialGradient id="e" cx="61.9" cy="61.48" r="29.5" gradientTransform="matrix(1, 0, 0, 1, 0, 0)" xlink:href="#d"/>
  </defs>
  <title>creatures</title>
  <metadata><?xpacket begin="﻿" id="W5M0MpCehiHzreSzNTczkc9d"?>
<x:xmpmeta xmlns:x="adobe:ns:meta/" x:xmptk="Adobe XMP Core 5.6-c137 79.159547, 2016/07/07-11:39:24        ">
   <rdf:RDF xmlns:rdf="http://www.w3.org/1999/02/22-rdf-syntax-ns#">
      <rdf:Description rdf:about=""
            xmlns:dc="http://purl.org/dc/elements/1.1/"
            xmlns:xmp="http://ns.adobe.com/xap/1.0/"
            xmlns:xmpMM="http://ns.adobe.com/xap/1.0/mm/"
            xmlns:stEvt="http://ns.adobe.com/xap/1.0/sType/ResourceEvent#">
         <dc:title>
            <rdf:Alt>
               <rdf:li xml:lang="x-default">creatures</rdf:li>
            </rdf:Alt>
         </dc:title>
         <xmp:Rating>1</xmp:Rating>
         <xmp:MetadataDate>2018-07-25T10:57:38-07:00</xmp:MetadataDate>
         <xmpMM:InstanceID>xmp.iid:0e9facb3-be88-4af1-a009-bcd267f29ab8</xmpMM:InstanceID>
         <xmpMM:DocumentID>xmp.did:0e9facb3-be88-4af1-a009-bcd267f29ab8</xmpMM:DocumentID>
         <xmpMM:OriginalDocumentID>xmp.did:0e9facb3-be88-4af1-a009-bcd267f29ab8</xmpMM:OriginalDocumentID>
         <xmpMM:History>
            <rdf:Seq>
               <rdf:li>
                  <rdf:Description>
                     <stEvt:action>saved</stEvt:action>
                     <stEvt:instanceID>xmp.iid:0e9facb3-be88-4af1-a009-bcd267f29ab8</stEvt:instanceID>
                     <stEvt:when>2018-07-25T10:57:38-07:00</stEvt:when>
                     <stEvt:softwareAgent>Adobe Bridge CC 2017 (Macintosh)</stEvt:softwareAgent>
                     <stEvt:changed>/metadata</stEvt:changed>
                  </rdf:Description>
               </rdf:li>
            </rdf:Seq>
         </xmpMM:History>
      </rdf:Description>
   </rdf:RDF>
</x:xmpmeta>
                                                                                                    
                                                                                                    
                                                                                                    
                                                                                                    
                                                                                                    
                                                                                                    
                                                                                                    
                                                                                                    
                                                                                                    
                                                                                                    
                                                                                                    
                                                                                                    
                                                                                                    
                                                                                                    
                                                                                                    
                                                                                                    
                                                                                                    
                                                                                                    
                                                                                                    
                                                                                                    
                           
<?xpacket end="w"?></metadata>
<g style="isolation: isolate">
    <g>
      <ellipse cx="47.98" cy="91.74" rx="36.83" ry="6.26" style="opacity: 0.2;mix-blend-mode: multiply;fill: url(#a)"/>
      <g>
        <path d="M47.47,4a34.6,34.6,0,0,0-34.6,34.6V84.81A11.63,11.63,0,0,0,24,73.19a11.64,11.64,0,0,0,23.28,0,11.64,11.64,0,0,0,23.28,0A11.63,11.63,0,0,0,82.07,84.82V38.6A34.59,34.59,0,0,0,47.47,4Z" style="opacity: 0.8;fill: url(#b)"/>
        <path d="M47.47,4a34.6,34.6,0,0,0-34.6,34.6V84.81A11.63,11.63,0,0,0,24,73.19a11.64,11.64,0,0,0,23.28,0,11.64,11.64,0,0,0,23.28,0A11.63,11.63,0,0,0,82.07,84.82V38.6A34.59,34.59,0,0,0,47.47,4Z" style="opacity: 0.8;mix-blend-mode: multiply;fill: url(#c)"/>
      </g>
      <g>
        <path d="M53.61,40.15s4.15,4.14,12.88,1.35,1.83-9.23,1.83-9.23Z" style="fill: #ccc"/>
        <g>
          <path d="M40.68,40.15S36.54,44.29,27.8,41.5,26,32.26,26,32.26Z" style="fill: #ccc"/>
          <path d="M26.25,32l14.5,8.13s-4.7,3-12.54.61S26.25,32,26.25,32Zm41.85,0-14.5,8.13s4.7,3,12.54.61S68.11,32,68.11,32Z" style="fill: url(#d)"/>
        </g>
      </g>
      <path d="M67.13,47.35l-4.39.17.15,3.8-4.12.23-.21-3.87-16.05.61-.19,4.16-4.62-.1-.1-3.88-2.33.09v4.13L30.4,53,30,48.75l-4.24.16s2.12,3.41,4.13,6.83H67.13Z" style="fill: url(#e)"/>
      <polygon points="29.86 55.74 25.73 48.91 29.86 58.27 67.13 58.27 67.13 55.74 29.86 55.74" style="fill: #b3b3b3"/>
    </g>
  </g>
</svg>
